<svg id="Layer_1" data-name="Layer 1" xmlns="http://www.w3.org/2000/svg" viewBox="0 0 109.5 109.5"><defs><style>.cls-1{fill:#fff;}.cls-2{fill:none;stroke:#a5b9c1;stroke-miterlimit:10;}</style></defs><title>aa</title><path class="cls-1" d="M369.33,315.75a49.58,49.58,0,1,1-49.58-49.58,49.58,49.58,0,0,1,49.58,49.58" transform="translate(-265 -261)"/><circle class="cls-2" cx="54.75" cy="54.75" r="49.58"/><circle class="cls-2" cx="54.75" cy="54.75" r="54.25"/><path d="M329.22,324.51c-3,.61-5.73.28-6.82,1.56-1.92,2.25-2.85,5.48-4.37,8.65l10.63,0.6-0.13,1c-3.67,1.64-32.73,1.08-34.37-1.39h14.47c7.81,0,8.55-.63,10.9-9.27-5.39-1-11-7.61-10.41-15.65,0.48-6.35-2.35-7-6.75-4.64a11.59,11.59,0,0,1,.92-13.72,32.94,32.94,0,0,1,6-5c2.4-1.68,5.18-2.82,6-6.25,0.07-.27.92-0.32,1.64-0.55,0.32,3.43-1.46,5.24-3.6,6.78-2.39,1.72-5,3.16-7.21,5.09-3.29,2.85-3.92,5.58-2.9,10.27,0.6,0,1.24,0,1.88,0,4.58-.24,5.73,1.25,6.15,6.17a34.38,34.38,0,0,0,2.45,10.46,6.76,6.76,0,0,0,7.64,4.35,22.52,22.52,0,0,1,5.31,0c0.62,0.05,1.2.67,2.55,1.48" transform="translate(-265 -261)"/><path d="M332.08,316.45c-3.92-11-13.14-21.77-21.37-25.39l6.74-4.37,0.57,0.87L315.87,291c8.59,7.11,15.42,15.82,18.47,26.68-0.51,1.5-1.42,3-1.46,4.51-0.17,5.84-.07,11.68-0.07,17.53v3.44l-1.27.24a12.26,12.26,0,0,1-.73-2.89c-0.06-7.27,0-14.53,0-21.92-3.8-1-7.5-1.69-11.05-2.89-5.29-1.79-7.42-5.89-6.19-11.24a2.36,2.36,0,0,1,1.47-1.51,11,11,0,0,1,.41,2.47c-0.27,4.52.88,6.83,4.84,8.12,3.67,1.2,7.49,1.88,11.84,2.93" transform="translate(-265 -261)"/></svg>