<svg xmlns="http://www.w3.org/2000/svg" viewBox="0 0 97.06 58.25"><defs><style>.cls-1{fill:#aab8bf;fill-rule:evenodd;}</style></defs><title>ACCESORIOS</title><g id="Layer_2" data-name="Layer 2"><g id="Layer_1-2" data-name="Layer 1"><path class="cls-1" d="M29.65,21.18l5-1.54c5.73-1.72,11.49-3.3,17.48-3.72,4.65-.33,9.31-.5,14-.72,2.32-.11,2.51-.2,2.81-2.25.75-5.06,3.87-8.41,8.16-10.63A27.76,27.76,0,0,1,84,.22c8.23-1.8,14.89,7.85,12.65,14.54A21.42,21.42,0,0,1,92.82,22c-2,2.39-4,4.81-6.13,7.45,1.11.57,2.06,1.08,3,1.56,4.72,2.34,6.45,5.31,6,10.5-.85,9.28-7.8,13.52-15.32,12.72-5.88-.62-10-3.34-12.6-8.6a3.12,3.12,0,0,0-3.54-2.09c-8.87.86-17.76,1.55-26.64,2.28-1.72.15-3.44.2-5.16.35a4.53,4.53,0,0,0-4,2.74,17.67,17.67,0,0,1-10.79,8.77,13.89,13.89,0,0,1-16-6.33,7.58,7.58,0,0,1-1.1-2.82C-.09,43.63.34,39,3.58,35a17.22,17.22,0,0,1,3.49-2.83,16.42,16.42,0,0,1,2.07-1.09c-2.33-3.42-4.66-6.57-6.7-9.89A16.14,16.14,0,0,1,1.05,6.88,5.32,5.32,0,0,1,2.87,4.52C8.13.66,15.27-.68,21,4.48c4.29,3.9,6.46,8.7,7.71,14.13.14.59.24,1.19.4,1.77C29.12,20.56,29.3,20.71,29.65,21.18Zm52.79,9.71a30.21,30.21,0,0,0,2.87,3c2.89,2.31,4.59,5.19,4.23,8.91a21.74,21.74,0,0,1-1.4,4.91,5.11,5.11,0,0,1-4,3.31,7.89,7.89,0,0,1-8.81-3.88,33.9,33.9,0,0,1-2.6-5.48,3.52,3.52,0,0,0-3-2.48c-3.85-.79-7.67-.39-11.5-.07-4.44.37-8.86,1.06-13.3,1.28a132.43,132.43,0,0,1-13.66-.06c-2.69-.15-4.23.78-5,3.28-.22.77-.37,1.56-.63,2.32s-.36,1.5-.83,1.8c-2.72,1.73-5.38,3.7-8.35,4.86a9.09,9.09,0,0,1-8.7-1.18A13.48,13.48,0,0,1,4.66,48.5a25.73,25.73,0,0,1-2-3.84c-1.63,3.52,1.57,7.28,4.78,9.91a6.22,6.22,0,0,0,2.71,1.27c7.33,1.42,14.8-2.65,17.09-9.4a2.66,2.66,0,0,1,2.66-2c2-.1,4-.34,6-.51,5-.4,10.08-.79,15.13-1.21s9.87-.83,14.81-1.3c1.68-.17,2.53.44,3.07,2.11,1.53,4.7,5.27,7.15,9.74,8.29a14.17,14.17,0,0,0,6.88,0c5.6-1.5,9.46-8.25,8.24-13.91A4.88,4.88,0,0,0,92.27,35c-3-2-5.9-4.39-9.88-4.07a4.69,4.69,0,0,1,2-3.46,28.52,28.52,0,0,0,10.18-13.3c1.82-5.12-2.47-12.28-7.88-12.35-6.4-.09-15.43,3.55-16.15,12.82-.15,1.89-.91,2.47-2.6,2.52-3,.09-6.07.18-9.1.39-4.14.29-8.35.29-12.38,1.14-6.39,1.36-12.86,2.67-19,6.25a18.2,18.2,0,0,1-.77-2.63c-.2-1.58-.08-3.22-.43-4.76a52.66,52.66,0,0,0-1.87-5.74c-1.65-4.69-8.08-9.25-13-8.92-4.08.29-8.94,2.67-9.35,8a16.92,16.92,0,0,0,2.74,11C6.89,25,9,28,12.14,30.22c.51.36.66,1.22,1,1.91C5.54,34.44,3.24,36.82,2.93,42.86c3.21-6.38,9.62-7.09,15-9.63a4.6,4.6,0,0,0-.66-1.13c-4.31-3.55-7.16-8.21-9.71-13-1.81-3.43-1.37-6.87.58-10.11a4,4,0,0,1,5.5-1.79A9.85,9.85,0,0,1,19,11.89C21,16,23,20.09,24.7,24.29c1.5,3.62,2.12,4.11,5.86,3.24.29-.07.58-.18.87-.26,5.88-1.51,11.71-3.22,17.64-4.48,6.92-1.47,13.84-3.17,21-2.49a24.61,24.61,0,0,0,4.42-.42c0-1.9,0-3.51,0-5.11A12.51,12.51,0,0,1,83.36,3.29c4.31-1.24,7.72,1.49,7.31,5.84a24.23,24.23,0,0,1-3.16,9.69c-1.8,3.08-4.66,5.54-7.07,8.27-.52.58-1.08,1.13-1.7,1.78A4.81,4.81,0,0,0,82.44,30.89ZM35.3,35.47,37.84,38c1.7.09,3.31.21,4.92.25a43.76,43.76,0,0,0,4.86,0q7.88-.66,15.73-1.48a25.15,25.15,0,0,1,8.1.75A3.07,3.07,0,0,1,74,39.6c.61,1.72,1.26,3.42,2,5.09A7.62,7.62,0,0,0,81.18,49a4.31,4.31,0,0,0,4.44-1.29c2.33-2.38,2.76-7.36.51-9.82a34.56,34.56,0,0,0-7.14-6c-3.88-2.41-4-2.33-.69-5.68a85.53,85.53,0,0,0,6.78-7.35A18.91,18.91,0,0,0,88.7,8.13c0-.25-.24-.51-.43-.88l-2.07.63-1.44-2.5c-4.34.14-7.08,3.84-7.9,8.16a43.56,43.56,0,0,0-.26,5.73c-.13,2.61-.84,3.36-3.28,3.21-12.36-.8-24.14,2.19-35.9,5.39-2.54.69-5.07,1.42-7.64,2-4.11.89-5.19.14-6.63-3.7s-3-7.5-4.57-11.23a11.94,11.94,0,0,0-4.83-5.33c-1.91-1.22-3.29-1-4.3,1a8.29,8.29,0,0,0-1,4.29c.36,4.1,2.81,7.34,5.26,10.4,2.06,2.57,4.64,4.74,7,7.12a2.23,2.23,0,0,1,.75,1.5c-.07.38-.79.77-1.29,1C17,36,13.87,37.05,10.79,38.32a14.46,14.46,0,0,0-3.58,2.27A5.41,5.41,0,0,0,7,48.43a8.47,8.47,0,0,0,9.19,2.22c4.11-1.36,7-3.88,8.24-8.14,1.16-3.88,1.69-4.21,5.84-4.22h4.35C34.85,37.27,35,36.69,35.3,35.47Z"/><path class="cls-1" d="M79.65,10.12,81.2,7.9c1.37.41,1.74,1.16,1.17,2.08S80.85,11.1,79.65,10.12Z"/><path class="cls-1" d="M61.78,30.74l-1.25,1.31L59.38,30.9l1.34-1.29Z"/><path class="cls-1" d="M80.43,15.85c-.45-.7-.74-1.15-1-1.6a4.48,4.48,0,0,1,1.4-.79c.22,0,.82.71.76,1C81.47,14.89,81,15.25,80.43,15.85Z"/><path class="cls-1" d="M34.86,32.23c.32.76.63,1.16.62,1.55s-.45.53-.7.79c-.3-.31-.83-.61-.86-1S34.37,32.91,34.86,32.23Z"/><path class="cls-1" d="M68.63,31.88c-.55.44-.89.93-1.23.93s-.67-.49-1-.76c.29-.33.54-.88.87-.93S68,31.5,68.63,31.88Z"/><path class="cls-1" d="M31.22,36.43c-.71.28-1.12.58-1.5.55s-.73-.65-.67-.76c.21-.36.61-.84.95-.86S30.64,35.89,31.22,36.43Z"/><path class="cls-1" d="M66.77,27.51c.44.53.83.79.85,1.07s-.32.63-.5,1c-.27-.22-.72-.4-.78-.68S66.54,28.17,66.77,27.51Z"/><path class="cls-1" d="M87.57,11.72c-1.09.71-1.56,1.12-1.65,1a3.8,3.8,0,0,1-.77-1c.3-.17.59-.49.9-.5A5.41,5.41,0,0,1,87.57,11.72Z"/></g></g></svg>