<svg xmlns="http://www.w3.org/2000/svg" viewBox="0 0 93.44 91.74"><defs><style>.cls-1{fill:#aab8bf;}</style></defs><title>adiestramen to</title><g id="Layer_2" data-name="Layer 2"><g id="Layer_1-2" data-name="Layer 1"><g id="Outline"><path class="cls-1" d="M66.6,65.75h3.05a1.55,1.55,0,0,0,1.28-.68L77,55.89a1.48,1.48,0,0,0,.21-1.21l-3-12.24a1.55,1.55,0,0,0-.64-.9l-8.49-5.66V17.44l7.64-3V33.64h3.06V12.23a1.49,1.49,0,0,0,0-.21v0a1.63,1.63,0,0,0-.13-.39v0a1.74,1.74,0,0,0-.11-.18h0l-.12-.15,0,0L75.2,11h0a.91.91,0,0,0-.16-.11l0,0-.18-.09h0L47.27.1a1.63,1.63,0,0,0-1.11,0L32.4,5.46l1.11,2.85L46.72,3.17,66.09,10.7H49.36a3.06,3.06,0,1,0-1.12,4.18,3,3,0,0,0,1.12-1.12H66.09L46.72,21.3l-23.3-9.07,7-2.73-1.1-2.85L18.64,10.81a1.53,1.53,0,0,0,0,2.85l9.73,3.78V36.7a1.54,1.54,0,0,0,1.53,1.53,31,31,0,0,1,13.8,3.25L46,42.65a1.5,1.5,0,0,0,1.37,0l2.34-1.17a31.23,31.23,0,0,1,13.34-3.25l8.29,5.53,2.75,11-5.28,7.93H66.6V51.39a11.84,11.84,0,0,0-5.27-9.85l-1.7,2.55a8.76,8.76,0,0,1,3.91,7.3V78H66.6ZM62,35.2a34.12,34.12,0,0,0-13.64,3.55l-1.65.83-1.65-.83A34.12,34.12,0,0,0,31.43,35.2V18.63l14.73,5.73a1.52,1.52,0,0,0,1.11,0L62,18.63ZM39.07,52a3.06,3.06,0,1,1-3-3.06A3.06,3.06,0,0,1,39.07,52Zm15.29,0a3.06,3.06,0,1,1,3.06,3.06A3.06,3.06,0,0,1,54.36,52ZM40.6,73.39h-.8a4.56,4.56,0,0,1-4.11-2.53l-1.36-2.74-2.74,1.37L33,72.23a7.61,7.61,0,0,0,6.84,4.22h.8a7.63,7.63,0,0,0,6.12-3.06,7.63,7.63,0,0,0,6.12,3.06h1.7a7.64,7.64,0,0,0,7.26-5.22l.13-.41-2.9-1-.14.41a4.56,4.56,0,0,1-4.35,3.13h-1.7a4.58,4.58,0,0,1-4.59-4.58V65.75a4.59,4.59,0,1,0,0-9.17H45.19a4.59,4.59,0,1,0,0,9.17v3.06A4.58,4.58,0,0,1,40.6,73.39Zm3.06-12.23a1.54,1.54,0,0,1,1.53-1.53h3.06a1.53,1.53,0,1,1,0,3.06H45.19A1.53,1.53,0,0,1,43.66,61.16ZM34.49,22.94h3v9.17h-3Zm58.1,6.11H89.53V26h3.06Zm-6.12,0H78.83V26h7.64ZM91.74,7.9l1.7,2.55-3.06,2-1.7-2.55Zm-4.42,6.63-7.64,5.09L78,17.08,85.63,12Zm3.06,28,3.06,2-1.7,2.54-3.06-2ZM78,38l1.7-2.54,7.64,5.09-1.69,2.55ZM.85,26H3.91v3.06H.85Zm13.76,3.06H7V26h7.65ZM3.06,12.49,0,10.45,1.7,7.9l3.05,2Zm12.4,4.59-1.7,2.54L6.12,14.53,7.81,12ZM1.7,47.14,0,44.6l3.06-2,1.69,2.55Zm4.42-6.62,7.64-5.09L15.46,38l-7.65,5.1ZM66.6,90.21V82.57A1.53,1.53,0,0,0,65.07,81H29.9V51.39a8.74,8.74,0,0,1,3.91-7.3l-1.7-2.55a11.84,11.84,0,0,0-5.27,9.85v11.3H24.6l-5.28-7.93,2.75-11L26.16,41l-1.7-2.55-4.58,3.06a1.5,1.5,0,0,0-.64.9L16.18,54.68a1.56,1.56,0,0,0,.21,1.21l6.12,9.18a1.53,1.53,0,0,0,1.27.68h3.06V90.21a1.53,1.53,0,0,0,1.53,1.53h36.7A1.53,1.53,0,0,0,66.6,90.21Zm-3.06-1.53H29.9V84.1H63.54Z"/></g></g></g></svg>