<svg xmlns="http://www.w3.org/2000/svg" viewBox="0 0 94 94"><defs><style>.cls-1{fill:#fff;}.cls-1,.cls-2{stroke:#aab8bf;stroke-miterlimit:10;}.cls-2{fill:none;}.cls-3{fill:#8b9295;}</style></defs><title>botontienda</title><g id="Layer_2" data-name="Layer 2"><g id="Layer_1-2" data-name="Layer 1"><circle class="cls-1" cx="47" cy="47" r="42.5"/><circle class="cls-2" cx="47" cy="47" r="46.5"/><path class="cls-3" d="M65.41,43.23c-.46-4.54-.92-9.09-1.4-13.78H32.28c-.43,4.69-.85,9.29-1.28,13.9l-1.59-.13c.27-5.15.55-10.29.84-15.79H38.7c.55-3,1-5.61,1.55-8.43H55.92c.5,2.63,1,5.28,1.55,8.25h8.36c.34,5.54,1.46,10.73,1.07,16ZM41,27.13h14.1c-.32-6.28-.32-6.28-6-6.28-.52,0-1.05,0-1.57,0C40.93,21,41.92,19.66,41,27.13Z"/><path class="cls-3" d="M30.67,65.73c-.47-5.63-.91-10.81-1.35-16l1-.21c2,1.65,1,4.33,1.44,6.46a68.63,68.63,0,0,1,.76,7.78H49.09c4,0,8-.21,12,.06,2.87.2,3.63-.95,3.65-3.54,0-2.94.31-5.87.58-8.8a8.19,8.19,0,0,1,.82-2.07l1.1.24C67,53,66.8,56.38,66.64,59.74c-.27,6-.25,6-6.29,6Z"/><path class="cls-3" d="M69.05,47.52h-39a6.53,6.53,0,0,1-1.88-.06c-.46-.15-.81-.66-1.21-1,.36-.28.69-.71,1.1-.81A7.82,7.82,0,0,1,30,45.56q18.12,0,36.23,0a17.32,17.32,0,0,1,3.08.55Z"/><path class="cls-3" d="M41.07,40.41c0-2.22,0-4.43,0-6.65,0-.22.59-.58.89-.58s.87.39.88.61c.07,2.18,0,4.37,0,6.55Z"/><path class="cls-3" d="M41.15,59.94c0-2.25,0-4.5.05-6.75,0-.17.68-.5,1-.44a1.15,1.15,0,0,1,.73.8c.06,2.12,0,4.24,0,6.37Z"/><path class="cls-3" d="M47.37,40.87V33.21C49.51,34,49.77,38.42,47.37,40.87Z"/><path class="cls-3" d="M35.34,41.13V33.07C37.38,34.27,37.6,38.22,35.34,41.13Z"/><path class="cls-3" d="M35.5,52.73c1.88,1.06,2.11,5,0,7.83Z"/><path class="cls-3" d="M47.62,52.8c1.8.85,2.09,4.64,0,7.89Z"/><path class="cls-3" d="M60.87,52.67v7.4C58.54,58.34,58.63,53.87,60.87,52.67Z"/><path class="cls-3" d="M53.7,52.73c1.94,1.1,2.16,5,0,7.77Z"/><path class="cls-3" d="M53.7,33.17c1.92,1.1,2.14,5,0,7.79Z"/><path class="cls-3" d="M60.88,41c-2.27-2.55-2.12-6.54,0-8Z"/><path class="cls-3" d="M52.77,23H43.4c.07,1.14.13,2.06.15,2.4h9.1C52.67,25,52.71,24.1,52.77,23Z"/><path class="cls-3" d="M52.77,23c-.06,1.15-.1,2-.12,2.4h-9.1c0-.34-.08-1.26-.15-2.4Z"/></g></g></svg>