<svg xmlns="http://www.w3.org/2000/svg" viewBox="0 0 94 94"><defs><style>.cls-1{fill:#fff;}.cls-1,.cls-2{stroke:#aab8bf;stroke-miterlimit:10;}.cls-2{fill:none;}.cls-3{fill:#8b9295;}</style></defs><title>botonveterinaria</title><g id="Layer_2" data-name="Layer 2"><g id="Layer_1-2" data-name="Layer 1"><circle class="cls-1" cx="47" cy="47" r="42.5"/><circle class="cls-2" cx="47" cy="47" r="46.5"/><path class="cls-3" d="M84.11,64.09a14,14,0,0,1-1.54-1.85c-3.94-6.91-7.81-13.86-11.81-20.73a3,3,0,0,0-2.29-1c-5.91.16-7.85-1.26-9.17-7a22.21,22.21,0,0,1-.58-4.05c0-.56.51-1.14.79-1.71.39.52,1,1,1.15,1.56.6,2.22.82,4.56,1.65,6.68,1.07,2.75,3.32,3.46,6.25,2.43s2.63-3.06,2-5.4c-2-7.24-6.2-10.54-13.57-10.54-1.69,0-3.37,0-5,0a4.94,4.94,0,0,0-5.11,4.22,2.81,2.81,0,0,1-2,1.76c-2.33.09-4.47,0-6,2.41-.48.79-2,.92-3.2,1.41.25,2.24,1.66,3.2,3.75,3.32,2.62.16,5.25.22,7.87.34,2.24.1,3.68,1.13,4,3-4.54-.54-9.07-.87-13.51-1.67-3.45-.62-5.88-6.2-4.36-9.54a2.7,2.7,0,0,1,2-1,33.79,33.79,0,0,1,4.72,0c2.67.11,5.2.33,6.07-3.23.24-1,1.7-1.88,2.8-2.33,10.55-4.31,21,1,23.63,12,.28,1.19.66,2.8.12,3.66-1.41,2.24-.15,3.62.89,5.32,3.17,5.19,6.32,10.4,9.3,15.7A37.6,37.6,0,0,1,85,63.51Z"/><path class="cls-3" d="M9.29,33.54H22.41V20.25H38l-.37,4.91c-3.86-5.44-8.62-2.05-13-3.33V35.36H11.28V46.87h13V60.28h11.6V47c3.1.23,5.84-.63,8.31.55l-.07,1.17-6.07.49V62.32H22.67V49H9.29Z"/><path class="cls-3" d="M66.31,71.45c-1-10.05-.81-20.51-10.1-28.2-.15,1.35-.26,2.11-.31,2.88s0,1.46,0,2.56c-4.31.22-9.27-.34-9.27,6.06-1.89.64-4.74-.64-4.76,2.82,0,2.62,1,4.21,3.75,4.5,5.9.66,7.82,3.25,6.7,10-.69-.94-1.29-1.4-1.4-1.95-1.09-5.33-1.07-5.31-6.24-6.18a5.38,5.38,0,0,1-4.78-5.44c-.13-2.55.2-5.19,3.73-5.47a1.63,1.63,0,0,0,1.23-.74c1.27-4.5,4.8-5.41,8.95-5.52L54.09,41c6.35.79,11.28,8,13.08,18.91C68.44,67.62,68.28,70.49,66.31,71.45Z"/></g></g></svg>