<svg xmlns="http://www.w3.org/2000/svg" viewBox="0 0 94 94"><defs><style>.cls-1{fill:#fff;}.cls-1,.cls-2{stroke:#aab8bf;stroke-miterlimit:10;}.cls-2{fill:none;}.cls-3{fill:#8b9295;}</style></defs><title>botonservicio</title><g id="Layer_2" data-name="Layer 2"><g id="Layer_1-2" data-name="Layer 1"><circle class="cls-1" cx="47" cy="47" r="42.5"/><circle class="cls-2" cx="47" cy="47" r="46.5"/><path class="cls-3" d="M44.36,25.52c.37,1.82.69,3.65,1.13,5.45.91,3.71,2.56,5,5.61,4.46,2.11-.36,3.07-1.49,2.79-3.73-.85-6.86-6.37-11.47-13.1-10.61-1.33.17-3.34.93-3.67,1.88-1.06,3.12-3.6,3-5.94,3.61-1.09.31-2.9,1.63-2.79,1.93.5,1.4,1.27,3.14,2.47,3.76,1.69.87,3.84.84,5.79,1.24,2.15.45,3.3,1.73,3.12,4-.15,2-.31,4-.52,6-.52,4.8-1.12,9.59.54,14.33.21.57-.24,1.38-.39,2.08-.49-.53-1.19-1-1.42-1.62-2.06-5.43-1.13-11-.48-16.49.06-.52.18-1,.24-1.55.48-4.32.12-4.75-4.3-5.37a24.13,24.13,0,0,1-3.39-.64,5.11,5.11,0,0,1-3.83-4.85c-.23-2.61.44-4.51,3.59-4.66a6.64,6.64,0,0,0,5.91-3.21C37.8,18.22,45,18,49.1,20.64a14.64,14.64,0,0,1,6.74,11.54c.13,1.45-1.31,4-2.52,4.39a10.76,10.76,0,0,1-7-.38c-2.62-1.27-3.79-7.3-2.8-10.46Z"/><path class="cls-3" d="M48.55,40.07c2.06,3.6,4.11,7.21,6.43,11.28,2.34-4.07,4.41-7.66,6.48-11.24l1,.13a6.62,6.62,0,0,1-.24,2.35c-1.51,2.87-3.18,5.66-4.78,8.5-1.49,2.65-.7,5.17,2,6.61,3.56,1.87,6,6,5.45,9.82a4.25,4.25,0,0,1-1.76,3,4.35,4.35,0,0,1-3.44-.62c-2.82-1.81-4.42-6.72-3.78-10.08a14.65,14.65,0,0,0-.18-3.66l-1.32-.1a13.65,13.65,0,0,0-.4,3.66,10.61,10.61,0,0,1-3.72,10.15c-2.38,2.11-5,.93-5.4-2.24-.44-3.38,2.09-8.13,5.21-9.74s4-3.92,2.28-7c-1.59-2.84-3.25-5.64-4.75-8.52-.3-.59,0-1.46,0-2.2Zm3,19.54c-3.81,1.9-5.4,5.86-3.84,9.2A7,7,0,0,0,51.53,59.61Zm10.8,9.29c1.48-3.88-.39-8-3.95-9.06C57.07,63.43,58.55,67,62.33,68.9Z"/></g></g></svg>