<svg xmlns="http://www.w3.org/2000/svg" viewBox="0 0 109.5 109.5"><defs><style>.cls-1{fill:#fff;}.cls-1,.cls-2{stroke:#aab8bf;stroke-miterlimit:10;}.cls-2{fill:none;}</style></defs><title>botoncat</title><g id="Layer_2" data-name="Layer 2"><g id="Layer_1-2" data-name="Layer 1"><circle class="cls-1" cx="54.75" cy="54.75" r="49.58"/><circle class="cls-2" cx="54.75" cy="54.75" r="54.25"/><path d="M53,45.3a47.08,47.08,0,0,1-6.79,1.27c-3.06.19-4.22,1.82-4.2,4.48,0,3.82.36,7.63.52,11.44.19,4.37.44,8.73.41,13.09a3,3,0,0,1-2.06,2.12A20.38,20.38,0,0,1,36,77.28l.18-1.2,5.28-.41c-.25-4,.17-8-.87-11.67-1.89-6.67-1-13,.82-19.33.32-1.09.49-2.23.81-3.72-1.5-.1-2.65-.1-3.77-.26-2.36-.32-4.08-1.52-4.4-4-.3-2.33-.17-4.6,2.83-5.27.38-.08.94-.31,1-.6,1.08-3.31,3.74-4.15,7-4.25.12-1.54.22-2.89.34-4.37,2.92-.37,4.52,1.45,6,3.23,4,4.89,5.5,10.74,5.36,16.86-.1,4.42,1.42,7,5.54,8.6,6.08,2.33,7.91,7.5,8.09,13.46.12,3.75,0,7.51,0,11.21,5,1.42,7.47-.57,6.56-5.3-.48-2.5-1.66-4.86-2.49-7.29-1.4-4.09-2.08-8.22.49-12.08a29.33,29.33,0,0,1,3.86-4l.9.68c-.29.65-.41,1.51-.9,1.9-4,3.21-4.09,7.31-2.75,11.7.68,2.26,1.76,4.39,2.43,6.65.88,2.93,1.57,6-1,8.48s-5.64,2.23-9.12,1.17c0-3.8,0-7.65,0-11.5.11-6.6-2-11.57-8.67-14.3C57.25,50.76,55.66,48,53,45.3ZM46.91,24.18c.5,3.43-.15,4.88-3.06,4.58-2-.21-3.38.88-4,3-.21.7-1.21,1.14-1.79,1.76-.72.8-2.11,1.94-1.92,2.42a4.44,4.44,0,0,0,2.57,2.61c5.39,1,5.41.88,5.39,6.46l10.52-2.17C54.24,35.71,53.07,29.46,46.91,24.18Z"/><path d="M63.16,77.18c-4,1.44-14.71.88-15.68-1l3.41-.54c-2.6-9.84.63-16.13,8.46-14.77a26.28,26.28,0,0,1-2.87,1.69C51.34,64.73,49.67,70.8,53.24,75c.54.63,1.86.78,2.84.84,2.4.15,4.82.12,7.22.16Z"/></g></g></svg>