<svg xmlns="http://www.w3.org/2000/svg" viewBox="0 0 94 94"><defs><style>.cls-1{fill:#fff;}.cls-1,.cls-2{stroke:#aab8bf;stroke-miterlimit:10;}.cls-2{fill:none;}.cls-3{fill:#8b9295;}</style></defs><title>botonmascota</title><g id="Layer_2" data-name="Layer 2"><g id="Layer_1-2" data-name="Layer 1"><circle class="cls-1" cx="47" cy="47" r="42.5"/><circle class="cls-2" cx="47" cy="47" r="46.5"/><path class="cls-3" d="M57.4,67.8c-1.88-.67-4-1-5.57-2.09-2.44-1.69-4.45-1.73-6.68.14a6.71,6.71,0,0,1-2.13,1c-4.18,1.47-8,.47-10.31-2.67a8.36,8.36,0,0,1,.52-10.34,77.54,77.54,0,0,1,9.83-9.6c3.58-2.92,9.37-2,12.65,1.33,1.95,2,4,3.93,6,5.82,3.64,3.33,5,7.65,3.53,11.14C63.9,65.7,61.08,67.48,57.4,67.8ZM48.61,44.45c-1.54.5-3.21.59-4.21,1.46A95.77,95.77,0,0,0,35,55c-2,2.31-2.61,5.25-.46,8A6.1,6.1,0,0,0,43,64.47c3.94-2.67,7.12-2.57,11,0A6.15,6.15,0,0,0,62.54,63c1.83-2.38,1.76-5.54-.73-8.32a96.47,96.47,0,0,0-8.88-8.63C51.84,45.12,50.07,45,48.61,44.45Z"/><path class="cls-3" d="M47,30.6c-1.12,2.94-1.78,6-3.34,8.41-2.14,3.37-5.92,3.22-8.52.16-3.44-4.07-3.43-13,0-17.06,2.53-3,6.43-3.1,8.53.24C45.21,24.72,45.86,27.62,47,30.6Zm-2.25.15c-.88-2.44-1.4-4.9-2.6-7-1.43-2.46-3.7-2.33-5.5-.12C34,27,34,34.4,36.7,37.69c1.75,2.14,4.11,2.19,5.52-.26C43.37,35.45,43.89,33.12,44.76,30.75Z"/><path class="cls-3" d="M65.25,30.68c-1.14,3-1.76,5.82-3.18,8.12-2.17,3.5-6.11,3.47-8.75.33-3.41-4.08-3.36-13,.09-17.06,2.48-2.89,6.26-3.1,8.31.06C63.36,24.65,64.09,27.76,65.25,30.68Zm-12.87,0c.82,2.34,1.32,4.8,2.51,6.87,1.37,2.4,3.78,2.27,5.52.09,2.63-3.31,2.69-10.29.12-13.74-1.88-2.53-4.35-2.56-5.9.25C53.57,26,53.16,28.28,52.38,30.65Z"/><path class="cls-3" d="M76.72,43.64c-1.46,2.93-2.48,6.23-4.5,8.7-2.9,3.55-7.65,2.28-8.19-2.23a22.25,22.25,0,0,1,1.43-9.68c1-2.66,3.32-4.85,6.61-4S75.72,40.37,76.72,43.64ZM64.94,46.58c1,2.07,1.45,3.79,2.51,5.06.34.42,2.36,0,3.2-.66,2.61-1.93,3.91-7.55,2.69-10.49-1-2.3-2.84-3-4.38-1.05C67.29,41.51,66.28,44.13,64.94,46.58Z"/><path class="cls-3" d="M34.24,46.74c-.83,3.37-1.12,6.49-4.66,7.33s-5.66-1.61-6.69-4.37A21.3,21.3,0,0,1,21.54,41,5.94,5.94,0,0,1,25,36.66a6,6,0,0,1,5.17,1.91C32,40.94,32.93,44,34.24,46.74Zm-2.09.77c-1.13-2.69-1.82-5.07-3.1-7.07-.63-1-2.58-2-3.5-1.72a4.18,4.18,0,0,0-2.13,3.35,17.75,17.75,0,0,0,1.59,7c.65,1.32,3,3,4,2.65C30.32,51.31,31.05,49.12,32.15,47.51Z"/></g></g></svg>