<svg xmlns="http://www.w3.org/2000/svg" viewBox="0 0 109.5 109.5"><defs><style>.cls-1{fill:#fff;}.cls-1,.cls-2{stroke:#aab8bf;stroke-miterlimit:10;}.cls-2{fill:none;}</style></defs><title>BOTONcateg</title><g id="Layer_2" data-name="Layer 2"><g id="Layer_1-2" data-name="Layer 1"><circle class="cls-1" cx="54.75" cy="54.75" r="49.58"/><circle class="cls-2" cx="54.75" cy="54.75" r="54.25"/><path d="M84.62,61.26a10.2,10.2,0,0,0-11-3.8c2.06.74,3.3,1.21,4.55,1.64a9.81,9.81,0,0,1,6.17,12.59c-1.34,3.94-6.58,5.82-11.79,4,1.12-10.48-3.46-19-9.8-26.92a24,24,0,0,1-2.67-4.44c-.87-1.75-1.62-3.45.41-5.22a4.58,4.58,0,0,0,.93-3.59c-.72-4.64-2.69-8.68-6.72-11.42s-11.41-2.94-13.61.23c-2,2.89-4.48,3.67-7.52,4-1.84.18-2.52,1.22-2.69,3-.38,4.14,1.6,6.53,6.13,7.14,6.33.85,6.39.93,5.46,7.32,0,.22-.08.43-.11.64A45.63,45.63,0,0,0,42.9,63.5c1,3.93.18,8.28.18,12.52l-4.82.46-.09,1.35a28.73,28.73,0,0,0,5.39.2c.64-.09,1.44-1.43,1.6-2.31A39.06,39.06,0,0,0,44.44,60c-.76-3.39-.4-7.06-.27-10.6,0-.61,1.31-1.57,2.13-1.7a99.7,99.7,0,0,1,10.32-1.19,3.93,3.93,0,0,1,2.84,1.31C66.6,56.42,71.83,65.83,70.8,77.6c0,.09.1.18.16.28,6,1.59,11.68.22,14.22-3.42C87.59,71,87.33,64.94,84.62,61.26Zm-27.75-20,.71,3L44.84,45.71c-.08-.73-.15-1.14-.15-1.55,0-6.44-.35-6.78-6.77-7.63-1.26-.17-2.79-.38-3.59-1.18A5.72,5.72,0,0,1,33,31.66c0-.52,1.45-1.38,2.34-1.55,2.83-.54,5.47-.64,7-4.08,1-2.44,7.29-2.47,10.57-.56,4,2.3,5.87,6,6.41,10.38.12,1-1.26,2.95-2.06,3-1.71.12-4.15-.14-5.1-1.26-1.27-1.51-1.41-4-2.06-6-.27-.85-.59-1.69-1.19-3.36C47.11,35.37,50.62,42.8,56.87,41.29Z"/><path d="M58.9,76.27c-2.14.22-3.08-.78-3.75-2.64-2.16-6-.75-10,5.09-14.52.53-.4.7-1.26,1-1.92a5.92,5.92,0,0,0-2,.19,12.61,12.61,0,0,0-7,12.53,55.9,55.9,0,0,0,1.26,6l-4.54,1L49.26,78H66c.11-.34.21-.68.32-1a6.47,6.47,0,0,0-1.88-.71A35,35,0,0,0,58.9,76.27Z"/></g></g></svg>