<svg id="Layer_1" data-name="Layer 1" xmlns="http://www.w3.org/2000/svg" viewBox="0 0 109.5 109.5"><defs><style>.cls-1{fill:#fff;}.cls-2{fill:none;stroke:#a5b9c1;stroke-miterlimit:10;}.cls-3{fill-rule:evenodd;}</style></defs><title>2</title><path class="cls-1" d="M328.33,307.75a49.58,49.58,0,1,1-49.58-49.58,49.58,49.58,0,0,1,49.58,49.58" transform="translate(-224 -253)"/><circle class="cls-2" cx="54.75" cy="54.75" r="49.58"/><circle class="cls-2" cx="54.75" cy="54.75" r="54.25"/><path class="cls-3" d="M292.34,322.37a29.33,29.33,0,0,1-21,8.52c-6.1-.12-9.95-3.61-12.76-8.52-2.92-5.09-2.78-10.62-1.28-16,1.62-5.81,4.62-10.84,10-14.11a30.33,30.33,0,0,1,15-4.45,9,9,0,0,1,4.9,1.7c7.39,5,11.43,11.88,10.66,21a19.29,19.29,0,0,1-5.58,11.82M264.07,297.9c10.14,7.58,13.08,17.65,12.06,29.26,5.14,0.46,11.41-2.22,12.62-5.26a39.39,39.39,0,0,1-9.13-31.21c-6,.47-11.32,2.33-15.55,7.2m-1.68,2.49c-3.69,6.22-4.81,12.07-2.73,18.37,1.44,4.36,4.18,7.7,8.58,9.16s5.06,0.76,5.42-3.52a27.36,27.36,0,0,0-7.2-21.1c-1-1.08-2.41-1.75-4.07-2.91m20.1-10.23c-0.35,3.06-1,5.45-.82,7.77A37.31,37.31,0,0,0,288,316.59a23.54,23.54,0,0,0,3.19,3.1c4.18-5.07,5.3-10.4,3.55-16.08a19.86,19.86,0,0,0-12.23-13.44" transform="translate(-224 -253)"/></svg>