<svg xmlns="http://www.w3.org/2000/svg" viewBox="0 0 109.5 109.5"><defs><style>.cls-1{fill:#fff;}.cls-1,.cls-2{stroke:#aab8bf;stroke-miterlimit:10;}.cls-2{fill:none;}</style></defs><title>catecreptil</title><g id="Layer_2" data-name="Layer 2"><g id="Layer_1-2" data-name="Layer 1"><circle class="cls-1" cx="54.75" cy="54.75" r="49.58"/><circle class="cls-2" cx="54.75" cy="54.75" r="54.25"/><path d="M46,39.22a11.08,11.08,0,0,0-.22-2.5c-.6-1.93-1-4.13-2.22-5.54-.49-.58-2.88.32-4.2,1-2.89,1.5-5.68,3.23-8.44,5a10.5,10.5,0,0,0-3,2.71A4.12,4.12,0,0,0,27.18,43c.27.71,1.68,1.13,2.63,1.27,2.92.43,5.87.6,8.79,1,.39.06.69.94.74,2.41l-8.41-1.12-.29,1a11.55,11.55,0,0,0,3.13,1c3.43.13,6.87,0,10.31.08a10.76,10.76,0,0,1,2.57.72c-.06.4-.11.81-.16,1.21-5.1,0-10.39.88-15.22-.36-2.58-.66-5.12-4.65-6.27-7.75s1.82-5.31,4.2-6.9a106.72,106.72,0,0,1,11.23-6.9c1.23-.62,3.48-.05,4.74.84s2.12,2.93,3.26,4.64c3-.17,6.35-.51,9.65-.5C70.61,33.81,77.7,41,78.35,54.47c.2,4.05.19,8.12,0,12.16C78,76.77,70.07,83.45,60.82,81.56c-5.32-1.09-8.67-6-8.47-12.36.16-5.35,3.76-9.53,8.66-10.06,5.72-.62,10.3,5.42,8.27,10.91-1.1,3-4.07,4.91-6.91,4.31-2.66-.57-4.14-2.32-3.72-5.81a8.28,8.28,0,0,1,1.55,1.52c1.21,2,2.7,2.77,4.8,1.72s2.85-2.87,2.53-5.27A5.72,5.72,0,0,0,62,61.39a7.44,7.44,0,0,0-7.38,6.36c-1.39,8,4.69,13.63,12.44,11.54a12.54,12.54,0,0,0,9-11.49A139.11,139.11,0,0,0,76,51.72c-.65-8.54-5.92-14.43-13.77-15.3A65.06,65.06,0,0,0,50,36.6C48.8,36.69,47.74,38,46,39.22Z"/><path d="M45.58,44.68c7.43-1.12,8.73-.22,8.21,3.92h4.28c.47-4.56,2.21-5.35,8.47-3.85l.24,1-6.32,1.1c1.34,2.62,2.19,5.71,4.08,7.57,1.57,1.54,4.37,1.65,6.63,2.39l-.14.89H32.72L32.39,57c.73-.36,1.46-1,2.2-1a88.2,88.2,0,0,1,9.62,0c2.23.17,3.46-.72,4.35-2.82s2-4.14,3.15-6.38L45.29,46C45.39,45.53,45.48,45.11,45.58,44.68ZM62.27,55.8c-2.29-5.83-1.4-5-8.68-4.7-1.39.06-2.69,2.53-4,3.88l.66.82Z"/></g></g></svg>