<svg xmlns="http://www.w3.org/2000/svg" viewBox="0 0 109.5 109.5"><defs><style>.cls-1{fill:#fff;}.cls-1,.cls-2{stroke:#aab8bf;stroke-miterlimit:10;}.cls-2{fill:none;}</style></defs><title>catecfish</title><g id="Layer_2" data-name="Layer 2"><g id="Layer_1-2" data-name="Layer 1"><circle class="cls-1" cx="54.75" cy="54.75" r="49.58"/><circle class="cls-2" cx="54.75" cy="54.75" r="54.25"/><path d="M39.44,37.86c-.69-2.6-1.72-4.79-1.68-6.95,0-1.12,1.92-2.2,3-3.3l.63.71c-.56,1.66-1.95,3.75-1.46,4.88s2.84,1.5,5.05,2.49a27.73,27.73,0,0,1-2.65,2.77C30.12,48.22,29.9,67.7,42,77.55a8.55,8.55,0,0,0,4.8,1.82q9,.33,18,0a8.63,8.63,0,0,0,4.81-1.84c12.21-9.9,11.85-29.63-.61-39.28-1-.75-1.82-1.67-3-2.78l6.17-1.73q-.7-2.7-1.42-5.42l.55-.77c1.07,1.14,2.63,2.08,3.09,3.46.92,2.74-.38,4.83-3.69,6.28A27.46,27.46,0,0,1,73.83,40C84.17,51.74,82.37,70.88,70,80a9.14,9.14,0,0,1-4.87,1.69c-6.2.19-12.41.2-18.61,0a9.59,9.59,0,0,1-5.16-1.84c-12.3-9.26-13.9-28.25-3.49-40.11C38.62,38.85,39.36,38,39.44,37.86Z"/><path d="M62.28,55.87c3.52-5.06,6.89-6.1,11.83-3.23-3.68,3-2.56,6.9-2.22,10.93.26,3.21-.75,6.55-1.19,9.83l-1-.14c-1.67-2.51-2.91-6.26-5.14-7.15-2-.78-5,1.63-8,2.79,0-3.43,3-3.74,4.62-4.84,3.73-2.59,6,.64,8.46,4.22V53.42c-4-.74-5.11,2.89-6.38,6.63-3.33-2.36-7.06-4-5.14-9.7l-1.21-.3c-1.07,1.37-2.64,2.59-3.09,4.17A4.35,4.35,0,0,1,51,57.6c-2.3.92-4.16,5.55-3.4,8.2l6.85-1-.63,6,6.6-.35c.11.64.37,2.25.66,4.07-2.7-.45-5.16-.33-7.08-1.37-1.47-.79-2-3.43-3.42-4.53s-4.27-.57-4.73-1.65c-.93-2.14-3-4.72.48-7.36,2.57-2,4-5.54,6.23-8.15a10.2,10.2,0,0,1,4.28-3c2.25-.77,4-.27,3.17,3.13C59.5,53.57,59.56,55.46,62.28,55.87Z"/><path d="M44.44,50.11c-.81-1.45-2.42-3-2.21-4.29s2.14-2.87,3.46-3c.83-.1,2.7,2.15,2.7,3.33,0,1.36-1.57,2.72-2.45,4.08Z"/><path d="M39.82,51.33c1.34,1.87,2.7,3,2.59,3.82-.16,1.13-1.47,2.09-2.28,3.13-.91-.84-2.48-1.62-2.55-2.54C37.49,54.64,38.68,53.42,39.82,51.33Z"/><path d="M54.39,36.56C56,34,61.83,34,63.21,36.56Z"/></g></g></svg>