<svg xmlns="http://www.w3.org/2000/svg" viewBox="0 0 109.5 109.5"><defs><style>.cls-1{fill:#fff;}.cls-1,.cls-2{stroke:#aab8bf;stroke-miterlimit:10;}.cls-2{fill:none;}</style></defs><title>catecroedores</title><g id="Layer_2" data-name="Layer 2"><g id="Layer_1-2" data-name="Layer 1"><circle class="cls-1" cx="54.75" cy="54.75" r="49.58"/><circle class="cls-2" cx="54.75" cy="54.75" r="54.25"/><path d="M48.29,34C43.7,36,39.83,37.5,36.19,39.48,33.42,41,33.12,44.16,33.76,47s3.15,3.67,5.77,3.75c3.86.13,4.67,1.15,5.22,5.28a55.73,55.73,0,0,0,1.69,6.71c-1.17,1.59-2.56,3.44-3.93,5.31s-5.11,2.49-6.66,1.1c-2-1.79-2.15-6.8-.27-8.83,1.69-1.81,3.92-1.47,6.05,1,.42.48.84,1,1.88,2.2-.45-3.62-.63-6.35-1.17-9-.32-1.55-4.53-2.23-6.46-1.23-.45.24-.89.5-1.49.84-1-2.9-2.6-5.53-2.85-8.29-.64-7,4.86-10.52,11.28-12.14,2.38-.6,3.73-1.13,4.66-3.77,1.38-3.88,5.11-5,8.59-3.21,3,1.57,4.18,4.8,2.19,7.66-1.86,2.67-.63,4,1.28,5a41.11,41.11,0,0,0,6.88,2.53C74.35,44.24,77.48,47.74,78,56.58a50,50,0,0,1-1.49,13.3c-.75,3.39-3.26,5.57-7.4,6.28a8.26,8.26,0,0,1,1.05-2.38c.64-.61,1.71-.73,2.28-1.37,4.67-5.3,4-11.86,3.29-18.24a10.52,10.52,0,0,0-7.87-9.54c-2.45-.73-5-1.16-7.28-2.36a18.93,18.93,0,0,1-5.21-4.64c-.47-.56-.23-2.52.34-3.24,1.42-1.81,2.23-3.52.21-5.16s-4.28-1.79-5.89.52A16.31,16.31,0,0,0,48.29,34Zm-9.7,27.11-1.17.17c-.35,1.2-1.16,2.52-.92,3.57s1.51,1.92,2.33,2.87c.74-.83,2.23-1.89,2.08-2.44C40.51,63.72,39.41,62.43,38.59,61.06Z"/><path d="M55.19,73.35C51.14,60.9,55,52,64.6,53.07a16.54,16.54,0,0,1-2.52,1.86c-7.2,3.18-9.43,11.19-4.56,17.59.82,1.09,3.17.8,4.79,1.22a29.2,29.2,0,0,1,2.79,1A9.63,9.63,0,0,1,62.24,76a68,68,0,0,1-8,0c-.77,0-1.52-.75-2.28-1.16.69-.38,1.37-.78,2.07-1.14A7.43,7.43,0,0,1,55.19,73.35Z"/></g></g></svg>