<svg id="Layer_1" data-name="Layer 1" xmlns="http://www.w3.org/2000/svg" viewBox="0 0 109.5 109.5"><defs><style>.cls-1{fill:#fff;}.cls-2{fill:none;stroke:#a5b9c1;stroke-miterlimit:10;}.cls-3{fill-rule:evenodd;}</style></defs><title>1</title><path class="cls-1" d="M155.33,307.75a49.58,49.58,0,1,1-49.58-49.58,49.58,49.58,0,0,1,49.58,49.58" transform="translate(-51 -253)"/><circle class="cls-2" cx="54.75" cy="54.75" r="49.58"/><circle class="cls-2" cx="54.75" cy="54.75" r="54.25"/><path class="cls-3" d="M122.5,291.73l3.65,2a4.79,4.79,0,0,1,5.13,2.15c0.73,1,2,1.65,2.78,2.63a20.54,20.54,0,0,1,4.69,9.81,4.27,4.27,0,0,0,1.51,2.88c2,1.66,1.83,3.32,0,5.22a19.43,19.43,0,0,1-9.64,5c-3.57.86-7.13,1.83-10.74,2.4s-7,.69-10.56.94a102.24,102.24,0,0,1-24.19-1c-2.28-.38-4.58-0.62-6.83-1.11a13.24,13.24,0,0,1-3.55-1.47c-1.48-.83-1.86-1.81-1.48-3,0.47-1.45,1.66-1.1,2.78-1a8.47,8.47,0,0,0,.91-4.12,38.07,38.07,0,0,1,1.58-11.27,3.38,3.38,0,0,1,.9-1.47,9.16,9.16,0,0,1,5.94-2.79,1.66,1.66,0,0,0,1.2-.56c1.39-2.45,3.52-2.72,5.82-2.15A34.13,34.13,0,0,1,94.75,291c1.18-1.43,2.73-.71,4.23-0.3,0.9-.74,1-2.46,2.51-2.39a19.81,19.81,0,0,1,3.5.82c0.92-1.18,1.59-3.11,4-2.9a5.61,5.61,0,0,1,4.48,2.57c0.82-.78,1.52-1.52,2.3-2.15a2.8,2.8,0,0,1,3.59-.08,6.3,6.3,0,0,1,3.07,5.12m-44.65,27a43.35,43.35,0,0,0,9.42,1.62,33.68,33.68,0,0,1,4.64.5,34.24,34.24,0,0,0,8.08.8c2.64-.17,5.28-0.4,7.92-0.48,5.33-.16,10.48-1.44,15.65-2.51a73.84,73.84,0,0,0,7.22-2.08,19,19,0,0,0,6-3,2.71,2.71,0,0,0,1.15-2.8,22,22,0,0,0-3.15-9.17,35.15,35.15,0,0,0-2.87-3.47c-3.27,4.06-7.77,4.87-12.3,5.58-3.29.51-6.61,0.88-9.9,1.38a119.56,119.56,0,0,1-20.55,1.3c-3.25-.07-6.71-0.15-9.25-2.83a1.43,1.43,0,0,0-.42.06,22,22,0,0,0-.68,2.79c-0.4,3.44-.73,6.89-1.05,10.33a12.55,12.55,0,0,0,.15,2m52-20.6c-0.2-2.7-.87-3.32-3.13-3,0.5,2.1.25,2.5-1.88,3.09a8.91,8.91,0,0,0-1.34.49,31.75,31.75,0,0,1-10.1,2.28c-3.92.4-7.86,0.7-11.73,1.37a26.67,26.67,0,0,1-4.46.33c-2.78,0-5.57.22-8.34,0.44s-4.12-.74-4.4-3.67a1.32,1.32,0,0,0-.35-0.39,5.11,5.11,0,0,0-3.71,2.47c0.89,0.82,1.64,2,2.67,2.34a22.59,22.59,0,0,0,5.82.88,123.83,123.83,0,0,0,19.5-1.13q6.37-.76,12.7-1.79c3.16-.51,6.27-1.26,8.75-3.75M74.36,318.73a6.1,6.1,0,0,0,1.13,1.41A8,8,0,0,0,78,321.36c2.32,0.49,4.68.78,7,1.2,6.66,1.21,13.38,1.2,20.11,1.1A90.64,90.64,0,0,0,123,321.92a59.88,59.88,0,0,0,11.93-3.46,13.8,13.8,0,0,0,4.74-3.78,4.46,4.46,0,0,0,.54-1.33l-0.37-.29c-0.54.36-1.1,0.67-1.6,1.08a17.13,17.13,0,0,1-7,3.58c-2,.47-3.89,1.22-5.87,1.68-3.76.88-7.53,1.82-11.34,2.4-3.55.54-7.16,0.68-10.74,0.92a31.55,31.55,0,0,1-8.91-.25,24.8,24.8,0,0,0-6-.77c-3.34.11-6.45-.86-9.62-1.56A8.5,8.5,0,0,1,76.41,319a1.6,1.6,0,0,0-2-.22m31.9-24.6,3.46-.58c1.9-.32,2.44-0.82,2.7-2.57a2.88,2.88,0,0,0-2.13-3.24c-1.78-.52-3,0-3.71,1.53s-0.47,3-.33,4.86m0.88,1.45c0,1.14-.05,2.09.06,3A1.41,1.41,0,0,0,109,300c1.06-.1,2.11-0.34,3.37-0.54a18.34,18.34,0,0,0,.34-3.06c-0.07-1.38-.65-1.76-2-1.54-1.14.18-2.26,0.44-3.51,0.69m-2.48-2.71a3.71,3.71,0,0,0-1.58-2.9,1.29,1.29,0,0,0-2.12.68,5.79,5.79,0,0,0-.23,1.8c0,0.81.14,1.62,0.06,2.42-0.14,1.48.59,2.48,2.05,2.48a1.34,1.34,0,0,0,1.06-.67c0.34-1.23.52-2.51,0.76-3.81m-17,8.64a22.93,22.93,0,0,0,2.83-.05,2.82,2.82,0,0,0,2.4-3.8,2.09,2.09,0,0,0-2.1-1.59c-0.9,0-2,0-2.28.94a34.33,34.33,0,0,0-.86,4.49M94,296.36c1.22,0.23,2.07.43,2.93,0.52a2,2,0,0,0,1.33-.15,2.72,2.72,0,0,0,.85-2.78,3,3,0,0,0-2.05-2.32,2.15,2.15,0,0,0-2.26,1.43,23.72,23.72,0,0,0-.8,3.3M115,290c3.72,1.53,3.77,1.6,4.14,5.15a14.53,14.53,0,0,0,1.67-3.34c0.52-1.77-1.36-4.16-3.19-4.13a2.69,2.69,0,0,0-1.59.7,7.17,7.17,0,0,0-1,1.62m-0.63,6.76c0.86-.54,1.58-0.91,2.2-1.4a2.91,2.91,0,0,0,1-1.2,1.54,1.54,0,0,0-.65-2c-0.62-.38-1.26-1-2-0.42s-1.45,1.14-1.26,2.17,0.49,1.81.77,2.81m10.9-.33c-0.57-1.28-.45-2.68-2-2.87a2.65,2.65,0,0,0-2.49,1.5c-0.92,1.38.74,1.77,0.94,2.89l3.51-1.51M95,301.3l4.2-.26a2.17,2.17,0,0,0-1.39-2.42c-0.91-.37-1.83-1.28-2.77-0.35s-0.37,1.87,0,3m25.21-3.55c-1.33-.81-2.47-1.44-3.77-0.7a1.41,1.41,0,0,0-.59,2c1.47-.14,3,0.21,4.36-1.3m-19.29,2.65,0.1,0.47,4.32-.52c-1.47-1.56-2.83-1.45-4.42,0m-0.06-1.86,0-.48-1.11-.14q0,0.36,0,.72l1.1-.1" transform="translate(-51 -253)"/><path class="cls-3" d="M112.84,308.54c2.4-.18,4.18,1,5.73,2.58a3.34,3.34,0,0,1,.67,3.92c-0.69,1.24-1.73,1.63-3.48,1.31-0.53-.1-1.07-0.18-1.6-0.24-1.66-.19-3.11.16-4,1.75a2.55,2.55,0,0,1-2.61,1.56c-1.27-.09-1.66-1.16-2-2.06a6.11,6.11,0,0,1,.82-6.16c0.28-.38.59-0.72,0.9-1.11-0.46-.82-2.3-0.61-1.58-2.17a3.49,3.49,0,0,1,3.06-1.66c1,0.2,1.23.76,1.11,2.48l1.66-.17a6.3,6.3,0,0,1,.29-2.11,2,2,0,0,1,1.48-.36,1.16,1.16,0,0,1,.89.62,1.42,1.42,0,0,1-.51,1,2.83,2.83,0,0,1-.87.43c0,0.14,0,.28,0,0.41m2.39,6.4a3.69,3.69,0,0,0,1.2-3.49c-0.81,1-1.68,2-1.2,3.49m0-4.8c-1.42.46-1.42,0.46-1.16,2l1.16-2" transform="translate(-51 -253)"/><path class="cls-3" d="M102.3,313.67a2.31,2.31,0,0,1-2.45-2.15,3.26,3.26,0,0,1,2.68-2.61,2.4,2.4,0,0,1,2.12,2.51,2.33,2.33,0,0,1-2.36,2.25" transform="translate(-51 -253)"/><path class="cls-3" d="M117.26,309.27a7.9,7.9,0,0,1-.93-1.72,2.18,2.18,0,0,1,.74-0.81,5.41,5.41,0,0,1,1.13,1.23,4.09,4.09,0,0,1-.93,1.31" transform="translate(-51 -253)"/></svg>