<svg xmlns="http://www.w3.org/2000/svg" viewBox="0 0 110.5 62.97"><defs><style>.cls-1{fill:#aab8bf;fill-rule:evenodd;}</style></defs><title>COMIDA PERRO</title><g id="Layer_2" data-name="Layer 2"><g id="Layer_1-2" data-name="Layer 1"><path class="cls-1" d="M79.59,9.23l5.88,3.23c3-.64,6,.28,8.26,3.46,1.18,1.63,3.18,2.67,4.48,4.24A33.06,33.06,0,0,1,105.76,36a7,7,0,0,0,2.44,4.65c3.2,2.67,2.94,5.34-.07,8.4-4.31,4.37-9.7,6.69-15.53,8.1s-11.48,3-17.3,3.87c-5.62.88-11.34,1.11-17,1.51a165,165,0,0,1-39-1.57c-3.66-.61-7.37-1-11-1.79A21.3,21.3,0,0,1,2.6,56.76C.22,55.42-.39,53.85.22,52,1,49.62,2.9,50.19,4.7,50.27a13.7,13.7,0,0,0,1.46-6.65c-.25-6.21,1-12.2,2.55-18.15a5.34,5.34,0,0,1,1.45-2.36,14.8,14.8,0,0,1,9.58-4.51,2.66,2.66,0,0,0,1.92-.9c2.23-3.94,5.67-4.38,9.38-3.46A55.67,55.67,0,0,1,34.9,8.13c1.89-2.3,4.4-1.15,6.82-.48,1.46-1.19,1.67-4,4.05-3.85a32.56,32.56,0,0,1,5.64,1.31C52.89,3.21,54,.1,57.93.44a9,9,0,0,1,7.22,4.14c1.33-1.26,2.44-2.45,3.7-3.47A4.52,4.52,0,0,1,74.64,1C77.61,3,79.49,5.71,79.59,9.23ZM7.67,52.73a70,70,0,0,0,15.17,2.61,55.34,55.34,0,0,1,7.48.8c4.31.74,8.6,1.58,13,1.29,4.25-.28,8.5-.63,12.75-.77,8.58-.26,16.87-2.32,25.21-4a119.56,119.56,0,0,0,11.64-3.35,30.29,30.29,0,0,0,9.59-4.87,4.33,4.33,0,0,0,1.84-4.5,35.22,35.22,0,0,0-5.07-14.77,56.53,56.53,0,0,0-4.63-5.59c-5.26,6.53-12.52,7.84-19.81,9-5.3.83-10.65,1.42-16,2.22a192.08,192.08,0,0,1-33.1,2.09c-5.23-.11-10.8-.24-14.9-4.55,0,0-.2,0-.68.1a36,36,0,0,0-1.1,4.49C8.47,38.42,7.94,44,7.42,49.53A20.87,20.87,0,0,0,7.67,52.73ZM91.35,19.56c-.32-4.36-1.4-5.35-5-4.81.81,3.38.4,4-3,5a14.58,14.58,0,0,0-2.15.8c-5.17,2.35-10.69,3.1-16.27,3.67-6.31.65-12.65,1.13-18.89,2.21a41.45,41.45,0,0,1-7.19.54c-4.48,0-9,.36-13.43.72-4.67.38-6.64-1.19-7.08-5.91,0-.16-.27-.3-.57-.62-2.26.53-4.44,1.29-6,4,1.44,1.33,2.65,3.25,4.29,3.77a36.44,36.44,0,0,0,9.37,1.41c10.52.41,21-.56,31.41-1.82q10.26-1.21,20.46-2.88C82.35,24.77,87.36,23.57,91.35,19.56ZM2.05,52.72A9.9,9.9,0,0,0,3.87,55,13,13,0,0,0,8,57c3.74.79,7.55,1.25,11.31,1.93,10.73,2,21.55,1.93,32.4,1.78a145.75,145.75,0,0,0,28.73-2.81c6.52-1.4,13-2.83,19.21-5.57a22.12,22.12,0,0,0,7.63-6.09,7.18,7.18,0,0,0,.87-2.14l-.59-.47c-.86.57-1.78,1.08-2.58,1.73A27.48,27.48,0,0,1,93.7,51.08c-3.19.75-6.28,2-9.47,2.71C78.17,55.2,72.11,56.72,66,57.66c-5.71.87-11.52,1.1-17.3,1.49-4.79.32-9.57.63-14.36-.4a40,40,0,0,0-9.69-1.25c-5.38.18-10.39-1.38-15.49-2.52a13.24,13.24,0,0,1-3.77-1.9C4.52,52.59,3.85,51.74,2.05,52.72ZM53.45,13.1,59,12.17c3.07-.51,3.92-1.32,4.35-4.14a4.64,4.64,0,0,0-3.43-5.22c-2.86-.84-4.89,0-6,2.46S53.21,10.14,53.45,13.1Zm1.42,2.34c0,1.84-.08,3.37.09,4.87.2,1.79,1.06,2.46,2.88,2.3s3.4-.54,5.42-.87a28.6,28.6,0,0,0,.55-4.93c-.11-2.23-1-2.83-3.28-2.48C58.7,14.62,56.89,15,54.87,15.44Zm-4-4.36a6,6,0,0,0-2.55-4.66c-1.48-.93-2.82-.57-3.41,1.09a9.29,9.29,0,0,0-.37,2.89c0,1.3.22,2.61.1,3.89-.23,2.38.94,4,3.3,4a2.17,2.17,0,0,0,1.71-1.07C50.19,15.23,50.48,13.17,50.87,11.08ZM23.52,25a37.17,37.17,0,0,0,4.56-.08c3.17-.49,4.72-3,3.87-6.12a3.37,3.37,0,0,0-3.38-2.56c-1.45-.07-3.17,0-3.67,1.52A56.33,56.33,0,0,0,23.52,25Zm10.23-8.3c2,.36,3.34.69,4.72.85a3.24,3.24,0,0,0,2.15-.25A4.41,4.41,0,0,0,42,12.81c-.36-1.77-2-3.62-3.31-3.73a3.47,3.47,0,0,0-3.63,2.3A39.61,39.61,0,0,0,33.75,16.69ZM67.48,6.48c6,2.46,6.08,2.57,6.67,8.29A23.68,23.68,0,0,0,76.84,9.4c.84-2.85-2.18-6.7-5.14-6.66a4.35,4.35,0,0,0-2.56,1.13A11.3,11.3,0,0,0,67.48,6.48Zm-1,10.88c1.39-.87,2.54-1.47,3.54-2.25a4.54,4.54,0,0,0,1.54-1.92,2.47,2.47,0,0,0-1-3.15c-1-.62-2-1.61-3.26-.69s-2.34,1.83-2,3.49C65.5,14.32,66,15.76,66.46,17.36ZM84,16.83c-.92-2.06-.73-4.32-3.16-4.63-1.82-.22-3.07,1-4,2.41-1.47,2.23,1.2,2.86,1.51,4.66ZM35.3,24.64l6.75-.42c.06-2.06-.58-3.23-2.23-3.9-1.47-.59-3-2.05-4.46-.55C34.05,21.07,34.77,22.78,35.3,24.64Zm40.61-5.71c-2.15-1.3-4-2.33-6.07-1.13a2.28,2.28,0,0,0-1,3.23C71.26,20.81,73.79,21.35,75.91,18.93ZM44.83,23.19c.05.25.11.5.16.75l7-.83C49.58,20.6,47.4,20.77,44.83,23.19Zm-.09-3,0-.78L43,19.18l0,1.16Z"/><path class="cls-1" d="M64,36.31c3.87-.29,6.73,1.55,9.23,4.16a5.38,5.38,0,0,1,1.08,6.32c-1.11,2-2.79,2.63-5.61,2.11-.86-.15-1.72-.29-2.59-.39-2.68-.31-5,.25-6.39,2.83a4.12,4.12,0,0,1-4.2,2.51c-2-.15-2.67-1.87-3.24-3.31a9.84,9.84,0,0,1,1.33-9.93c.44-.6,1-1.17,1.45-1.78-.74-1.33-3.69-1-2.54-3.5.71-1.53,3.43-3,4.93-2.67s2,1.22,1.78,4l2.67-.27c.14-1.28,0-2.51.47-3.41.26-.5,1.57-.62,2.39-.59a1.88,1.88,0,0,1,1.44,1c.11.43-.41,1.13-.83,1.56a4.82,4.82,0,0,1-1.4.69Zm3.85,10.3A6,6,0,0,0,69.82,41C68.52,42.62,67.11,44.21,67.89,46.61Zm0-7.72c-2.28.74-2.28.74-1.87,3.23C66.63,41,67.11,40.14,67.84,38.89Z"/><path class="cls-1" d="M47.06,44.56a3.71,3.71,0,0,1-4-3.45c0-1.74,2.4-4.11,4.32-4.21,1.74-.1,3.42,1.89,3.42,4A3.74,3.74,0,0,1,47.06,44.56Z"/><path class="cls-1" d="M71.15,37.48a12.42,12.42,0,0,1-1.5-2.78c-.08-.32.76-.86,1.18-1.31a8.66,8.66,0,0,1,1.82,2C72.79,35.66,71.92,36.44,71.15,37.48Z"/></g></g></svg>