<svg xmlns="http://www.w3.org/2000/svg" viewBox="0 0 56.5 56.5"><defs><style>.cls-1{fill:#fff;}.cls-1,.cls-2{stroke:#aab8bf;stroke-miterlimit:10;}.cls-2{fill:none;}.cls-3{fill:#8b9295;}</style></defs><title>config</title><g id="Layer_2" data-name="Layer 2"><g id="Layer_1-2" data-name="Layer 1"><circle class="cls-1" cx="28.25" cy="28.25" r="25.36"/><circle class="cls-2" cx="28.25" cy="28.25" r="27.75"/><path class="cls-3" d="M40.68,29.35v0l.05-1.1-.05-1.11v0c.26-.12.57-.28.87-.45.7-.38,1.38-.84,1.38-.84s0-.22-.09-.55l-.3-1.2c-.11-.43-.29-.84-.4-1.16L42,22.52l-.06-.14s-.83,0-1.63,0c-.35,0-.7.06-1,.09v0c-.15-.3-.31-.53-.4-.7s-.16-.25-.16-.25l-.16-.26-.48-.64,0,0c.15-.24.33-.54.5-.85.37-.7.7-1.45.7-1.45l-.38-.41c-.23-.25-.57-.54-.9-.84a10.16,10.16,0,0,0-1-.76L36.62,16s-.7.44-1.35.92l-.77.6h0a7.25,7.25,0,0,0-.71-.37L33.5,17l-.28-.13c-.17-.08-.44-.17-.75-.28h0c0-.29,0-.63-.05-1,0-.8-.19-1.6-.19-1.6l-.54-.14c-.33-.09-.77-.15-1.21-.22l-.66-.09-.57,0-.55,0A16.12,16.12,0,0,0,28,14.94l-.32.93h0a6.39,6.39,0,0,0-.79.07l-.3,0-.31.05a6,6,0,0,0-.78.15h0c-.15-.23-.35-.52-.56-.8s-.5-.64-.7-.87-.34-.39-.34-.39l-.52.19a10.47,10.47,0,0,0-1.14.46c-.4.2-.82.38-1.1.56l-.48.29s.1.81.26,1.58c.08.35.17.69.24,1l0,0-.64.48-.23.2-.22.21a6.54,6.54,0,0,0-.58.55l0,0c-.26-.11-.57-.24-.91-.36-.75-.28-1.55-.5-1.55-.5l-.09.12c-.06.08-.14.19-.25.32-.19.28-.48.61-.71,1s-.47.76-.62,1.06l-.25.51s.53.63,1.08,1.19c.25.25.51.49.72.68v0c-.12.32-.21.58-.28.76a1.89,1.89,0,0,0-.06.21l0,.08s-.12.43-.27,1.07v0c-.28,0-.61.11-1,.19-.78.17-1.57.42-1.57.42a4.09,4.09,0,0,0,0,.55c0,.34,0,.78-.06,1.23s0,.89.06,1.22a4.14,4.14,0,0,0,0,.56s.79.24,1.57.42l1,.19v0c.15.65.27,1.07.27,1.07l0,.08a1.94,1.94,0,0,0,.06.22c.07.18.16.44.28.75v0c-.21.19-.47.43-.72.68-.55.57-1.08,1.2-1.08,1.2l.25.5c.15.3.39.68.62,1.06s.52.73.71,1l.25.32.09.12s.8-.22,1.55-.5c.34-.12.65-.25.91-.36l0,0c.22.25.44.42.58.56l.22.2.23.2.64.48,0,0c-.07.27-.16.61-.24,1-.16.78-.26,1.59-.26,1.59l.48.28c.28.18.7.36,1.1.56a8.78,8.78,0,0,0,1.14.46l.52.19.34-.38c.2-.24.45-.56.7-.88s.41-.56.56-.8h0a6.37,6.37,0,0,0,.78.16l.31,0,.3.05a6.74,6.74,0,0,0,.79.06h0c.09.27.2.6.32.93A16.12,16.12,0,0,0,28.68,43l.55,0,.57,0,.66-.09a10.22,10.22,0,0,0,1.21-.22l.54-.14s.14-.79.19-1.6c0-.35,0-.7.05-1h0l.75-.28.28-.14.27-.13a5.55,5.55,0,0,0,.71-.37h0l.77.6c.65.48,1.35.92,1.35.92l.45-.33a10.42,10.42,0,0,0,1-.77c.33-.3.67-.59.9-.84l.38-.41s-.33-.75-.7-1.44c-.17-.32-.35-.62-.5-.86l0,0,.48-.64.16-.26a2.45,2.45,0,0,1,.16-.26c.09-.17.25-.39.4-.69v0c.27,0,.62.07,1,.09.8.06,1.63,0,1.63,0l.06-.14c0-.1.08-.23.14-.39s.29-.73.4-1.16l.3-1.19c.06-.33.09-.56.09-.56s-.68-.45-1.38-.83C41.25,29.64,40.94,29.48,40.68,29.35ZM28.25,35.57a7.34,7.34,0,1,1,7.34-7.34A7.35,7.35,0,0,1,28.25,35.57Z"/></g></g></svg>