<svg xmlns="http://www.w3.org/2000/svg" viewBox="0 0 89.99 90"><defs><style>.cls-1{fill:#aab8bf;}</style></defs><title>cuidado</title><g id="Layer_2" data-name="Layer 2"><g id="Layer_1-2" data-name="Layer 1"><g id="Outline"><path class="cls-1" d="M85.49,27H64.54a1.5,1.5,0,0,1-1.22-.63l-3-4.22a13.5,13.5,0,0,0-11-5.65h-18a10.44,10.44,0,0,0-8.2,3.94l-1.65,2.07A26.73,26.73,0,0,1,21,16.6c.18-4.09,1.47-7.37,3.84-9.73,4-4.05,10.84-5,19.15-2.56C52.62,6.8,61.7,12.52,69.6,20.41c1.42,1.42,2.8,2.91,4.09,4.42L76,22.89c-1.34-1.58-2.77-3.13-4.25-4.61C63.47,10,53.93,4.06,44.84,1.43,35.44-1.29,27.59-.11,22.73,4.75a17.12,17.12,0,0,0-4.68,11.38L13.93,29.05l2.86.91,1.91-6c1.68,8,6.31,16.9,13.16,25,1.38,1.63,2.87,3.24,4.41,4.79C45.53,63,56.36,69.29,66,71.31l-25.11,8L10.71,49.09l5.22-16.42-2.86-.91L7.68,48.7.44,55.94a1.49,1.49,0,0,0,0,2.12h0l31.5,31.5a1.49,1.49,0,0,0,2.12,0h0l7.24-7.24L73.87,72a17.12,17.12,0,0,0,11.38-4.68c3-3,4.63-7.25,4.74-12.31l-3-.06c-.09,4.33-1.39,7.78-3.86,10.24S77.49,68.8,73.4,69c-4.94.22-10.76-1.22-16.83-4.16C54.76,63.93,53,63,51.28,61.89L52.9,60.4a1.53,1.53,0,0,1,1-.4h0l18,0h0a17.71,17.71,0,0,0,13.49-6.2l.11-.13A18.24,18.24,0,0,0,90,41.81V31.5A4.5,4.5,0,0,0,85.49,27ZM3.62,57,9,51.63,23.38,66,18,71.38Zm16.5,16.5,5.38-5.38,5.38,5.38L25.5,78.88ZM33,86.38,27.62,81,33,75.62,38.37,81ZM78,31.51a1.5,1.5,0,0,1,1.5-1.5h6a1.5,1.5,0,0,1,1.5,1.5V36h-7.5a1.51,1.51,0,0,1-1.5-1.5ZM83.9,51H60v3H80.94a14.7,14.7,0,0,1-9,3H53.92a4.43,4.43,0,0,0-3.05,1.19l-2.18,2a74.13,74.13,0,0,1-10.3-8.59c-1.28-1.29-2.52-2.62-3.69-4L41.92,26,39.07,25,32.45,44.91a57.36,57.36,0,0,1-10.1-18.7l3.12-3.89a7.44,7.44,0,0,1,5.85-2.81h18a10.51,10.51,0,0,1,8.54,4.39l3,4.22A4.52,4.52,0,0,0,64.54,30H75.25a4.51,4.51,0,0,0-.26,1.5v3a4.52,4.52,0,0,0,4.5,4.5H87c0,1,0,1.9,0,2.81A15.23,15.23,0,0,1,83.9,51ZM51,27a4.5,4.5,0,1,0,4.5,4.5A4.49,4.49,0,0,0,51,27Zm0,6a1.5,1.5,0,1,1,1.5-1.5A1.5,1.5,0,0,1,51,33ZM20.05,39.1l-2.85-.94.88-2.63,2.84.95ZM16.26,41l2.85,1L16.42,50,13.58,49ZM7.5,55.5h3v3h-3ZM12,60h3v3H12Zm7.5,4.5v3h-3v-3Zm12,15h3v3h-3Z"/></g></g></g></svg>