<svg xmlns="http://www.w3.org/2000/svg" viewBox="0 0 109.5 109.5"><defs><style>.cls-1{fill:#fff;}.cls-1,.cls-2{stroke:#aab8bf;stroke-miterlimit:10;}.cls-2{fill:none;}</style></defs><title>cvategbrid</title><g id="Layer_2" data-name="Layer 2"><g id="Layer_1-2" data-name="Layer 1"><circle class="cls-1" cx="54.75" cy="54.75" r="49.58"/><circle class="cls-2" cx="54.75" cy="54.75" r="54.25"/><path d="M64.22,63.51c-3,.61-5.72.28-6.82,1.56-1.92,2.25-2.85,5.48-4.36,8.66l10.63.6-.14,1C59.86,77,30.81,76.44,29.16,74H43.63c7.8,0,8.54-.63,10.89-9.27-5.39-1-11-7.61-10.41-15.65.49-6.35-2.35-7-6.75-4.64a11.61,11.61,0,0,1,.92-13.72,33.08,33.08,0,0,1,6-5c2.4-1.68,5.18-2.82,6-6.25.06-.28.91-.32,1.64-.55.32,3.43-1.46,5.24-3.6,6.78-2.39,1.72-5,3.16-7.21,5.09-3.29,2.84-3.92,5.57-2.9,10.27.61,0,1.25,0,1.88,0,4.58-.24,5.73,1.25,6.15,6.17a34.35,34.35,0,0,0,2.45,10.46A6.77,6.77,0,0,0,56.36,62a22.46,22.46,0,0,1,5.31,0C62.29,62.08,62.87,62.69,64.22,63.51Z"/><path d="M67.08,55.45c-3.92-11-13.14-21.77-21.37-25.39l6.74-4.36.57.86L50.87,30c8.59,7.11,15.42,15.82,18.47,26.68-.51,1.5-1.42,3-1.46,4.51-.18,5.84-.07,11.68-.07,17.53v3.43l-1.28.25a12.64,12.64,0,0,1-.73-2.89c-.06-7.26,0-14.53,0-21.92-3.8-1-7.5-1.68-11.05-2.89-5.29-1.79-7.42-5.88-6.19-11.24.12-.53.47-1,1.46-1.51a11.3,11.3,0,0,1,.42,2.47c-.27,4.52.87,6.83,4.84,8.12C58.91,53.71,62.73,54.4,67.08,55.45Z"/></g></g></svg>