<svg id="Layer_1" data-name="Layer 1" xmlns="http://www.w3.org/2000/svg" viewBox="0 0 29.36 29.55"><defs><style>.cls-1{fill:#8a9194;}</style></defs><title>engrenagem</title><path class="cls-1" d="M3562.06,7546.85v0l0.06-1.1-0.06-1.1v0c0.26-.12.57-0.28,0.87-0.45,0.7-.38,1.38-0.84,1.38-0.84l-0.09-.55-0.3-1.19c-0.11-.43-0.29-0.85-0.4-1.16l-0.14-.38a1.12,1.12,0,0,0-.06-0.14s-0.83,0-1.63,0c-0.35,0-.69.06-1,0.09v0c-0.14-.3-0.31-0.52-0.4-0.69l-0.16-.26-0.16-.26-0.48-.64,0,0c0.15-.24.33-0.54,0.5-0.86,0.37-.7.7-1.45,0.7-1.45l-0.38-.41c-0.23-.25-0.57-0.54-0.9-0.84a11.07,11.07,0,0,0-1-.76l-0.45-.33s-0.7.44-1.35,0.92c-0.28.21-.55,0.42-0.77,0.6h0a6.49,6.49,0,0,0-.71-0.37l-0.27-.13-0.27-.13-0.75-.28h0c0-.28,0-0.63,0-1-0.06-.8-0.19-1.6-0.19-1.6l-0.54-.14a10.74,10.74,0,0,0-1.21-.22l-0.65-.09-0.57,0-0.56,0s-0.35.72-.63,1.49c-0.13.33-.24,0.66-0.32,0.93h0a6.84,6.84,0,0,0-.8.06l-0.3,0-0.3,0a5.47,5.47,0,0,0-.78.16h0c-0.16-.23-0.36-0.51-0.57-0.8s-0.5-.64-0.7-0.88-0.34-.38-0.34-0.38l-0.53.19a10.25,10.25,0,0,0-1.14.46c-0.4.2-.81,0.37-1.1,0.55l-0.48.29s0.1,0.81.26,1.59c0.08,0.35.16,0.69,0.24,1l0,0-0.64.48-0.23.2-0.22.2a7.29,7.29,0,0,0-.58.55l0,0c-0.26-.11-0.58-0.24-0.91-0.36-0.75-.28-1.55-0.5-1.55-0.5l-0.1.12-0.24.32a11.54,11.54,0,0,0-.71,1c-0.23.38-.47,0.76-0.63,1.06l-0.24.5s0.52,0.63,1.08,1.19c0.25,0.25.5,0.49,0.72,0.68v0l-0.28.75a1.54,1.54,0,0,0-.07.21l0,0.08s-0.12.43-.27,1.07v0l-1,.19c-0.78.17-1.57,0.42-1.57,0.42a3.54,3.54,0,0,0-.06.55l-0.06,1.23L3535,7547a3.54,3.54,0,0,0,.06.55s0.79,0.25,1.57.42l1,0.19v0c0.15,0.65.27,1.07,0.27,1.07l0,0.08a1.55,1.55,0,0,0,.07.21l0.28,0.75v0c-0.21.19-.47,0.43-0.72,0.68-0.56.56-1.08,1.19-1.08,1.19l0.24,0.5c0.15,0.3.4,0.67,0.63,1.06a11.6,11.6,0,0,0,.71,1l0.24,0.32,0.1,0.12s0.8-.22,1.55-0.5c0.33-.12.65-0.25,0.91-0.36l0,0a7.36,7.36,0,0,0,.58.55l0.22,0.2,0.23,0.2,0.64,0.48,0,0c-0.07.27-.16,0.61-0.24,1-0.17.78-.26,1.59-0.26,1.59l0.48,0.29c0.28,0.18.7,0.35,1.1,0.55a10.19,10.19,0,0,0,1.14.46l0.53,0.19,0.34-.38c0.2-.24.46-0.55,0.7-0.88s0.41-.56.57-0.8h0a5.47,5.47,0,0,0,.78.16l0.3,0,0.3,0a6.84,6.84,0,0,0,.8.06h0c0.09,0.27.2,0.6,0.32,0.93,0.28,0.77.63,1.49,0.63,1.49l0.56,0,0.57,0,0.65-.09a10.74,10.74,0,0,0,1.21-.22l0.54-.14s0.14-.8.19-1.6c0-.36,0-0.71,0-1h0l0.75-.28,0.27-.13,0.27-.13a6.49,6.49,0,0,0,.71-0.37h0c0.22,0.18.49,0.39,0.77,0.6,0.64,0.48,1.35.92,1.35,0.92l0.45-.33a11.07,11.07,0,0,0,1-.76c0.33-.3.67-0.59,0.9-0.84l0.38-.41s-0.32-.75-0.7-1.45c-0.17-.31-0.35-0.61-0.5-0.86l0,0,0.48-.64,0.16-.26,0.16-.26c0.09-.17.26-0.39,0.4-0.69v0c0.28,0,.62.07,1,0.09,0.8,0.06,1.63,0,1.63,0a1.12,1.12,0,0,0,.06-0.14l0.14-.38c0.11-.32.29-0.73,0.4-1.16l0.3-1.19,0.09-.55s-0.68-.46-1.38-0.84C3562.63,7547.14,3562.32,7547,3562.06,7546.85Zm-12.43,6.21a7.34,7.34,0,1,1,7.34-7.34A7.35,7.35,0,0,1,3549.63,7553.07Z" transform="translate(-3534.95 -7530.95)"/></svg>