<svg xmlns="http://www.w3.org/2000/svg" viewBox="0 0 56.5 56.5"><defs><style>.cls-1{fill:#fff;}.cls-1,.cls-2{stroke:#aab8bf;stroke-miterlimit:10;}.cls-2{fill:none;}.cls-3{fill:#8b9295;}</style></defs><title>favoritas</title><g id="Layer_2" data-name="Layer 2"><g id="Layer_1-2" data-name="Layer 1"><circle class="cls-1" cx="28.25" cy="28.25" r="25.36"/><circle class="cls-2" cx="28.25" cy="28.25" r="27.75"/><path class="cls-3" d="M26.18,16.41c-1,.14-1.41,1.32-1.29,2.32s.73,1.9,1.63,1.9,1.59-1.08,1.45-2.32-.92-2-1.79-1.9Zm.35,3c-.29,0-.5-.54-.53-.85s0-.93.32-1h0c.17,0,.46.32.52.85s-.15.95-.33,1Zm12.79,3.05c0-6.4-4.84-11.61-10.8-11.61S17.73,16.08,17.73,22.48a12.31,12.31,0,0,0,.45,3.32.55.55,0,0,0,.69.41.62.62,0,0,0,.38-.75,11.1,11.1,0,0,1-.41-3c0-5.74,4.34-10.41,9.68-10.41s9.68,4.67,9.68,10.41-4.34,10.41-9.68,10.41A9.62,9.62,0,0,1,20,27.37a.54.54,0,0,0-.76-.24.61.61,0,0,0-.22.81,10.7,10.7,0,0,0,9.52,6.15c6,0,10.8-5.21,10.8-11.61ZM38.23,34.72a.54.54,0,0,0-.77-.22.63.63,0,0,0-.2.82l4.45,8.29a.19.19,0,0,1-.2.29l-2.83-.57a1.29,1.29,0,0,0-1.47.91l-1,2.92a.18.18,0,0,1-.34,0L30.46,37a3.73,3.73,0,0,0,2.55.3,4.57,4.57,0,0,0,2.09-2.12,5.41,5.41,0,0,1,1.08-1.39,5.19,5.19,0,0,1,1.59-.7,4.35,4.35,0,0,0,2.5-1.46,5,5,0,0,0,.52-3,6.37,6.37,0,0,1,.13-1.86,5.6,5.6,0,0,1,.88-1.51A5,5,0,0,0,43,22.48a5,5,0,0,0-1.24-2.82,5.6,5.6,0,0,1-.88-1.51,6.44,6.44,0,0,1-.13-1.87,5,5,0,0,0-.52-3,4.31,4.31,0,0,0-2.5-1.47,5.19,5.19,0,0,1-1.59-.69,5.66,5.66,0,0,1-1.08-1.4A4.62,4.62,0,0,0,33,7.62,4.12,4.12,0,0,0,30.24,8a5.29,5.29,0,0,1-1.72.45A5.36,5.36,0,0,1,26.8,8,4.1,4.1,0,0,0,24,7.62,4.6,4.6,0,0,0,22,9.74a5.92,5.92,0,0,1-1.09,1.4,5.19,5.19,0,0,1-1.59.69,4.31,4.31,0,0,0-2.49,1.47,5,5,0,0,0-.53,3,6.46,6.46,0,0,1-.12,1.87,5.93,5.93,0,0,1-.89,1.51A5,5,0,0,0,14,22.48a5,5,0,0,0,1.24,2.82,5.93,5.93,0,0,1,.89,1.51,6.39,6.39,0,0,1,.12,1.86,5,5,0,0,0,.53,3,4.94,4.94,0,0,0,2.83,1.57L14.37,43a1.48,1.48,0,0,0,.06,1.52,1.24,1.24,0,0,0,1.31.56l2.83-.57a.19.19,0,0,1,.21.13l.95,2.92a1.3,1.3,0,0,0,1.11.93,1.28,1.28,0,0,0,1.25-.69l6.05-11.27a1.94,1.94,0,0,1,.76,0L35,47.8a1.26,1.26,0,0,0,1.25.69,1.3,1.3,0,0,0,1.1-.93l1-2.92a.19.19,0,0,1,.21-.13l2.83.57a1.24,1.24,0,0,0,1.3-.56A1.51,1.51,0,0,0,42.68,43ZM21.12,47.2c-.09.16-.27.14-.34,0l-1-2.92a1.28,1.28,0,0,0-1.47-.91l-2.83.57a.18.18,0,0,1-.19-.08.19.19,0,0,1,0-.21l5.32-9.93A4.41,4.41,0,0,1,22,35.21,4.55,4.55,0,0,0,24,37.33a3.74,3.74,0,0,0,2.55-.3Zm7.4-11.91a6.23,6.23,0,0,0-2.09.52,3.33,3.33,0,0,1-2.05.38c-.59-.21-1-.91-1.51-1.65a6.5,6.5,0,0,0-1.35-1.7A6.36,6.36,0,0,0,19.59,32a3.5,3.5,0,0,1-1.91-1,4.16,4.16,0,0,1-.31-2.25,7.71,7.71,0,0,0-.18-2.26,6.66,6.66,0,0,0-1.07-1.88,4.07,4.07,0,0,1-1-2.08,4.06,4.06,0,0,1,1-2.09,6.48,6.48,0,0,0,1.07-1.87,7.75,7.75,0,0,0,.18-2.27A4.1,4.1,0,0,1,17.68,14a3.57,3.57,0,0,1,1.91-1,5.91,5.91,0,0,0,1.93-.87,6.45,6.45,0,0,0,1.35-1.69c.47-.75.92-1.45,1.51-1.65a3.31,3.31,0,0,1,2.05.37,6,6,0,0,0,2.09.53,6,6,0,0,0,2.09-.53,3.32,3.32,0,0,1,2-.37c.59.2,1,.9,1.51,1.65a6.88,6.88,0,0,0,1.35,1.69,5.87,5.87,0,0,0,1.94.87,3.57,3.57,0,0,1,1.91,1,4.1,4.1,0,0,1,.31,2.24,7.13,7.13,0,0,0,.18,2.27,6.58,6.58,0,0,0,1.06,1.87,4,4,0,0,1,1,2.09,4,4,0,0,1-1,2.08,6.63,6.63,0,0,0-1.06,1.88,7.09,7.09,0,0,0-.18,2.26A4.16,4.16,0,0,1,39.37,31a3.5,3.5,0,0,1-1.91,1,6.3,6.3,0,0,0-1.94.87,6.94,6.94,0,0,0-1.35,1.7c-.47.74-.92,1.44-1.5,1.65a3.35,3.35,0,0,1-2.06-.38,6.18,6.18,0,0,0-2.09-.52Zm2.34-18.88c-.86-.11-1.65.72-1.78,1.9s.43,2.2,1.29,2.31a1.37,1.37,0,0,0,1.23-.54,2.53,2.53,0,0,0,.56-1.35,2.65,2.65,0,0,0-.23-1.47A1.45,1.45,0,0,0,30.86,16.41Zm.19,2.17c0,.31-.23.89-.54.85s-.39-.42-.33-1,.37-.88.54-.85S31.08,18.26,31.05,18.58ZM21.93,20.4a2.05,2.05,0,0,0,.29,2.68h0a2.28,2.28,0,0,0,1.22.7,1.4,1.4,0,0,0,1.28-.38,2.07,2.07,0,0,0-.3-2.68,1.7,1.7,0,0,0-2.49-.32Zm2,2.15a.39.39,0,0,1-.3.05,1.27,1.27,0,0,1-.62-.37h0a1.31,1.31,0,0,1-.34-.66c0-.15,0-.27,0-.32a.26.26,0,0,1,.19-.07,1.08,1.08,0,0,1,.72.39,1.35,1.35,0,0,1,.35.65.45.45,0,0,1-.05.33Zm2.32.11-1.46,2A2.54,2.54,0,0,0,25,27.84a2.14,2.14,0,0,0,3.18,0,.52.52,0,0,1,.38-.17.5.5,0,0,1,.38.17,2.15,2.15,0,0,0,3.19,0,2.55,2.55,0,0,0,.16-3.22l-1.45-2a2.86,2.86,0,0,0-2.28-1.17,2.82,2.82,0,0,0-2.27,1.17Zm3.68.75,1.45,2A1.28,1.28,0,0,1,31.3,27a1.08,1.08,0,0,1-1.61,0,1.6,1.6,0,0,0-1.17-.52,1.62,1.62,0,0,0-1.17.52,1.07,1.07,0,0,1-1.6,0,1.28,1.28,0,0,1-.09-1.62l1.46-2a1.73,1.73,0,0,1,1.4-.72A1.76,1.76,0,0,1,29.93,23.41Zm2.4.09a1.32,1.32,0,0,0,1,.42,1.53,1.53,0,0,0,.3,0,2.24,2.24,0,0,0,1.21-.71h0a2.53,2.53,0,0,0,.66-1.3,1.64,1.64,0,0,0-.36-1.37,1.69,1.69,0,0,0-2.49.31A2.52,2.52,0,0,0,32,22.13,1.58,1.58,0,0,0,32.33,23.5Zm.74-1.17a1.4,1.4,0,0,1,.34-.66,1.1,1.1,0,0,1,.73-.38.27.27,0,0,1,.19.06.45.45,0,0,1,.05.33,1.42,1.42,0,0,1-.35.66h0a1.25,1.25,0,0,1-.61.37.33.33,0,0,1-.3-.06c-.06,0-.07-.17,0-.32Z"/></g></g></svg>