<svg xmlns="http://www.w3.org/2000/svg" viewBox="0 0 95 95"><defs><style>.cls-1{fill:#aab8bf;}</style></defs><title>hospedagem</title><g id="Layer_2" data-name="Layer 2"><g id="Layer_1-2" data-name="Layer 1"><g id="Outline"><path class="cls-1" d="M94.17,11.27,73.58.19A1.49,1.49,0,0,0,72.83,0H68.08a1.52,1.52,0,0,0-.75.19L47.5,10.87,27.67.19A1.52,1.52,0,0,0,26.92,0H22.17a1.49,1.49,0,0,0-.75.19L.83,11.27A1.59,1.59,0,0,0,0,12.67v7.91a1.59,1.59,0,0,0,1.58,1.59A1.61,1.61,0,0,0,2.33,22l20.24-10.9h3.95l19.4,10.45v70.3H3.17V25.33H0V93.42A1.58,1.58,0,0,0,1.58,95H93.42A1.58,1.58,0,0,0,95,93.42v-9.5H91.83v7.91H49.08V21.53l19.4-10.45h4l19.4,10.45V80.75H95V12.67A1.59,1.59,0,0,0,94.17,11.27ZM45.92,17.93,27.67,8.11a1.52,1.52,0,0,0-.75-.19H22.17a1.49,1.49,0,0,0-.75.19L3.17,17.93V13.61L22.57,3.17h3.95l19.4,10.44Zm45.91,0L73.58,8.11a1.49,1.49,0,0,0-.75-.19H68.08a1.52,1.52,0,0,0-.75.19L49.08,17.93V13.61L68.48,3.17h4l19.4,10.44ZM7.92,33.25V47.5a4.75,4.75,0,0,0,4.75,4.75H36.42a4.76,4.76,0,0,0,4.75-4.75V26.92a4.75,4.75,0,0,0-4.75-4.75H12.67a4.74,4.74,0,0,0-4.75,4.75v3.16h3.16V26.92a1.59,1.59,0,0,1,1.59-1.59H36.42A1.59,1.59,0,0,1,38,26.92V47.5a1.58,1.58,0,0,1-1.58,1.58H34a6.27,6.27,0,0,0,.85-3.16V38H31.67v7.92a3.15,3.15,0,0,1-1.59,2.73v-3a10.86,10.86,0,0,0-1.85-6.1,7.85,7.85,0,0,1-1.31-4.35V31.67a1.59,1.59,0,0,0-1.59-1.59,1.57,1.57,0,0,0-.7.17l-2.84,1.42H19.37l-2.83-1.42a1.59,1.59,0,0,0-2.29,1.42V49.08H12.67a1.59,1.59,0,0,1-1.59-1.58V33.25Zm9.5,1,.87.44a1.57,1.57,0,0,0,.71.16h3.17a1.56,1.56,0,0,0,.7-.16l.88-.44v.92a10.94,10.94,0,0,0,1.85,6.1,7.86,7.86,0,0,1,1.32,4.35v3.48H23.75V44.33H20.58v4.75H17.42ZM7.92,68.08V82.33a4.74,4.74,0,0,0,4.75,4.75H36.42a4.75,4.75,0,0,0,4.75-4.75V61.75A4.76,4.76,0,0,0,36.42,57H12.67a4.75,4.75,0,0,0-4.75,4.75v3.17h3.16V61.75a1.59,1.59,0,0,1,1.59-1.58H36.42A1.58,1.58,0,0,1,38,61.75v7.92H29.16l-2.53-2.52L26.58,67a6.66,6.66,0,0,0-6-3.71A1.59,1.59,0,0,0,19,64.92v2l-3.67,1.22a1.61,1.61,0,0,0-1.08,1.51v4.75A1.58,1.58,0,0,0,15.83,76h4.75v7.92H12.67a1.59,1.59,0,0,1-1.59-1.59V68.08ZM38,82.33a1.59,1.59,0,0,1-1.58,1.59H30.08V80.75H38Zm-20.58-9.5v-2l3.66-1.22a1.6,1.6,0,0,0,1.09-1.51V66.87a3.52,3.52,0,0,1,1.58,1.59l.17.33a1.46,1.46,0,0,0,.29.41l3.17,3.17a1.57,1.57,0,0,0,1.12.46H38v4.75H28.5a1.59,1.59,0,0,0-1.58,1.59v4.75H23.75v-9.5a1.59,1.59,0,0,0-1.58-1.59ZM87.08,26.92a4.74,4.74,0,0,0-4.75-4.75H58.58a4.75,4.75,0,0,0-4.75,4.75v3.16H57V26.92a1.59,1.59,0,0,1,1.58-1.59H82.33a1.59,1.59,0,0,1,1.59,1.59V47.5a1.59,1.59,0,0,1-1.59,1.58H80.75v-.64a8.51,8.51,0,0,0-8.5-8.52,8.39,8.39,0,0,0-1,.06V38A1.59,1.59,0,0,0,69,36.58L66.13,38h-.84l-2.83-1.42a1.59,1.59,0,0,0-2.13.71,1.57,1.57,0,0,0-.16.71v4.75a4.74,4.74,0,0,0,1.58,3.54v2.79H58.58A1.58,1.58,0,0,1,57,47.5V33.25H53.83V47.5a4.76,4.76,0,0,0,4.75,4.75H82.33a4.75,4.75,0,0,0,4.75-4.75ZM63.33,42.75V40.56l.88.44a1.58,1.58,0,0,0,.71.17H66.5a1.58,1.58,0,0,0,.71-.17l.87-.44v2.19a1.58,1.58,0,0,1-1.58,1.58H64.92A1.59,1.59,0,0,1,63.33,42.75Zm14.25,6.33H64.92V47.5H66.5a4.75,4.75,0,0,0,4.73-4.32,5.36,5.36,0,0,1,6.26,4.26,5.63,5.63,0,0,1,.09,1Zm-23.75,19V82.33a4.75,4.75,0,0,0,4.75,4.75H82.33a4.74,4.74,0,0,0,4.75-4.75V61.75A4.75,4.75,0,0,0,82.33,57H58.58a4.76,4.76,0,0,0-4.75,4.75v3.17H57V61.75a1.58,1.58,0,0,1,1.58-1.58H82.33a1.59,1.59,0,0,1,1.59,1.58v8.16a8.43,8.43,0,0,0-5.23-1.83h-9a1.58,1.58,0,0,0-.71.17l-5.33,2.67a5.35,5.35,0,0,0-3.46-1.25,1.59,1.59,0,0,0-1.59,1.58v2.32L57,74.62V68.08ZM61,75.73a1.55,1.55,0,0,0,.71-1.31v-.93h0l.46.46a1.6,1.6,0,0,0,1.83.3l6-3h8.65a5.23,5.23,0,0,1,5.23,5.23v5.85a1.59,1.59,0,0,1-1.59,1.59h-9.5V83a1.59,1.59,0,0,1,1.09-1.5l2.58-.86a1.58,1.58,0,0,0,1.08-1.5,3.54,3.54,0,0,1,2-3.17l.34-.17L78.46,73l-.34.17A6.64,6.64,0,0,0,74.52,78l-1.6.54-.09,0V76H69.67v7.92H63.33V83a1.59,1.59,0,0,1,1.09-1.5L67,80.67l-1-3-2.59.87A4.72,4.72,0,0,0,60.17,83v.89H58.58A1.59,1.59,0,0,1,57,82.33v-3.9Z"/></g></g></g></svg>