<svg id="Layer_1" data-name="Layer 1" xmlns="http://www.w3.org/2000/svg" viewBox="0 0 94 94"><defs><style>.cls-1{fill:#fff;}.cls-2{fill:none;stroke:#a5b9c1;stroke-miterlimit:10;}.cls-3{fill:#899396;}</style></defs><title>icon1</title><path class="cls-1" d="M241.5,194A42.5,42.5,0,1,1,199,151.5,42.5,42.5,0,0,1,241.5,194" transform="translate(-152 -147)"/><circle class="cls-2" cx="47" cy="47" r="42.5"/><circle class="cls-2" cx="47" cy="47" r="46.5"/><path class="cls-3" d="M209.39,214.8c-1.87-.67-4-1-5.56-2.09-2.44-1.69-4.45-1.73-6.68.14a6.73,6.73,0,0,1-2.12,1c-4.19,1.47-8,.47-10.31-2.66a8.36,8.36,0,0,1,.52-10.34,78.42,78.42,0,0,1,9.83-9.61c3.59-2.92,9.38-2,12.65,1.33,2,2,4,3.93,6,5.82,3.64,3.34,5,7.65,3.53,11.15-1.37,3.18-4.18,5-7.87,5.28m-8.78-23.35c-1.54.5-3.22,0.59-4.21,1.46A95.86,95.86,0,0,0,187,202c-2,2.31-2.61,5.25-.46,8a6.1,6.1,0,0,0,8.47,1.44c3.93-2.67,7.11-2.57,11,0a6.14,6.14,0,0,0,8.47-1.47c1.83-2.38,1.77-5.54-.72-8.32a95.83,95.83,0,0,0-8.89-8.62c-1.09-.94-2.86-1.1-4.32-1.62" transform="translate(-152 -147)"/><path class="cls-3" d="M199,177.6c-1.12,2.94-1.78,6-3.34,8.41-2.14,3.36-5.92,3.22-8.52.15-3.45-4.07-3.43-13,0-17.06,2.53-3,6.43-3.1,8.53.24,1.5,2.37,2.15,5.27,3.3,8.26m-2.25.15c-0.88-2.44-1.4-4.9-2.6-7-1.43-2.46-3.71-2.33-5.5-.11-2.68,3.31-2.65,10.73,0,14,1.76,2.14,4.11,2.19,5.52-.26,1.14-2,1.67-4.32,2.54-6.68" transform="translate(-152 -147)"/><path class="cls-3" d="M217.25,177.68c-1.15,3-1.76,5.82-3.18,8.12-2.17,3.5-6.11,3.47-8.75.33-3.42-4.07-3.37-13,.09-17.06,2.48-2.89,6.26-3.1,8.31.06,1.64,2.52,2.37,5.63,3.53,8.55m-12.88,0c0.82,2.34,1.33,4.8,2.51,6.87,1.37,2.4,3.79,2.27,5.52.09,2.63-3.31,2.7-10.28.13-13.73-1.89-2.53-4.36-2.56-5.91.24-1.05,1.9-1.46,4.16-2.25,6.53" transform="translate(-152 -147)"/><path class="cls-3" d="M228.72,190.64c-1.46,2.93-2.48,6.23-4.5,8.7-2.9,3.55-7.65,2.28-8.19-2.23a22.11,22.11,0,0,1,1.43-9.68c0.95-2.65,3.32-4.85,6.61-3.95s3.65,3.89,4.65,7.16m-11.78,2.94c1,2.07,1.45,3.8,2.51,5.07,0.34,0.41,2.37,0,3.21-.66,2.6-1.93,3.91-7.55,2.69-10.49-1-2.3-2.84-3-4.37-1.05-1.68,2.07-2.69,4.69-4,7.14" transform="translate(-152 -147)"/><path class="cls-3" d="M186.24,193.74c-0.83,3.37-1.12,6.49-4.66,7.33s-5.66-1.61-6.7-4.37a21.27,21.27,0,0,1-1.34-8.75,5.94,5.94,0,0,1,3.45-4.3,6,6,0,0,1,5.17,1.91c1.81,2.38,2.76,5.42,4.07,8.18m-2.09.77c-1.13-2.69-1.82-5.07-3.1-7.08-0.63-1-2.58-2-3.5-1.72a4.2,4.2,0,0,0-2.13,3.35,17.61,17.61,0,0,0,1.59,7c0.65,1.31,3,3,4,2.65,1.33-.45,2.06-2.64,3.16-4.25" transform="translate(-152 -147)"/></svg>