<svg xmlns="http://www.w3.org/2000/svg" viewBox="0 0 53.77 55.55"><defs><style>.cls-1{fill:#aab8bf;fill-rule:evenodd;}</style></defs><title>JUGUETES</title><g id="Layer_2" data-name="Layer 2"><g id="Layer_1-2" data-name="Layer 1"><path class="cls-1" d="M46.46,44.56a37.79,37.79,0,0,1-27,11c-7.86-.15-12.82-4.65-16.45-11C-.77,38-.59,30.87,1.35,23.92c2.08-7.49,6-14,12.89-18.19A39.18,39.18,0,0,1,33.59,0a11.67,11.67,0,0,1,6.32,2.19c9.53,6.47,14.73,15.32,13.74,27.13A24.86,24.86,0,0,1,46.46,44.56ZM10,13C23.1,22.8,26.89,35.78,25.58,50.74c6.63.6,14.71-2.86,16.26-6.77C32.28,32.34,28.17,19.17,30.07,3.74,22.32,4.35,15.47,6.75,10,13ZM7.86,16.24c-4.75,8-6.2,15.56-3.52,23.68C6.2,45.54,9.73,49.85,15.4,51.73s6.53,1,7-4.53A35.27,35.27,0,0,0,13.11,20C11.86,18.6,10,17.74,7.86,16.24ZM33.77,3.05c-.45,4-1.29,7-1.06,10a48.14,48.14,0,0,0,8.14,24c1,1.45,2.55,2.52,4.11,4,5.39-6.53,6.84-13.41,4.58-20.73C47.15,12.61,42.47,6.52,33.77,3.05Z"/></g></g></svg>