<svg id="Layer_1" data-name="Layer 1" xmlns="http://www.w3.org/2000/svg" viewBox="0 0 109.5 109.5"><defs><style>.cls-1{fill:#fff;}.cls-2{fill:none;stroke:#a5b9c1;stroke-miterlimit:10;}.cls-3{fill-rule:evenodd;}</style></defs><title>4</title><path class="cls-1" d="M669.33,307.75a49.58,49.58,0,1,1-49.58-49.58,49.58,49.58,0,0,1,49.58,49.58" transform="translate(-565 -253)"/><circle class="cls-2" cx="54.75" cy="54.75" r="49.58"/><circle class="cls-2" cx="54.75" cy="54.75" r="54.25"/><path class="cls-3" d="M634.58,307.25a32.68,32.68,0,0,1,3.1,2.45c4,4,3.21,10.06-1.56,13.14s-11.68,1.61-14-2.7c-0.86-1.62-1.08-3.57-1.68-5.69-0.49.2-1.27,0.57-2.07,0.86-4.32,1.55-8.64,3.11-13,4.63-3,1-5.4-.39-7.61-2.06a17.27,17.27,0,0,1-2.7-3.27c-0.41-.52-0.73-1.11-1.18-1.58-2-2.09-2.22-4.8-.2-6.94a50,50,0,0,1,6.65-6,90.62,90.62,0,0,1,10.71-7,99.19,99.19,0,0,1,11-4.68,60.7,60.7,0,0,1,6.2-1.93,16.9,16.9,0,0,1,3-.39c5-.44,8.2,2.07,10.41,6.25a23.21,23.21,0,0,1,1.57,3.13c0.51,1.47.59,2.94-.71,4.19s-2.8,2.87-4.24,4.26c-1.19,1.14-2.45,2.21-3.75,3.38m-37.05,7.27a6.4,6.4,0,0,0,6.95,3.92,68.74,68.74,0,0,0,16.18-6,8.34,8.34,0,0,0,3-3.24c0.78-1.31.3-2.79-.5-4a2.36,2.36,0,0,0-2.58-1.17c-1.46.29-2.91,0.61-4.34,1-1.77.49-3.55,1-5.26,1.65a41.43,41.43,0,0,0-3.87,2c-2-.92-4,0.58-6.06,1.3-2.61.93-4.21,0.84-6-1.14a3.83,3.83,0,0,0-.78-0.49c0,3.2.46,3.82,3.16,4.31a8,8,0,0,0,1.74.11c4.1-.16,7.77-1.93,11.52-3.29,3.38-1.23,6.62-2.84,9.92-4.28,0.63-.27,1.26-0.25,1.36.51a1.43,1.43,0,0,1-.78,1.06c-1.06.48-2.22,0.74-3.28,1.21-6.55,2.93-13.11,5.84-20.35,6.67M640.4,294c-0.64.53-1.12,1-1.65,1.37-2.93,2.21-5.84,4.45-8.82,6.59-1.68,1.21-1.88,1.54-1.07,3.45a15.62,15.62,0,0,0,1,1.7,9.41,9.41,0,0,0,2.79-.88c3-2.16,6-4.22,8.25-7.23,1.43-1.92,1.37-2.75-.52-5M629.85,308.8a6.89,6.89,0,0,0-5.16,2.26,6.7,6.7,0,0,0-.1,9.59c3.92,3.84,11.19,2.21,13.51-2.85a5.12,5.12,0,0,0,.13-4.13c-1.45-3.71-3.53-5.05-8.38-4.87m-3.07-8.24c0.74,1.22,1.57.63,2.34,0.12,2-1.33,4.11-2.6,6-4.06a29.86,29.86,0,0,0,3.61-3.43c0.46-.49,1-1.19.14-1.91a22.42,22.42,0,0,1-2.58,2.38c-2.36,1.58-4.79,3-7.2,4.53-1,.6-2.17,1-2.35,2.37m-12.6-6.25-0.64-.28c-1.74,3.62-4.08,7-4.8,11.49a3.53,3.53,0,0,0,1.29-.58c1.41-3.53,2.77-7.09,4.15-10.64m-1.46,9.78c2.21-3.87,3.23-8.23,5.26-12.16-2.36,2.1-5.47,9.11-5.26,12.16m11.59-5.22c2.46-.89,2.13-3.5,3.33-5.19a35.85,35.85,0,0,0,2.79-5.8l-0.6-.29c-3,3.16-3.54,7.58-5.52,11.28m3.46-1.65a5,5,0,0,0,1.77-1.05c1.45-2.68,2.77-5.43,4.36-8.59-2.22,1.18-4.95,5.65-6.13,9.65M623.18,301a1.44,1.44,0,0,0,.47,2.32,4.5,4.5,0,0,1,1.9,3.13,3.92,3.92,0,0,0,.53,1c1.36-.69,1.48-0.73,1.2-1.52-0.38-1.08-1.08-2.06-1.42-3.15-0.43-1.39-1.37-1.75-2.69-1.82m-7.54,2.54,5.64-12.87c-2.37,2-5.79,9.6-5.64,12.87m6.31-4.7c1.52-.51,1.38-2.12,2-3.09a28.56,28.56,0,0,0,1.6-3.63c1.05-2.27,1.07-2.27.89-3.88-1.68,3.51-3.22,6.7-4.74,9.9a1.88,1.88,0,0,0,.24.7m-14.46-.57c-2,1.83-3.75,6.67-3.42,8.74a1.91,1.91,0,0,0,.85-0.47c0.89-2.74,1.72-5.51,2.57-8.26M604,299.4a18.77,18.77,0,0,0-3,8.18,16.45,16.45,0,0,0,3-8.18m14.93-.51,0.56,0.34c1.16-1.09,1.49-2.66,1.92-4.09s1.94-2.37,1.34-4.16L619,298.89m-17.84,2.51c-1.89,2.11-2.86,5.19-2.08,6.82l2.08-6.82m7.64-2.25,0.49,0.32,1.84-3.74-0.56-.26-1.77,3.69m28.57-9-0.67-.47-0.81,1.57,0.5,0.3,1-1.39M633.52,293l-0.56-.32-0.74,1.44,0.43,0.24,0.87-1.36m1.37-3.31-0.31-.13L634,290.84l0.33,0.14,0.55-1.34" transform="translate(-565 -253)"/><path class="cls-3" d="M629.88,320.8c-4.55-.23-6.3-3-4.34-7,1.35-2.78,2.56-3.48,5.75-3.26a17.73,17.73,0,0,1,2.23.26c2.51,0.49,3.32,1.26,3.72,3.43a4.77,4.77,0,0,1-2.4,5.08,35.92,35.92,0,0,1-5,1.53m-0.63-1.7c2.63-.07,4.61-0.47,5.92-2.45s0.6-4.23-1.72-4.53c-2-.27-4.14-0.15-5.8,1.39a4,4,0,0,0-.91,4.38,2.21,2.21,0,0,0,2.51,1.22" transform="translate(-565 -253)"/></svg>