<svg xmlns="http://www.w3.org/2000/svg" viewBox="0 0 78.21 58.68"><defs><style>.cls-1{fill:#aab8bf;fill-rule:evenodd;}</style></defs><title>LIMPIEZA</title><g id="Layer_2" data-name="Layer 2"><g id="Layer_1-2" data-name="Layer 1"><path class="cls-1" d="M64.41,32.4a49.23,49.23,0,0,1,4.73,3.73c6.08,6.14,4.89,15.33-2.39,20S49,58.62,45.46,52.05c-1.31-2.46-1.65-5.45-2.56-8.68-.76.31-1.94.86-3.17,1.31C33.14,47,26.56,49.42,20,51.73c-4.54,1.58-8.24-.59-11.6-3.14-1.67-1.27-2.77-3.29-4.11-5-.62-.78-1.11-1.68-1.8-2.41-3-3.19-3.37-7.31-.3-10.59a75.65,75.65,0,0,1,10.15-9.21A138.44,138.44,0,0,1,28.61,10.74C34,7.86,39.75,5.82,45.42,3.61A93.33,93.33,0,0,1,54.88.67a27.39,27.39,0,0,1,4.54-.6C67-.59,71.92,3.23,75.29,9.6a35.48,35.48,0,0,1,2.4,4.77c.78,2.24.9,4.49-1.09,6.39-2.2,2.11-4.26,4.37-6.46,6.49C68.33,29,66.4,30.62,64.41,32.4ZM7.93,43.48c1.74,4.24,6.42,6.86,10.59,6,8.68-1.85,16.78-5.31,24.67-9.22,1.89-.94,3.43-3,4.57-4.95S48.21,31,47,29.12a3.6,3.6,0,0,0-3.94-1.78c-2.22.44-4.44.93-6.62,1.53-2.7.75-5.41,1.51-8,2.51a60.65,60.65,0,0,0-5.9,3c-3.09-1.41-6.16.88-9.24,2-4,1.42-6.42,1.28-9.15-1.74a6.21,6.21,0,0,0-1.19-.74c0,4.88.69,5.81,4.82,6.57a11.74,11.74,0,0,0,2.65.17c6.25-.23,11.83-2.93,17.55-5C33.1,33.72,38,31.26,43.07,29.07c1-.42,1.92-.39,2.07.78.06.49-.63,1.36-1.18,1.61-1.62.73-3.38,1.13-5,1.85C29,37.77,19,42.22,7.93,43.48ZM73.28,12.15c-1,.81-1.71,1.48-2.5,2.08C66.31,17.6,61.88,21,57.34,24.29c-2.56,1.84-2.87,2.34-1.63,5.26a23.56,23.56,0,0,0,1.55,2.59c1.48-.44,3.13-.53,4.25-1.35,4.51-3.29,9.18-6.44,12.57-11C76.26,16.85,76.16,15.59,73.28,12.15ZM57.2,34.75c-2.51-.16-5.34,1-7.87,3.45a10.21,10.21,0,0,0-.16,14.62c6,5.85,17.06,3.37,20.6-4.35a7.81,7.81,0,0,0,.2-6.29C67.75,36.52,64.58,34.47,57.2,34.75ZM52.52,22.19c1.13,1.86,2.38,1,3.57.18,3.09-2,6.26-4,9.21-6.18A46,46,0,0,0,70.8,11c.7-.74,1.48-1.81.2-2.91a33.73,33.73,0,0,1-3.93,3.63c-3.59,2.4-7.3,4.62-11,6.9C54.62,19.51,52.79,20.08,52.52,22.19ZM33.31,12.66l-1-.42C29.68,17.76,26.13,22.9,25,29.76c1.11-.48,1.84-.56,2-.89C29.14,23.49,31.22,18.07,33.31,12.66ZM31.08,27.57C34.45,21.66,36,15,39.11,9,35.51,12.24,30.77,22.92,31.08,27.57Zm17.67-8c3.74-1.36,3.25-5.34,5.08-7.91s2.87-5.87,4.25-8.84l-.92-.45C52.57,7.22,51.77,14,48.75,19.61ZM54,17.09c1.15-.66,2.32-.92,2.69-1.6,2.2-4.09,4.23-8.28,6.64-13.1C60,4.18,55.82,11,54,17.09Zm-7,5.73c-1.23,1.8-.39,2.75.72,3.53a6.83,6.83,0,0,1,2.9,4.76,5.89,5.89,0,0,0,.81,1.6c2.08-1,2.25-1.11,1.83-2.31-.58-1.65-1.64-3.14-2.16-4.8C50.49,23.48,49.05,22.93,47,22.82ZM35.55,26.68c3-6.89,5.71-13,8.6-19.62C40.53,10.08,35.33,21.7,35.55,26.68Zm9.63-7.17c2.32-.77,2.1-3.23,3.07-4.71,1.08-1.67,1.59-3.7,2.44-5.53,1.61-3.47,1.64-3.45,1.36-5.91-2.57,5.34-4.92,10.21-7.23,15.09C44.74,18.6,45,18.89,45.18,19.51Zm-22-.87C20.08,21.42,17.42,28.81,17.92,32c.48-.26,1.19-.39,1.29-.72C20.57,27.05,21.84,22.84,23.13,18.64Zm-5.29,1.78C15.57,24.17,13.67,28,13.2,32.89,15.42,30.25,17.89,23.8,17.84,20.42Zm22.75-.77.86.52c1.77-1.66,2.27-4.05,2.94-6.24s3-3.62,2-6.34Zm-27.2,3.82c-2.88,3.22-4.36,7.92-3.17,10.4C11.3,30.34,12.27,27.16,13.39,23.47ZM25,20.05l.76.48,2.8-5.7-.85-.4Q26.38,17.24,25,20.05ZM68.59,6.27l-1-.72L66.32,7.94l.77.45C67.58,7.68,68.09,7,68.59,6.27ZM62.8,10.61,62,10.12l-1.13,2.2.66.36Zm2.09-5-.46-.2c-.3.67-.59,1.35-.89,2l.51.21Z"/><path class="cls-1" d="M57.25,53.05c-6.93-.35-9.6-4.57-6.61-10.71,2.06-4.24,3.91-5.3,8.76-5a27.8,27.8,0,0,1,3.41.39c3.82.75,5.06,1.92,5.66,5.22.54,3-.86,6.44-3.65,7.75A54.42,54.42,0,0,1,57.25,53.05Zm-1-2.58c4-.11,7-.72,9-3.74s.92-6.44-2.63-6.91c-3.08-.41-6.31-.23-8.84,2.11a6.05,6.05,0,0,0-1.38,6.67C53.41,50.68,55.22,50.53,56.29,50.47Z"/></g></g></svg>