<svg xmlns="http://www.w3.org/2000/svg" viewBox="0 0 84.03 86.58"><defs><style>.cls-1{fill:#aab8bf;}</style></defs><title>limpieza</title><g id="Layer_2" data-name="Layer 2"><g id="Layer_1-2" data-name="Layer 1"><g id="Outline"><path class="cls-1" d="M43.5,11.11H40.71V8.32H43.5ZM40.71,16.7H43.5V13.91H40.71Zm0,5.59H43.5V19.5H40.71Zm0,5.59H43.5V25.09H40.71Zm0,5.59H43.5V30.68H40.71Zm-2.8-22.36H35.12v2.8h2.79ZM35.12,19.5h2.79V16.7H35.12Zm0,5.59h2.79v-2.8H35.12Zm0,5.59h2.79v-2.8H35.12Zm14-19.57H46.3v2.8h2.79ZM46.3,19.5h2.79V16.7H46.3Zm0,5.59h2.79v-2.8H46.3Zm0,5.59h2.79v-2.8H46.3ZM83.62,52.05A1.41,1.41,0,0,1,84,53V79.59a1.4,1.4,0,0,1-1.4,1.4h-14v-2.8H81.24V53.61L65,37.32a3.55,3.55,0,0,0-5,5l5.52,5.52a1.38,1.38,0,0,1,.41,1V85.18a1.4,1.4,0,0,1-1.39,1.4H56.08a1.4,1.4,0,0,1-1.4-1.4v-1.4H46.3A5.58,5.58,0,0,1,42.61,74a5.57,5.57,0,0,1-.52-7.87,5.11,5.11,0,0,1,.52-.52,5.57,5.57,0,0,1-.52-7.87,6.26,6.26,0,0,1,.52-.51,5.58,5.58,0,0,1,3.69-9.78h8.38a5.59,5.59,0,0,1,3.7,9.78,5.58,5.58,0,0,1,.51,7.87,6.14,6.14,0,0,1-.51.51,5.59,5.59,0,0,1,.51,7.88,6.14,6.14,0,0,1-.51.51,5.6,5.6,0,0,1,1.89,4.19h2.8V49.42L58,44.31a6.34,6.34,0,0,1,5.11-10.79V20.89A15.39,15.39,0,0,0,49.75,5.66,15.45,15.45,0,0,1,52.12,8.2a21.22,21.22,0,0,1,4,12.69,21.27,21.27,0,0,1-4,12.7,14.55,14.55,0,0,1-4.18,3.83A15.42,15.42,0,0,1,55.42,44L53,45.35a12.63,12.63,0,0,0-10.89-6.29c-3.81,0-7.37-1.94-10-5.47a21.27,21.27,0,0,1-4-12.7A22.7,22.7,0,0,1,29.93,12l2.56,1.11a19.87,19.87,0,0,0-1.56,7.83c0,8.48,5,15.38,11.18,15.38s11.18-6.9,11.18-15.38-5-15.37-11.18-15.37c-3.1,0-6.1,1.81-8.22,5L31.57,8.93c2.65-3.94,6.49-6.2,10.54-6.2H47.7A18.17,18.17,0,0,1,65.86,20.89V34.5a5.81,5.81,0,0,1,1.06.85ZM43.5,53a2.81,2.81,0,0,0,2.8,2.79h8.38a2.8,2.8,0,1,0,0-5.59H46.3A2.81,2.81,0,0,0,43.5,53Zm0,8.38a2.82,2.82,0,0,0,2.8,2.8h8.38a2.8,2.8,0,1,0,0-5.59H46.3A2.81,2.81,0,0,0,43.5,61.42Zm0,8.39a2.81,2.81,0,0,0,2.8,2.79h8.38a2.8,2.8,0,1,0,0-5.59H46.3A2.81,2.81,0,0,0,43.5,69.81Zm14,8.38a2.79,2.79,0,0,0-2.8-2.79H46.3a2.8,2.8,0,1,0,0,5.59h8.38A2.81,2.81,0,0,0,57.48,78.19ZM63.07,81H59.52a5.62,5.62,0,0,1-2,2v.75h5.59ZM4.89,16l.36-2.77L.36,12.55,0,15.32ZM15,14.46l-4.89-.64-.37,2.77,4.9.64Zm9.78,1.27-4.89-.63-.36,2.77,4.89.63ZM2.91,2.66,7.59,4.18l.86-2.65L3.77,0Zm9.35,3.05,4.68,1.53.87-2.65L13.13,3.06Zm9.36,3.06L26.3,10.3l.87-2.66L22.49,6.12ZM4.89,25.83,0,26.46l.36,2.78,4.89-.64Zm9.79-1.27-4.9.63L10.15,28,15,27.33Zm9.78-1.28-4.89.64.36,2.77,4.89-.63ZM2.91,39.13l.86,2.66,4.68-1.53L7.59,37.6Zm9.35-3.06.87,2.66,4.68-1.53-.87-2.66Zm14-4.58L21.62,33l.87,2.65,4.68-1.53Z"/></g></g></g></svg>