<svg xmlns="http://www.w3.org/2000/svg" viewBox="0 0 238.31 102.22"><defs><style>.cls-1{font-size:90px;font-family:RimouskiSb-Regular, Rimouski;font-weight:700;}.cls-1,.cls-3{fill:#19c6cf;}.cls-2{fill:#f7484f;}</style></defs><title>logoezpet</title><g id="Layer_2" data-name="Layer 2"><g id="Layer_1-2" data-name="Layer 1"><text class="cls-1" transform="translate(94.65 79.18)">o</text><path class="cls-2" d="M27,30.92A26.15,26.15,0,0,1,37.48,33a28.81,28.81,0,0,1,8.6,5.66A26.84,26.84,0,0,1,51.92,47a23.77,23.77,0,0,1,2.16,10,5.46,5.46,0,0,1-1.38,4,5.22,5.22,0,0,1-3.86,1.38H11.5a12.47,12.47,0,0,0,1.93,4.79A15.27,15.27,0,0,0,17.06,71,17.71,17.71,0,0,0,21.8,73.5a15.51,15.51,0,0,0,5.24.92,16.11,16.11,0,0,0,6.25-1.19,15.74,15.74,0,0,0,5.06-3.41,8,8,0,0,1,2-1.33A5,5,0,0,1,42.49,68,4.58,4.58,0,0,1,46,69.55a5.29,5.29,0,0,1,1.43,3.68,8.14,8.14,0,0,1-.28,2.11,4.06,4.06,0,0,1-1.1,1.84,22.45,22.45,0,0,1-8.46,5.89A28.63,28.63,0,0,1,27,85a26.38,26.38,0,0,1-10.53-2.12,27.49,27.49,0,0,1-8.6-5.75,26.71,26.71,0,0,1-5.79-8.55,27.21,27.21,0,0,1,0-21.06,27.26,27.26,0,0,1,5.79-8.6,27.91,27.91,0,0,1,8.6-5.84A25.9,25.9,0,0,1,27,30.92ZM27,41.5a15.27,15.27,0,0,0-5.24.92A16,16,0,0,0,17.15,45a16.88,16.88,0,0,0-3.54,3.86,13.79,13.79,0,0,0-2,4.79h30.9a12.57,12.57,0,0,0-1.93-4.79,16.65,16.65,0,0,0-8.28-6.43A15.31,15.31,0,0,0,27,41.5Z"/><path class="cls-2" d="M82.59,32.57a5.63,5.63,0,0,1,4.23,1.61,5.54,5.54,0,0,1,1.56,4,5.72,5.72,0,0,1-.32,1.94,10.49,10.49,0,0,1-.78,1.74l-17.57,31H83.05a5.31,5.31,0,0,1,3.86,1.42,5.09,5.09,0,0,1,1.47,3.82A5.2,5.2,0,0,1,86.91,82a5.31,5.31,0,0,1-3.86,1.42H61.25A5.86,5.86,0,0,1,56.93,82a5.11,5.11,0,0,1-1.47-3.77,7.23,7.23,0,0,1,1.19-3.77L74.31,43.24H61.62a5.19,5.19,0,0,1-3.91-1.47,5.31,5.31,0,0,1-1.42-3.86,5.36,5.36,0,0,1,1.42-3.82,5.11,5.11,0,0,1,3.91-1.52Z"/><path class="cls-3" d="M182.39,30.92A26.15,26.15,0,0,1,192.83,33a28.81,28.81,0,0,1,8.6,5.66A26.84,26.84,0,0,1,207.27,47a23.77,23.77,0,0,1,2.16,10,5.46,5.46,0,0,1-1.38,4,5.22,5.22,0,0,1-3.86,1.38H166.85a12.47,12.47,0,0,0,1.93,4.79A15.27,15.27,0,0,0,172.41,71a17.71,17.71,0,0,0,4.74,2.53,15.51,15.51,0,0,0,5.24.92,16.11,16.11,0,0,0,6.25-1.19,15.74,15.74,0,0,0,5.06-3.41,8.12,8.12,0,0,1,2-1.33,5.06,5.06,0,0,1,2.12-.51,4.58,4.58,0,0,1,3.54,1.57,5.29,5.29,0,0,1,1.43,3.68,8.14,8.14,0,0,1-.28,2.11,4.06,4.06,0,0,1-1.1,1.84A22.53,22.53,0,0,1,193,83.07,28.67,28.67,0,0,1,182.39,85a26.38,26.38,0,0,1-10.53-2.12,27.49,27.49,0,0,1-8.6-5.75,26.73,26.73,0,0,1-5.8-8.55,27.33,27.33,0,0,1,0-21.06,27.29,27.29,0,0,1,5.8-8.6,27.91,27.91,0,0,1,8.6-5.84A25.9,25.9,0,0,1,182.39,30.92Zm0,10.58a15.27,15.27,0,0,0-5.24.92A16,16,0,0,0,172.5,45,16.88,16.88,0,0,0,169,48.85a13.79,13.79,0,0,0-2,4.79h30.9a12.57,12.57,0,0,0-1.93-4.79,16.65,16.65,0,0,0-8.28-6.43A15.31,15.31,0,0,0,182.39,41.5Z"/><path class="cls-3" d="M227.55,32.57h3.31A5.15,5.15,0,0,1,234.67,34a5.28,5.28,0,0,1,1.43,3.91,5.23,5.23,0,0,1-1.43,3.72,5,5,0,0,1-3.81,1.52h-3.31V67.62a7.13,7.13,0,0,0,.5,2.94,4.26,4.26,0,0,0,1.43,1.75,6.17,6.17,0,0,0,2,.92,14.27,14.27,0,0,0,2.39.36,4.53,4.53,0,0,1,3.27,1.61A6,6,0,0,1,238.31,79a4.44,4.44,0,0,1-1.57,3.54,6.9,6.9,0,0,1-4.6,1.33,18.58,18.58,0,0,1-6-.92,12.65,12.65,0,0,1-4.83-2.89A13.26,13.26,0,0,1,218.12,75,20.81,20.81,0,0,1,217,67.71V43.15a4.73,4.73,0,0,1-3.27-1.75,5.53,5.53,0,0,1-1.15-3.49,5.63,5.63,0,0,1,1.15-3.63A4.5,4.5,0,0,1,217,32.67V17.12a5.14,5.14,0,0,1,1.52-3.91,5.22,5.22,0,0,1,3.72-1.42,5.28,5.28,0,0,1,3.91,1.42,5.31,5.31,0,0,1,1.43,3.91Z"/><path class="cls-3" d="M107.53,88.33a3.19,3.19,0,0,1-1.4,2.74,7.47,7.47,0,0,1-7.47,0,3.12,3.12,0,0,1-1.48-2.74v-32a3.07,3.07,0,0,1,1.48-2.67,7.47,7.47,0,0,1,7.47,0,3.13,3.13,0,0,1,1.4,2.67Z"/><path class="cls-3" d="M136.71,52.37a13.07,13.07,0,1,1-14.84-11A13.07,13.07,0,0,1,136.71,52.37ZM118.57,22c4.75-.7,7.87-6.18,7-12.23S120.09-.63,115.34.07s-7.87,6.18-7,12.23S113.83,22.7,118.57,22Zm-15.31,7.3c3.66-2.7,4-8.46.72-12.88s-8.86-5.81-12.51-3.12-4,8.46-.72,12.88S99.61,32,103.26,29.3Zm32.19-4.74c4.28,1.52,9.24-1.43,11.08-6.6s-.12-10.6-4.39-12.12-9.24,1.42-11.09,6.6S131.18,23,135.45,24.56Zm27.21.66c-2.3-3.91-8-4.81-12.73-2s-6.68,8.23-4.37,12.14,8,4.8,12.73,2S165,29.12,162.66,25.22Z"/></g></g></svg>