<svg id="Layer_1" data-name="Layer 1" xmlns="http://www.w3.org/2000/svg" viewBox="0 0 76.89 84.97"><defs><style>.cls-1{fill:#a9b7be;}</style></defs><title>lojas</title><path class="cls-1" d="M1678.07,8890.22l-2.56-25.06h-57.68l-2.32,25.28-2.91-.24,1.53-28.72h15.37l2.83-15.32h28.48l2.82,15h15.21c0.61,10.07,2.65,19.5,1.94,29Zm-44.34-29.28h25.63c-0.59-11.42-.59-11.42-10.95-11.42-1,0-1.9,0-2.85,0C1633.55,8849.79,1635.35,8847.37,1633.72,8860.95Z" transform="translate(-1608.22 -8846.16)"/><path class="cls-1" d="M1614.9,8931.13l-2.46-29.07,1.82-.38c3.7,3,1.82,7.86,2.62,11.73,0.92,4.42.92,9,1.37,14.14h30.13c7.26,0,14.54-.37,21.76.12,5.22,0.36,6.61-1.74,6.64-6.45,0-5.33.56-10.67,1.06-16,0.12-1.29,1-2.52,1.49-3.77l2,0.43c-0.35,6.11-.76,12.22-1,18.34-0.5,10.88-.46,10.88-11.44,10.89h-54Z" transform="translate(-1608.22 -8846.16)"/><path class="cls-1" d="M1684.67,8898h-70.84a11.8,11.8,0,0,1-3.41-.1c-0.84-.26-1.48-1.21-2.2-1.85a6.59,6.59,0,0,1,2-1.49,14.42,14.42,0,0,1,3.42-.13c22,0,43.92,0,65.88,0a31.82,31.82,0,0,1,5.6,1Z" transform="translate(-1608.22 -8846.16)"/><path class="cls-1" d="M1633.81,8885.09c0-4,0-8.07.07-12.1a1.74,1.74,0,0,1,3.21.06c0.12,4,.07,7.94.07,11.9Z" transform="translate(-1608.22 -8846.16)"/><path class="cls-1" d="M1634,8920.6c0-4.09,0-8.18.08-12.27a2.21,2.21,0,0,1,1.8-.8,2.06,2.06,0,0,1,1.33,1.46c0.11,3.85.06,7.71,0.06,11.57Z" transform="translate(-1608.22 -8846.16)"/><path class="cls-1" d="M1645.25,8885.93V8872C1649.16,8873.41,1649.62,8881.47,1645.25,8885.93Z" transform="translate(-1608.22 -8846.16)"/><path class="cls-1" d="M1623.39,8886.39v-14.65C1627.1,8873.92,1627.49,8881.11,1623.39,8886.39Z" transform="translate(-1608.22 -8846.16)"/><path class="cls-1" d="M1623.69,8907.48c3.41,1.93,3.83,9.08,0,14.24v-14.24Z" transform="translate(-1608.22 -8846.16)"/><path class="cls-1" d="M1645.72,8907.62c3.27,1.54,3.79,8.43,0,14.34v-14.34Z" transform="translate(-1608.22 -8846.16)"/><path class="cls-1" d="M1669.8,8907.38v13.45C1665.57,8917.69,1665.73,8909.57,1669.8,8907.38Z" transform="translate(-1608.22 -8846.16)"/><path class="cls-1" d="M1656.76,8907.5c3.53,2,3.94,9,0,14.12V8907.5Z" transform="translate(-1608.22 -8846.16)"/><path class="cls-1" d="M1656.76,8871.93c3.5,2,3.9,9.08,0,14.16v-14.16Z" transform="translate(-1608.22 -8846.16)"/><path class="cls-1" d="M1669.83,8886.07c-4.13-4.64-3.87-11.9,0-14.45v14.45Z" transform="translate(-1608.22 -8846.16)"/><path class="cls-1" d="M1655.08,8853.35h-17l0.29,4.37h16.53Z" transform="translate(-1608.22 -8846.16)"/><path class="cls-1" d="M1655.08,8853.35l-0.23,4.37h-16.53l-0.29-4.37h17Z" transform="translate(-1608.22 -8846.16)"/></svg>