<svg xmlns="http://www.w3.org/2000/svg" viewBox="0 0 42.7 52.33"><title>men-busqueda</title><g id="Layer_2" data-name="Layer 2"><g id="Layer_1-2" data-name="Layer 1"><path d="M17.09,12.5c2.7-.39,4.48-3.51,4-6.95S18-.36,15.25,0s-4.47,3.51-4,7S14.39,12.9,17.09,12.5Z"/><path d="M8.39,16.65c2.08-1.53,2.26-4.8.41-7.31S3.76,6,1.68,7.56s-2.25,4.81-.4,7.32S6.31,18.18,8.39,16.65Z"/><path d="M30.66,20.25A15.61,15.61,0,0,0,25.87,17a14.88,14.88,0,0,0-11.71,0,15.45,15.45,0,0,0-4.78,3.25A15.17,15.17,0,0,0,6.15,25,14.78,14.78,0,0,0,5,30.89c0,.21,0,.41,0,.62a1.7,1.7,0,0,0-.08.51V50.21a1.79,1.79,0,0,0,.84,1.56,3.65,3.65,0,0,0,2.08.56A3.65,3.65,0,0,0,10,51.77a1.81,1.81,0,0,0,.79-1.56V42.74a15.91,15.91,0,0,0,3.35,2,15.12,15.12,0,0,0,11.71,0,15.3,15.3,0,0,0,4.79-3.2,15,15,0,0,0,3.22-4.75,15.26,15.26,0,0,0,0-11.72A15.31,15.31,0,0,0,30.66,20.25Zm-2.2,14.19a9,9,0,0,1-2,2.89,9.58,9.58,0,0,1-2.92,2A8.84,8.84,0,0,1,20,40a9,9,0,0,1-3.6-.71,9.21,9.21,0,0,1-2.89-2,9.09,9.09,0,0,1-1.95-2.89,9,9,0,0,1-.71-3.55,9.18,9.18,0,0,1,.71-3.58,9.32,9.32,0,0,1,1.95-2.94,9.17,9.17,0,0,1,10.05-2,9.18,9.18,0,0,1,4.89,4.91,9.18,9.18,0,0,1,.71,3.58A9,9,0,0,1,28.46,34.44Z"/><path d="M19,23.5a7.43,7.43,0,1,0,8.43,6.27A7.43,7.43,0,0,0,19,23.5Z"/><path d="M42.15,14.33c-1.31-2.22-4.55-2.73-7.24-1.14s-3.79,4.67-2.48,6.9,4.55,2.73,7.24,1.14S43.47,16.55,42.15,14.33Z"/><path d="M26.68,14c2.44.87,5.26-.81,6.3-3.75s-.07-6-2.5-6.89-5.25.81-6.29,3.75S24.26,13.09,26.68,14Z"/></g></g></svg>