<svg xmlns="http://www.w3.org/2000/svg" viewBox="0 0 56.5 56.5"><defs><style>.cls-1{fill:#fff;}.cls-1,.cls-2{stroke:#aab8bf;stroke-miterlimit:10;}.cls-2{fill:none;}.cls-3{fill:#8b9295;}</style></defs><title>mis citas</title><g id="Layer_2" data-name="Layer 2"><g id="Layer_1-2" data-name="Layer 1"><circle class="cls-1" cx="28.25" cy="28.25" r="25.36"/><circle class="cls-2" cx="28.25" cy="28.25" r="27.75"/><path class="cls-3" d="M27.92,27.33a1.17,1.17,0,0,0-1,.59L23,34.75A7.48,7.48,0,0,0,25,35.94l2.92-5,2.92,5a7.79,7.79,0,0,0,2.05-1.19L29,27.92A1.2,1.2,0,0,0,27.92,27.33Z"/><path class="cls-3" d="M17.63,29.7H12.91a15,15,0,0,0,3.56,8.59l3.34-3.35a10.33,10.33,0,0,1-2.18-5.24Z"/><path class="cls-3" d="M17.63,27.33a10.4,10.4,0,0,1,2.18-5.25l-3.34-3.34a14.94,14.94,0,0,0-3.56,8.59Z"/><path class="cls-3" d="M38.2,27.33h4.73a14.94,14.94,0,0,0-3.56-8.59L36,22.08a10.3,10.3,0,0,1,2.17,5.25Z"/><path class="cls-3" d="M34.35,20.4l3.34-3.34A15.07,15.07,0,0,0,29.1,13.5v4.73a10.3,10.3,0,0,1,5.25,2.17Z"/><path class="cls-3" d="M21.49,20.4a10.23,10.23,0,0,1,5.24-2.17V13.5a15.07,15.07,0,0,0-8.58,3.56Z"/><path class="cls-3" d="M38.2,29.7A10.23,10.23,0,0,1,36,34.94l3.34,3.35a15,15,0,0,0,3.56-8.59Z"/><path class="cls-3" d="M26.73,43.53V38.8a10.33,10.33,0,0,1-5.24-2.18L18.15,40a15,15,0,0,0,8.58,3.57Z"/><path class="cls-3" d="M37.69,40l-3.34-3.34A10.4,10.4,0,0,1,29.1,38.8v4.73A15,15,0,0,0,37.69,40Z"/></g></g></svg>