<svg xmlns="http://www.w3.org/2000/svg" viewBox="0 0 56.5 56.5"><defs><style>.cls-1{fill:#fff;}.cls-1,.cls-2{stroke:#aab8bf;stroke-miterlimit:10;}.cls-2{fill:none;}.cls-3{fill:#aab8bf;}</style></defs><title>mis feets</title><g id="Layer_2" data-name="Layer 2"><g id="Layer_1-2" data-name="Layer 1"><circle class="cls-1" cx="28.25" cy="28.25" r="25.36"/><circle class="cls-2" cx="28.25" cy="28.25" r="27.75"/><path class="cls-3" d="M43.76,25.93c.78-2.53.21-3.82-1.45-5C37.57,17.54,33,14,28.19,10.41,23.06,14.26,17.94,18,13,21.92c-.74.58-.74,2.1-1.1,3.25,2.79.89,3.63-2.9,6.2-2.25-.15.52-.15.62-.19.64-3.63,1.82-4,5-3.69,8.53.22,3,.07,6,0,9.07a6.39,6.39,0,0,1-.52,1.7L13,42.68v-15c-1-.89-2.08-1.46-2.07-2,0-1.61-.89-3.44.93-4.78q7.58-5.58,15-11.29c1.12-.87,1.85-.55,2.82.18,4.75,3.63,9.5,7.26,14.37,10.73a3.47,3.47,0,0,1,1.4,3.54c-.08,1.16.59,2.73-1.53,2.92-.21,0-.46,1.11-.47,1.7,0,4,0,8.07,0,12.1a6.44,6.44,0,0,1-.72,1.92,7.31,7.31,0,0,1-.63-2c-.06-3.74-.16-7.5,0-11.23.1-2.17-.46-3.72-2.33-4.87-.57-.34-.89-1.08-1.33-1.64l.61-.51Z"/><path class="cls-3" d="M21.89,42.81c-.2-.23-.59-.46-.59-.69A58.52,58.52,0,0,1,21.44,34c.43-3.18,3.71-4.65,8.35-4.15,3.33.36,5.22,2.28,5.26,5.4,0,2.3,0,4.6,0,6.9a5.51,5.51,0,0,1-.44,1.11c-.4-.79-.8-1.21-.81-1.65-.07-2,0-4,0-6a5.79,5.79,0,0,0-.23-1.91c-.74-2-3.79-3-7-2.46-2.68.48-3.83,1.73-3.87,4.32,0,2.4,0,4.81,0,7.22Z"/></g></g></svg>