<svg xmlns="http://www.w3.org/2000/svg" viewBox="0 0 56.5 56.5"><defs><style>.cls-1{fill:#fff;}.cls-1,.cls-2{stroke:#aab8bf;stroke-miterlimit:10;}.cls-2{fill:none;}.cls-3{fill:#8b9295;}</style></defs><title>mismascotas</title><g id="Layer_2" data-name="Layer 2"><g id="Layer_1-2" data-name="Layer 1"><circle class="cls-1" cx="28.25" cy="28.25" r="25.36"/><circle class="cls-2" cx="28.25" cy="28.25" r="27.75"/><path class="cls-3" d="M34.45,40.66a14.31,14.31,0,0,1-3.32-1.24,2.88,2.88,0,0,0-4,.08,4.06,4.06,0,0,1-1.26.59,5.13,5.13,0,0,1-6.16-1.59A5,5,0,0,1,20,32.33,46.06,46.06,0,0,1,25.9,26.6c2.14-1.75,5.59-1.21,7.55.79,1.16,1.19,2.37,2.35,3.59,3.47,2.17,2,3,4.57,2.11,6.65A5.28,5.28,0,0,1,34.45,40.66ZM29.21,26.73a7.47,7.47,0,0,0-2.51.87A57.34,57.34,0,0,0,21.1,33a3.53,3.53,0,0,0-.27,4.79,3.64,3.64,0,0,0,5.05.87c2.35-1.6,4.25-1.54,6.59,0a3.65,3.65,0,0,0,5.05-.88,3.71,3.71,0,0,0-.43-5,57.26,57.26,0,0,0-5.3-5.15A7.94,7.94,0,0,0,29.21,26.73Z"/><path class="cls-3" d="M28.26,18.47a27.84,27.84,0,0,1-2,5c-1.28,2-3.53,1.92-5.08.1-2.06-2.43-2.05-7.73,0-10.18,1.51-1.8,3.83-1.85,5.09.14A28.77,28.77,0,0,1,28.26,18.47Zm-1.35.08a24.78,24.78,0,0,0-1.55-4.15c-.85-1.47-2.21-1.39-3.28-.07-1.6,2-1.58,6.4,0,8.36,1,1.28,2.45,1.31,3.3-.15A25.88,25.88,0,0,0,26.91,18.55Z"/><path class="cls-3" d="M39.14,18.51a28.57,28.57,0,0,1-1.9,4.84c-1.29,2.1-3.64,2.08-5.22.2-2-2.43-2-7.77.06-10.18,1.47-1.72,3.73-1.85,5,0A29,29,0,0,1,39.14,18.51Zm-7.68,0a24,24,0,0,0,1.5,4.1c.81,1.43,2.26,1.36,3.29.05,1.57-2,1.61-6.13.08-8.19-1.13-1.51-2.6-1.53-3.53.14A23.73,23.73,0,0,0,31.46,18.49Z"/><path class="cls-3" d="M46,26.24C45.11,28,44.51,30,43.3,31.44c-1.73,2.12-4.56,1.36-4.88-1.34a13.06,13.06,0,0,1,.85-5.77A3.24,3.24,0,0,1,43.21,22C45.15,22.51,45.39,24.3,46,26.24ZM39,28a14.38,14.38,0,0,0,1.49,3c.21.25,1.42,0,1.91-.39,1.56-1.16,2.34-4.51,1.61-6.26-.57-1.38-1.7-1.77-2.61-.63A27.44,27.44,0,0,0,39,28Z"/><path class="cls-3" d="M20.63,28.1c-.49,2-.66,3.87-2.77,4.37s-3.38-1-4-2.61a12.62,12.62,0,0,1-.8-5.22,3.56,3.56,0,0,1,2.06-2.56,3.58,3.58,0,0,1,3.09,1.14A26.73,26.73,0,0,1,20.63,28.1Zm-1.24.46a28.75,28.75,0,0,0-1.85-4.23,2.49,2.49,0,0,0-2.09-1,2.46,2.46,0,0,0-1.27,2,10.4,10.4,0,0,0,1,4.2c.39.79,1.79,1.78,2.37,1.58C18.29,30.82,18.73,29.52,19.39,28.56Z"/></g></g></svg>