<svg xmlns="http://www.w3.org/2000/svg" viewBox="0 0 56.5 56.5"><defs><style>.cls-1{fill:#fff;}.cls-1,.cls-2{stroke:#aab8bf;stroke-miterlimit:10;}.cls-2{fill:none;}.cls-3{fill:#8b9295;}</style></defs><title>mispedidos</title><g id="Layer_2" data-name="Layer 2"><g id="Layer_1-2" data-name="Layer 1"><circle class="cls-1" cx="28.25" cy="28.25" r="25.36"/><circle class="cls-2" cx="28.25" cy="28.25" r="27.75"/><path class="cls-3" d="M40.86,40.7a103.87,103.87,0,0,0,.52-19.94.57.57,0,0,0-1.13.08,103.28,103.28,0,0,1-.48,19.41,71,71,0,0,1-16.59.57.55.55,0,1,0-.1,1.09q3,.26,6,.25a72.38,72.38,0,0,0,10.79-.81l.28,1.54a1.24,1.24,0,0,1-.41,1.17,1.31,1.31,0,0,1-1.23.29l-1.89-.5a2.47,2.47,0,0,0-2.46.7l-.4.43a1.33,1.33,0,0,1-1.53.3l-2.08-1a2.54,2.54,0,0,0-2.09,0l-2.07,1a1.34,1.34,0,0,1-1.54-.3l-.4-.43a2.47,2.47,0,0,0-2.46-.7l-1.89.5a1.31,1.31,0,0,1-1.23-.29A1.24,1.24,0,0,1,18,42.89l.29-1.54c.83.13,1.67.24,2.49.33h.07a.55.55,0,0,0,.07-1.1c-.86-.1-1.72-.21-2.58-.34a103.5,103.5,0,0,1,0-24.5,71.14,71.14,0,0,1,21.41,0c.12,1,.23,2,.31,3a.58.58,0,0,0,.62.5.56.56,0,0,0,.51-.6c-.1-1.1-.22-2.22-.35-3.33l.36-2a2.31,2.31,0,0,0-.75-2.17,2.47,2.47,0,0,0-2.3-.54l-1.89.5A1.33,1.33,0,0,1,35,10.71l-.4-.42a2.47,2.47,0,0,0-2.86-.56l-2.07.95a1.32,1.32,0,0,1-1.13,0l-2.07-.95a2.48,2.48,0,0,0-2.86.56l-.4.42a1.32,1.32,0,0,1-1.32.38L20,10.59a2.45,2.45,0,0,0-2.29.54,2.3,2.3,0,0,0-.76,2.17l.36,2a105,105,0,0,0,0,25.42l-.36,2a2.3,2.3,0,0,0,.76,2.17,2.45,2.45,0,0,0,2.29.54l1.89-.5a1.32,1.32,0,0,1,1.32.38l.4.42a2.48,2.48,0,0,0,2.86.56l2.07-1a1.32,1.32,0,0,1,1.13,0l2.07,1a2.62,2.62,0,0,0,1.05.23,2.42,2.42,0,0,0,1.81-.79l.4-.42a1.32,1.32,0,0,1,1.32-.38l1.89.5a2.47,2.47,0,0,0,2.3-.54,2.31,2.31,0,0,0,.75-2.17ZM18.43,11.94a1.31,1.31,0,0,1,1.23-.29l1.89.5a2.47,2.47,0,0,0,2.46-.7l.4-.43a1.34,1.34,0,0,1,1.54-.3l2.07,1a2.54,2.54,0,0,0,2.09,0l2.08-1a1.33,1.33,0,0,1,1.53.3l.4.43a2.48,2.48,0,0,0,2.46.7l1.89-.5a1.31,1.31,0,0,1,1.23.29,1.24,1.24,0,0,1,.41,1.17l-.28,1.54a71.87,71.87,0,0,0-21.52,0L18,13.11A1.24,1.24,0,0,1,18.43,11.94Z"/><path class="cls-3" d="M22.64,34.24a3.13,3.13,0,0,0,6.2-.55V32.52l4.88-4.74h1.21a3,3,0,0,0,.56-6,3.13,3.13,0,0,0-6.19.55v1.17l-4.88,4.74H23.2a3,3,0,0,0-.56,6Zm.56-4.92h1.45a.55.55,0,0,0,.4-.16l5.21-5.06a.52.52,0,0,0,.17-.39v-1.4a2,2,0,0,1,4,0,.57.57,0,0,0,.56.54,1.94,1.94,0,1,1,0,3.87H33.48a.55.55,0,0,0-.4.16L27.87,31.9a.52.52,0,0,0-.17.39v1.4a2,2,0,0,1-4,0,.57.57,0,0,0-.56-.54,1.94,1.94,0,1,1,0-3.87Z"/><path class="cls-3" d="M38.2,33.78H31.86a.57.57,0,0,0-.57.55.56.56,0,0,0,.57.55H38.2a.56.56,0,0,0,.57-.55A.57.57,0,0,0,38.2,33.78Z"/><path class="cls-3" d="M30,37.23H38.2a.57.57,0,0,0,.57-.55.56.56,0,0,0-.57-.55H30a.55.55,0,0,0-.56.55A.56.56,0,0,0,30,37.23Z"/><path class="cls-3" d="M20.46,22.28H26.8a.57.57,0,0,0,.57-.55.56.56,0,0,0-.57-.55H20.46a.56.56,0,0,0-.57.55A.57.57,0,0,0,20.46,22.28Z"/><path class="cls-3" d="M20.46,24.62h4.08a.55.55,0,0,0,.56-.55.56.56,0,0,0-.56-.55H20.46a.57.57,0,0,0-.57.55A.56.56,0,0,0,20.46,24.62Z"/><path class="cls-3" d="M20.46,19.93h8.23a.55.55,0,1,0,0-1.1H20.46a.55.55,0,1,0,0,1.1Z"/></g></g></svg>