<svg xmlns="http://www.w3.org/2000/svg" viewBox="0 0 56.5 56.5"><defs><style>.cls-1{fill:#fff;}.cls-1,.cls-2{stroke:#aab8bf;stroke-miterlimit:10;}.cls-2{fill:none;}.cls-3{fill:#8b9295;}</style></defs><title>misventas</title><g id="Layer_2" data-name="Layer 2"><g id="Layer_1-2" data-name="Layer 1"><circle class="cls-1" cx="28.25" cy="28.25" r="25.36"/><circle class="cls-2" cx="28.25" cy="28.25" r="27.75"/><path class="cls-3" d="M13.24,42.13a1.06,1.06,0,0,0,.79.37H43a1.06,1.06,0,0,0,.79-.37,1,1,0,0,0,.22-.85l-4.13-22.8a1,1,0,0,0-1-.85h-3.1V14.46a7.23,7.23,0,1,0-14.46,0v3.17h-3.1a1,1,0,0,0-1,.85L13,41.28A1,1,0,0,0,13.24,42.13ZM23.33,14.46a5.17,5.17,0,0,1,10.34,0v3.17H23.33ZM19,19.7h2.24v2.07h-1a1,1,0,0,0,0,2.06h4.14a1,1,0,0,0,0-2.06h-1V19.7H33.67v2.07h-1a1,1,0,1,0,0,2.06h4.14a1,1,0,0,0,0-2.06h-1V19.7H38l3.76,20.73H15.27Z"/><path class="cls-3" d="M31.6,26.93a1,1,0,1,1-1-1A1,1,0,0,1,31.6,26.93Z"/><path class="cls-3" d="M27.47,26.93a1,1,0,1,1-2.07,0,1,1,0,0,1,2.07,0Z"/><path class="cls-3" d="M23.75,30.45a1,1,0,1,1-1-1A1,1,0,0,1,23.75,30.45Z"/><path class="cls-3" d="M35.32,30.45a1,1,0,0,1-2.07,0,1,1,0,1,1,2.07,0Z"/><path class="cls-3" d="M28.5,29a5.17,5.17,0,0,0-5.17,5.16,3,3,0,0,0,.8,2.22c.92.91,2.33.89,3.83.88h1.58c1.31,0,2.52-.07,3.33-.88a3,3,0,0,0,.8-2.22A5.17,5.17,0,0,0,28.5,29Zm2.92,5.91c-.31.31-1.4.3-2.36.29H28c-1,0-2.06,0-2.37-.29a1.18,1.18,0,0,1-.18-.75,3.1,3.1,0,0,1,6.2,0A1.18,1.18,0,0,1,31.42,34.91Z"/></g></g></svg>