<svg xmlns="http://www.w3.org/2000/svg" viewBox="0 0 56.5 56.5"><defs><style>.cls-1{fill:#fff;}.cls-1,.cls-2{stroke:#aab8bf;stroke-miterlimit:10;}.cls-2{fill:none;}.cls-3{fill:#8b9295;}</style></defs><title>mitienda</title><g id="Layer_2" data-name="Layer 2"><g id="Layer_1-2" data-name="Layer 1"><circle class="cls-1" cx="28.25" cy="28.25" r="25.36"/><circle class="cls-2" cx="28.25" cy="28.25" r="27.75"/><path class="cls-3" d="M38.74,26.4l-.82-8H19.45l-.74,8.1-.93-.08c.16-3,.32-6,.49-9.19h4.92c.32-1.72.6-3.27.9-4.91h9.13c.28,1.53.57,3.07.9,4.8H39c.19,3.23.84,6.25.62,9.3ZM24.54,17h8.21c-.19-3.65-.19-3.65-3.51-3.65h-.91C24.49,13.45,25.06,12.68,24.54,17Z"/><path class="cls-3" d="M18.52,39.5c-.28-3.28-.54-6.3-.79-9.31l.58-.12c1.19,1,.58,2.52.84,3.76a42.77,42.77,0,0,1,.44,4.52h9.65c2.32,0,4.65-.11,7,0,1.68.12,2.12-.55,2.13-2.06,0-1.71.18-3.42.34-5.12A4.56,4.56,0,0,1,39.15,30l.64.14c-.11,2-.24,3.91-.33,5.87-.16,3.49-.15,3.49-3.67,3.49Z"/><path class="cls-3" d="M40.86,28.89H18.17a3.61,3.61,0,0,1-1.09,0c-.27-.08-.47-.39-.7-.59.21-.17.4-.42.64-.48a4.91,4.91,0,0,1,1.09,0c7,0,14.07,0,21.1,0a10.2,10.2,0,0,1,1.79.32Z"/><path class="cls-3" d="M24.57,24.76c0-1.29,0-2.59,0-3.88,0-.12.34-.33.52-.33s.51.22.51.35c0,1.27,0,2.55,0,3.82Z"/><path class="cls-3" d="M24.62,36.13c0-1.31,0-2.62,0-3.93,0-.1.4-.29.58-.26a.64.64,0,0,1,.42.47c0,1.23,0,2.47,0,3.7Z"/><path class="cls-3" d="M28.23,25V20.57C29.48,21,29.63,23.6,28.23,25Z"/><path class="cls-3" d="M21.23,25.17V20.48C22.42,21.18,22.55,23.48,21.23,25.17Z"/><path class="cls-3" d="M21.33,31.93c1.09.62,1.22,2.91,0,4.56Z"/><path class="cls-3" d="M28.38,32c1.05.5,1.22,2.7,0,4.59Z"/><path class="cls-3" d="M36.1,31.89V36.2C34.74,35.2,34.79,32.59,36.1,31.89Z"/><path class="cls-3" d="M31.92,31.93c1.13.64,1.26,2.89,0,4.52Z"/><path class="cls-3" d="M31.92,20.54c1.12.64,1.25,2.91,0,4.53Z"/><path class="cls-3" d="M36.11,25.07c-1.33-1.49-1.24-3.81,0-4.63Z"/><path class="cls-3" d="M31.38,14.59H25.92L26,16h5.29Z"/><path class="cls-3" d="M31.38,14.59,31.31,16H26l-.1-1.4Z"/></g></g></svg>