<svg id="Icons" height="512" viewBox="0 0 74 74" width="512" xmlns="http://www.w3.org/2000/svg"><path d="m31.03 60h-2.9a1 1 0 1 1 0-2h2.9a1 1 0 0 1 0 2z"/><path d="m70 60h-22a1 1 0 0 1 0-2h22v-42h-66v42h17.13a1 1 0 0 1 0 2h-17.13a2 2 0 0 1 -2-2v-42a2 2 0 0 1 2-2h66a2 2 0 0 1 2 2v42a2 2 0 0 1 -2 2z"/><path d="m41 60h-2.97a1 1 0 0 1 0-2h2.97a1 1 0 0 1 0 2z"/><path d="m58.062 55h-42.124a1 1 0 0 1 -1-1 6.947 6.947 0 0 0 -6.938-6.938 1 1 0 0 1 -1-1v-18.124a1 1 0 0 1 1-1 6.947 6.947 0 0 0 6.938-6.938 1 1 0 0 1 1-1h42.124a1 1 0 0 1 1 1 6.947 6.947 0 0 0 6.938 6.938 1 1 0 0 1 1 1v18.124a1 1 0 0 1 -1 1 6.947 6.947 0 0 0 -6.938 6.938 1 1 0 0 1 -1 1zm-41.18-2h40.236a8.955 8.955 0 0 1 7.882-7.882v-16.236a8.955 8.955 0 0 1 -7.882-7.882h-40.236a8.955 8.955 0 0 1 -7.882 7.882v16.236a8.955 8.955 0 0 1 7.882 7.882z"/><path d="m56.573 40.99a3.99 3.99 0 1 1 3.989-3.99 3.995 3.995 0 0 1 -3.989 3.99zm0-5.98a1.99 1.99 0 1 0 1.989 1.99 1.993 1.993 0 0 0 -1.989-1.99z"/><path d="m17.427 40.99a3.99 3.99 0 1 1 3.99-3.99 3.994 3.994 0 0 1 -3.99 3.99zm0-5.98a1.99 1.99 0 1 0 1.99 1.99 1.992 1.992 0 0 0 -1.99-1.99z"/><path d="m39.369 46.583c-4.715 0-8.55-4.3-8.55-9.58s3.835-9.586 8.55-9.586a8.159 8.159 0 0 1 6.262 3.06 1 1 0 1 1 -1.542 1.274 6.089 6.089 0 0 0 -4.72-2.334c-3.612 0-6.55 3.4-6.55 7.586s2.938 7.58 6.55 7.58a6.184 6.184 0 0 0 4.722-2.329 1 1 0 1 1 1.539 1.277 8.174 8.174 0 0 1 -6.261 3.052z"/><path d="m36.9 35.575h-9.76a1 1 0 0 1 0-2h9.76a1 1 0 1 1 0 2z"/><path d="m36.9 40.425h-9.76a1 1 0 0 1 0-2h9.76a1 1 0 1 1 0 2z"/></svg>