<svg xmlns="http://www.w3.org/2000/svg" viewBox="0 0 56.5 56.5"><defs><style>.cls-1{fill:#fff;}.cls-1,.cls-2{stroke:#aab8bf;stroke-miterlimit:10;}.cls-2{fill:none;}.cls-3{fill:#8b9295;}</style></defs><title>notif</title><g id="Layer_2" data-name="Layer 2"><g id="Layer_1-2" data-name="Layer 1"><circle class="cls-1" cx="28.25" cy="28.25" r="25.36"/><circle class="cls-2" cx="28.25" cy="28.25" r="27.75"/><path class="cls-3" d="M27.67,46.5a3.69,3.69,0,0,0,3.58-3.81H24.08A3.7,3.7,0,0,0,27.67,46.5Z"/><path class="cls-3" d="M38.42,35.07V25.55c0-5.86-2.93-10.75-8.07-12v-1.3a2.69,2.69,0,1,0-5.37,0v1.3c-5.13,1.29-8.06,6.18-8.06,12v9.52l-3.59,3.81v1.91H42V38.88ZM34.83,37H20.5V25.55c0-4.74,2.71-8.58,7.17-8.58s7.16,3.84,7.16,8.58Z"/></g></g></svg>