<svg id="Layer_1" data-name="Layer 1" xmlns="http://www.w3.org/2000/svg" viewBox="0 0 109.5 109.5"><defs><style>.cls-1{fill:#fff;}.cls-2{fill:none;stroke:#a5b9c1;stroke-miterlimit:10;}.cls-3{fill-rule:evenodd;}</style></defs><title>3</title><path class="cls-1" d="M503.33,307.75a49.58,49.58,0,1,1-49.58-49.58,49.58,49.58,0,0,1,49.58,49.58" transform="translate(-399 -253)"/><circle class="cls-2" cx="54.75" cy="54.75" r="49.58"/><circle class="cls-2" cx="54.75" cy="54.75" r="54.25"/><path class="cls-3" d="M443.18,301.26l2.89-.89a46.36,46.36,0,0,1,10.12-2.16c2.69-.19,5.39-0.29,8.08-0.41,1.35-.06,1.46-0.12,1.63-1.31a8.14,8.14,0,0,1,4.72-6.16,16.28,16.28,0,0,1,4-1.21c4.76-1,8.62,4.55,7.32,8.42a12.45,12.45,0,0,1-2.2,4.16c-1.16,1.38-2.29,2.78-3.55,4.31,0.64,0.33,1.19.63,1.75,0.9,2.73,1.36,3.73,3.07,3.46,6.08-0.49,5.37-4.51,7.83-8.87,7.37a8.51,8.51,0,0,1-7.29-5,1.81,1.81,0,0,0-2-1.21c-5.14.5-10.28,0.9-15.42,1.32-1,.08-2,0.11-3,0.2a2.61,2.61,0,0,0-2.29,1.58,10.22,10.22,0,0,1-6.25,5.08A8,8,0,0,1,427,318.7a4.48,4.48,0,0,1-.64-1.63c-0.38-2.81-.13-5.52,1.74-7.81a10,10,0,0,1,2-1.63,8.86,8.86,0,0,1,1.2-.64c-1.35-2-2.7-3.8-3.88-5.72a9.34,9.34,0,0,1-.81-8.28,3.09,3.09,0,0,1,1.05-1.37c3-2.23,7.18-3,10.47,0a15.05,15.05,0,0,1,4.47,8.18c0.08,0.34.14,0.69,0.23,1a2.22,2.22,0,0,0,.33.46m30.56,5.62a17.43,17.43,0,0,0,1.66,1.74,5.7,5.7,0,0,1,2.45,5.16,12.9,12.9,0,0,1-.81,2.84,3,3,0,0,1-2.34,1.92,4.57,4.57,0,0,1-5.1-2.24,19.46,19.46,0,0,1-1.51-3.18,2,2,0,0,0-1.76-1.43,23.17,23.17,0,0,0-6.66,0c-2.57.21-5.13,0.61-7.7,0.74a76.9,76.9,0,0,1-7.9,0,2.42,2.42,0,0,0-2.87,1.9c-0.13.45-.22,0.9-0.36,1.34a2.05,2.05,0,0,1-.48,1,28.84,28.84,0,0,1-4.84,2.81,5.26,5.26,0,0,1-5-.68,7.94,7.94,0,0,1-1.78-1.69,14.81,14.81,0,0,1-1.15-2.22c-0.94,2,.91,4.21,2.77,5.74a3.65,3.65,0,0,0,1.57.73,8.7,8.7,0,0,0,9.9-5.44,1.54,1.54,0,0,1,1.54-1.18c1.17-.06,2.33-0.2,3.5-0.29l8.76-.7c2.86-.24,5.72-0.48,8.57-0.76a1.48,1.48,0,0,1,1.78,1.23c0.89,2.72,3,4.14,5.64,4.8a8.19,8.19,0,0,0,4,0,7.18,7.18,0,0,0,4.77-8.05,2.82,2.82,0,0,0-.91-1.64c-1.73-1.18-3.42-2.55-5.72-2.36a2.71,2.71,0,0,1,1.19-2,16.54,16.54,0,0,0,5.89-7.7c1.06-3-1.43-7.11-4.56-7.15-3.7-.05-8.93,2.06-9.35,7.42a1.31,1.31,0,0,1-1.5,1.46c-1.76.05-3.52,0.1-5.27,0.23a52,52,0,0,0-7.17.66c-3.7.79-7.44,1.54-11,3.62a10.8,10.8,0,0,1-.44-1.52c-0.12-.92,0-1.87-0.25-2.76a30.78,30.78,0,0,0-1.08-3.32c-1-2.71-4.68-5.35-7.54-5.16-2.36.16-5.18,1.54-5.41,4.6a9.78,9.78,0,0,0,1.59,6.35A17.26,17.26,0,0,0,433,306.5a3.1,3.1,0,0,1,.59,1.1c-4.41,1.33-5.74,2.72-5.92,6.21,1.86-3.7,5.57-4.11,8.71-5.58a2.55,2.55,0,0,0-.38-0.65,23.67,23.67,0,0,1-5.62-7.56,5.67,5.67,0,0,1,.33-5.85,2.34,2.34,0,0,1,3.18-1,5.7,5.7,0,0,1,3.1,2.74c1.16,2.36,2.28,4.75,3.28,7.18,0.87,2.1,1.23,2.38,3.39,1.88l0.51-.15c3.4-.87,6.78-1.87,10.21-2.59,4-.85,8-1.83,12.18-1.44a14.28,14.28,0,0,0,2.56-.25c0-1.1,0-2,0-3a7.25,7.25,0,0,1,5.1-6.65c2.5-.71,4.47.87,4.23,3.38a14.09,14.09,0,0,1-1.83,5.61,33.17,33.17,0,0,1-4.1,4.79c-0.3.34-.62,0.66-1,1a2.79,2.79,0,0,0,2.14,1.17m-27.29,2.65,1.47,1.44c1,0.05,1.92.12,2.85,0.14a26.12,26.12,0,0,0,2.81,0q4.56-.39,9.1-0.86a14.71,14.71,0,0,1,4.69.43,1.77,1.77,0,0,1,1.49,1.25c0.35,1,.73,2,1.15,2.95a4.39,4.39,0,0,0,3,2.52,2.5,2.5,0,0,0,2.57-.74c1.35-1.38,1.6-4.26.29-5.69a20,20,0,0,0-4.13-3.48c-2.25-1.4-2.31-1.35-.4-3.29a50.6,50.6,0,0,0,3.92-4.26,11,11,0,0,0,2.1-6.22,1.41,1.41,0,0,0-.25-0.51l-1.19.36-0.83-1.45c-2.51.08-4.1,2.22-4.57,4.72a24.88,24.88,0,0,0-.15,3.32c-0.08,1.51-.48,1.94-1.9,1.85-7.15-.46-14,1.27-20.78,3.12-1.47.4-2.94,0.82-4.43,1.14-2.38.51-3,.08-3.83-2.14s-1.75-4.34-2.65-6.5a6.88,6.88,0,0,0-2.8-3.08c-1.1-.71-1.9-0.58-2.49.55a4.82,4.82,0,0,0-.56,2.48c0.21,2.38,1.63,4.25,3,6,1.19,1.49,2.69,2.74,4,4.13a1.29,1.29,0,0,1,.43.87,1.22,1.22,0,0,1-.74.55c-1.8.69-3.64,1.3-5.42,2a8.1,8.1,0,0,0-2.07,1.32,3.13,3.13,0,0,0-.14,4.54,4.91,4.91,0,0,0,5.32,1.29,6.83,6.83,0,0,0,4.77-4.71c0.67-2.25,1-2.44,3.38-2.45H446l0.41-1.63" transform="translate(-399 -253)"/><path class="cls-3" d="M472.13,294.86l0.9-1.29c0.79,0.24,1,.67.67,1.21s-0.88.65-1.57,0.08" transform="translate(-399 -253)"/><path class="cls-3" d="M461.78,306.8l-0.73.76-0.66-.67,0.77-.74,0.61,0.65" transform="translate(-399 -253)"/><path class="cls-3" d="M472.58,298.18l-0.6-.93a2.56,2.56,0,0,1,.81-0.46,0.77,0.77,0,0,1,.44.57,2.71,2.71,0,0,1-.66.81" transform="translate(-399 -253)"/><path class="cls-3" d="M446.2,307.66a3,3,0,0,1,.36.9,1.16,1.16,0,0,1-.4.46,1.43,1.43,0,0,1-.5-0.55,2.2,2.2,0,0,1,.54-0.8" transform="translate(-399 -253)"/><path class="cls-3" d="M465.75,307.45a2,2,0,0,1-.71.54,1.42,1.42,0,0,1-.58-0.44A1.4,1.4,0,0,1,465,307a2,2,0,0,1,.8.44" transform="translate(-399 -253)"/><path class="cls-3" d="M444.09,310.09a2.67,2.67,0,0,1-.87.32,0.69,0.69,0,0,1-.39-0.44,0.94,0.94,0,0,1,.55-0.5,2,2,0,0,1,.71.62" transform="translate(-399 -253)"/><path class="cls-3" d="M464.67,304.93a1.87,1.87,0,0,1,.49.62,1.31,1.31,0,0,1-.28.55,1.19,1.19,0,0,1-.46-0.39,2,2,0,0,1,.25-0.78" transform="translate(-399 -253)"/><path class="cls-3" d="M476.71,295.79a4.64,4.64,0,0,1-1,.61,2.42,2.42,0,0,1-.44-0.59,1.41,1.41,0,0,1,.52-0.29,3.24,3.24,0,0,1,.88.27" transform="translate(-399 -253)"/></svg>