<svg xmlns="http://www.w3.org/2000/svg" viewBox="0 0 69.73 95.09"><defs><style>.cls-1{fill:#aab8bf;}</style></defs><title>petsister</title><g id="Layer_2" data-name="Layer 2"><g id="Layer_1-2" data-name="Layer 1"><g id="Outline"><path class="cls-1" d="M60.68,39.09l-3,1.06a11.12,11.12,0,0,0,10.46,7.4A1.59,1.59,0,0,0,69.73,46V19A11.11,11.11,0,0,0,59,7.93,17.46,17.46,0,0,0,44.38,0H41.21A17.45,17.45,0,0,0,23.77,17.43v4a6.33,6.33,0,0,0,3.17,11.82h.32a16,16,0,0,0,1.44,4.1l2.82-1.46a12.62,12.62,0,0,1-1.41-5.81V23c7.64-2.16,16.51-8.43,20-11.08l5.31,10.62v7.55A12.68,12.68,0,0,1,42.8,42.79h0V46a16,16,0,0,0,4.76-.72V51a3.16,3.16,0,0,0,1.58,2.75v6.51A6.34,6.34,0,0,1,37.72,64l-2.54,1.9A9.51,9.51,0,0,0,52.3,60.22V54.44l2.25.37L57.08,70a1.55,1.55,0,0,0,.35.77c.14.16.28.34.44.55a10.72,10.72,0,0,1-.44,13.25,1.6,1.6,0,0,0-.37,1v9.51h3.17v-9a13.89,13.89,0,0,0,.19-16.71c-.1-.13-.19-.26-.29-.37l-2.28-13.7,3.42.57a6.31,6.31,0,0,1,5.29,6.25V95.09h3.17V62.18a9.48,9.48,0,0,0-7.94-9.38L50.72,51V43.84a15.73,15.73,0,0,0,7.6-10.56h.32a6.33,6.33,0,0,0,3.17-11.82v-4a17.41,17.41,0,0,0-1.09-6.06A7.94,7.94,0,0,1,66.56,19v25.2A8,8,0,0,1,60.68,39.09Zm-33.74-9a3.17,3.17,0,0,1,0-6.34ZM58,20.6,52.13,8.8A1.58,1.58,0,0,0,50,8.09a1.34,1.34,0,0,0-.28.18c-.15.12-13.81,11-22.79,12.22V17.43A14.28,14.28,0,0,1,41.21,3.17h3.17A14.28,14.28,0,0,1,58.64,17.43V20.6Zm3.78,6.34a3.17,3.17,0,0,1-3.17,3.17V23.77A3.18,3.18,0,0,1,61.81,26.94ZM38,24.57a2.38,2.38,0,1,1-2.38-2.38A2.38,2.38,0,0,1,38,24.57Zm11.88,2.37a2.38,2.38,0,1,1,2.38-2.37A2.37,2.37,0,0,1,49.92,26.94ZM38,31.7h3.17a1.59,1.59,0,0,0,3.17,0h3.17a4.76,4.76,0,0,1-9.51,0ZM19,52.3H15.85V49.13H19Zm9.51,0H25.36V49.13h3.17ZM4.75,72.9A4.76,4.76,0,0,0,0,77.66v7.13a5.58,5.58,0,0,0,1.62,3.92,7.14,7.14,0,0,0,7.1,6.38h4.12l15.67-1.56L41,95.08h.2a1.6,1.6,0,0,0,1.42-.87l2.93-5.87.93-.46a4.78,4.78,0,0,0-1.47-9l-7-1V74.49a1.52,1.52,0,0,0-.15-.66L33,63l1.45-4.36h5.2a1.57,1.57,0,0,0,1.47-1l3.17-7.92a1.59,1.59,0,0,0-.59-1.91l-9.51-6.34-3.34-1.68a1.58,1.58,0,0,0-.71-.17H14.26a1.57,1.57,0,0,0-.7.17l-3.17,1.58L.71,47.81a1.59,1.59,0,0,0-.6,1.91l3.17,7.92a1.58,1.58,0,0,0,1.47,1H7.92V55.47H5.83l-2.3-5.73,6-4V57.06a1.74,1.74,0,0,0,.08.5L11.41,63,6.9,72.9ZM34.87,45.75l6,4-2.29,5.73H34.87ZM44.57,82a1.62,1.62,0,0,1,.5,3l-1.4.7a1.53,1.53,0,0,0-.71.71L40.29,91.8,28.73,90.35a1.45,1.45,0,0,0-.36,0L12.6,91.92H8.72a4,4,0,0,1-2.8-1.16,3.7,3.7,0,0,1-.37-.42h4a1.59,1.59,0,0,0,1.58-1.59V84h4.76v.79a5.56,5.56,0,0,0,5.55,5.55h4a1.59,1.59,0,0,0,1.58-1.59V84h1.59a1.52,1.52,0,0,0,.59-.12l7.53-3ZM12.68,43.77l2-1h15.1l2,1v13l-2.37,7.1A1.58,1.58,0,0,1,27.83,65H23.77V62.79l2.3-1.15a1.59,1.59,0,0,0,.87-1.42V57.06a1.59,1.59,0,0,0-1.58-1.59H19a1.59,1.59,0,0,0-1.59,1.59v3.16a1.58,1.58,0,0,0,.88,1.42l2.29,1.15V65H16.55a1.58,1.58,0,0,1-1.5-1.08l-2.37-7.1ZM22.19,60l-1.59-.79v-.61h3.17v.61Zm-9,6.71a4.74,4.74,0,0,0,3.37,1.4H27.83a4.72,4.72,0,0,0,3.36-1.4l3.68,8.08v3.34l-6.65,2.66H25.36a1.59,1.59,0,0,0-1.59,1.58v4.76H21.4A2.38,2.38,0,0,1,19,84.79V77.66a1.59,1.59,0,0,1,1.58-1.59h7.93V72.9H20.6a4.76,4.76,0,0,0-4.75,4.76v3.17H9.51a1.59,1.59,0,0,0-1.59,1.58v4.76H5.55a2.38,2.38,0,0,1-2.38-2.38V77.66a1.59,1.59,0,0,1,1.58-1.59h7.93V72.9H10.39Z"/></g></g></g></svg>