<svg id="Layer_1" data-name="Layer 1" xmlns="http://www.w3.org/2000/svg" viewBox="0 0 50.95 75"><defs><style>.cls-1{fill:#a9b7be;}</style></defs><title>1</title><path class="cls-1" d="M1360.88,8729.25a211.58,211.58,0,0,0,1.07-40.42,1.15,1.15,0,0,0-2.29.15,209.5,209.5,0,0,1-1,39.34,143.55,143.55,0,0,1-33.64,1.16,1.14,1.14,0,0,0-1.24,1,1.12,1.12,0,0,0,1,1.21q6,0.51,12.09.51a146.59,146.59,0,0,0,21.86-1.64l0.58,3.13a2.5,2.5,0,0,1-.83,2.36,2.68,2.68,0,0,1-2.5.59l-3.83-1a5,5,0,0,0-5,1.42l-0.8.86a2.71,2.71,0,0,1-3.12.61l-4.2-1.93a5.08,5.08,0,0,0-4.24,0l-4.2,1.93a2.71,2.71,0,0,1-3.12-.61l-0.8-.86a5,5,0,0,0-5-1.42l-3.83,1a2.67,2.67,0,0,1-2.5-.59,2.5,2.5,0,0,1-.83-2.36l0.58-3.13c1.69,0.26,3.39.48,5.07,0.68h0.14a1.14,1.14,0,0,0,1.14-1,1.12,1.12,0,0,0-1-1.24c-1.73-.2-3.49-0.44-5.23-0.7a209.6,209.6,0,0,1,0-49.64,143.65,143.65,0,0,1,43.41,0c0.24,2,.45,4,0.63,6a1.14,1.14,0,0,0,1.24,1,1.13,1.13,0,0,0,1-1.21c-0.2-2.24-.44-4.5-0.72-6.74l0.74-4a4.71,4.71,0,0,0-1.54-4.4,5,5,0,0,0-4.65-1.09l-3.83,1a2.7,2.7,0,0,1-2.68-.76l-0.8-.86a5,5,0,0,0-5.8-1.13l-4.2,1.93a2.73,2.73,0,0,1-2.28,0l-4.2-1.93a5,5,0,0,0-5.8,1.13l-0.8.86a2.7,2.7,0,0,1-2.68.76l-3.83-1a5,5,0,0,0-4.65,1.09,4.71,4.71,0,0,0-1.54,4.4l0.74,4a211.67,211.67,0,0,0,0,51.51l-0.74,4a4.71,4.71,0,0,0,1.54,4.4,5,5,0,0,0,4.65,1.09l3.83-1a2.7,2.7,0,0,1,2.68.76l0.8,0.86a5,5,0,0,0,5.8,1.13l4.2-1.93a2.73,2.73,0,0,1,2.28,0l4.2,1.93a5.1,5.1,0,0,0,2.13.47,5,5,0,0,0,3.67-1.59l0.8-.86a2.7,2.7,0,0,1,2.68-.76l3.83,1a5,5,0,0,0,4.65-1.09,4.71,4.71,0,0,0,1.54-4.4Zm-45.46-58.31a2.68,2.68,0,0,1,2.5-.59l3.83,1a5,5,0,0,0,5-1.42l0.8-.86a2.71,2.71,0,0,1,3.12-.61l4.2,1.93a5.08,5.08,0,0,0,4.24,0l4.2-1.93a2.71,2.71,0,0,1,3.12.61l0.8,0.86a5,5,0,0,0,5,1.42l3.83-1a2.67,2.67,0,0,1,2.5.59,2.5,2.5,0,0,1,.83,2.37l-0.58,3.13a146,146,0,0,0-43.62,0l-0.58-3.13A2.5,2.5,0,0,1,1315.41,8670.94Z" transform="translate(-1311.5 -8666)"/><path class="cls-1" d="M1323.94,8716.15a6.32,6.32,0,0,0,6.23,5,6.25,6.25,0,0,0,6.34-6.15v-2.39l9.89-9.61h2.46a6.14,6.14,0,0,0,1.14-12.2,6.32,6.32,0,0,0-6.23-5,6.25,6.25,0,0,0-6.33,6.15v2.39l-9.89,9.61h-2.46A6.14,6.14,0,0,0,1323.94,8716.15Zm1.14-10H1328a1.16,1.16,0,0,0,.81-0.33l10.57-10.26a1.1,1.1,0,0,0,.34-0.79V8692a4,4,0,0,1,8.08-.07,1.13,1.13,0,0,0,1.13,1.09,3.92,3.92,0,1,1-.08,7.84h-2.94a1.16,1.16,0,0,0-.81.33l-10.57,10.26a1.1,1.1,0,0,0-.34.79V8715a4,4,0,0,1-8.08.07A1.13,1.13,0,0,0,1325,8714,3.92,3.92,0,1,1,1325.08,8706.18Z" transform="translate(-1311.5 -8666)"/><path class="cls-1" d="M1355.49,8715.22h-12.85a1.11,1.11,0,1,0,0,2.23h12.85A1.11,1.11,0,1,0,1355.49,8715.22Z" transform="translate(-1311.5 -8666)"/><path class="cls-1" d="M1338.81,8722.21h16.68a1.11,1.11,0,1,0,0-2.23h-16.68A1.11,1.11,0,1,0,1338.81,8722.21Z" transform="translate(-1311.5 -8666)"/><path class="cls-1" d="M1319.53,8691.9h12.85a1.11,1.11,0,1,0,0-2.23h-12.85A1.11,1.11,0,1,0,1319.53,8691.9Z" transform="translate(-1311.5 -8666)"/><path class="cls-1" d="M1319.53,8696.65h8.26a1.11,1.11,0,1,0,0-2.23h-8.26A1.11,1.11,0,1,0,1319.53,8696.65Z" transform="translate(-1311.5 -8666)"/><path class="cls-1" d="M1319.53,8687.14h16.68a1.11,1.11,0,1,0,0-2.23h-16.68A1.11,1.11,0,1,0,1319.53,8687.14Z" transform="translate(-1311.5 -8666)"/></svg>