<svg xmlns="http://www.w3.org/2000/svg" viewBox="0 0 72 120"><defs><style>.cls-1{fill:#aab8bf;}</style></defs><title>ropa</title><g id="Layer_2" data-name="Layer 2"><g id="Layer_1-2" data-name="Layer 1"><g id="_029---Dungarees" data-name="029---Dungarees"><path id="Shape" class="cls-1" d="M44,120H68a4,4,0,0,0,4-4V68a6,6,0,0,0-1.76-4.26C68.1,61.6,66,62.2,64,61.8V6a6,6,0,0,0-6-6H50a6,6,0,0,0-6,6V26H28V6a6,6,0,0,0-6-6H14A6,6,0,0,0,8,6V61.8A9.62,9.62,0,0,1,6,62a6,6,0,0,0-6,6v48a4,4,0,0,0,4,4H28a4,4,0,0,0,4-4V96a4,4,0,0,1,8,0v20A4,4,0,0,0,44,120ZM60,6V60a9.69,9.69,0,0,1-4-8V6a2,2,0,0,1,4,0ZM48,6a2,2,0,0,1,2-2h2.34c-.5,1.4-.34.8-.34,22H48ZM22,4a2,2,0,0,1,2,2V26H20c0-21.54.14-20.64-.34-22ZM12,6a2,2,0,0,1,4,0V52a9.69,9.69,0,0,1-4,8ZM46,88H26a2,2,0,0,0,0,4h3.12A7.84,7.84,0,0,0,28,96v20H4V88A10,10,0,0,0,14,78V72a2,2,0,0,0-4,0v6a6,6,0,0,1-6,6V68a2,2,0,0,1,.6-1.44A1.89,1.89,0,0,1,6,66,14,14,0,0,0,20,52V30H52V52A14,14,0,0,0,66,66a2,2,0,0,1,2,2V84a6,6,0,0,1-6-6V72a2,2,0,0,0-4,0v6A10,10,0,0,0,68,88v28H44V96a7.84,7.84,0,0,0-1.12-4H46a2,2,0,0,0,0-4Z"/><path id="Shape-2" data-name="Shape" class="cls-1" d="M26,40a2,2,0,0,0,2-2V36a2,2,0,0,0-4,0v2A2,2,0,0,0,26,40Z"/><path id="Shape-3" data-name="Shape" class="cls-1" d="M46,40a2,2,0,0,0,2-2V36a2,2,0,0,0-4,0v2A2,2,0,0,0,46,40Z"/><path id="Shape-4" data-name="Shape" class="cls-1" d="M48,46a2,2,0,0,0-2-2H26a2,2,0,0,0-2,2V60.76A11.65,11.65,0,0,0,36,72,11.65,11.65,0,0,0,48,60.76ZM44,60.76A7.64,7.64,0,0,1,36,68a7.64,7.64,0,0,1-8-7.24V48H44Z"/></g></g></g></svg>