<svg xmlns="http://www.w3.org/2000/svg" viewBox="0 0 107.21 116"><title>serv-roedor</title><g id="Layer_2" data-name="Layer 2"><g id="Layer_1-2" data-name="Layer 1"><path d="M38.72,18.7c-10.56,4.76-19.5,8.18-27.88,12.76C4.46,35,3.77,42.25,5.24,48.79c1.55,6.87,7.25,8.45,13.29,8.65,8.91.29,10.77,2.65,12,12.17.72,5.41,2.65,10.65,3.9,15.47-2.7,3.65-5.9,7.93-9.07,12.24s-11.77,5.74-15.35,2.53c-4.6-4.12-5-15.68-.61-20.36,3.88-4.18,9-3.38,13.93,2.18,1,1.12,1.94,2.26,4.34,5.07C26.68,78.41,26.26,72.11,25,66c-.73-3.58-10.42-5.14-14.87-2.83-1,.54-2.06,1.14-3.45,1.92C4.29,58.42.7,52.37.12,46c-1.48-16.17,11.19-24.24,26-28,5.5-1.39,8.6-2.6,10.75-8.67C40,.39,48.64-2.24,56.67,1.93c7,3.63,9.63,11.07,5,17.65-4.28,6.15-1.45,9.26,3,11.51a94.32,94.32,0,0,0,15.85,5.83c18.29,5.5,25.5,13.57,26.59,33.94.55,10.15-1.2,20.69-3.42,30.66C102,109.35,96.18,114.36,86.63,116c1.07-2.54,1.37-4.47,2.43-5.48,1.47-1.4,3.92-1.68,5.24-3.17,10.77-12.21,9.22-27.34,7.6-42-1.26-11.3-7.65-18.89-18.14-22C78.11,41.65,72.12,40.66,67,37.89c-4.57-2.44-8.55-6.57-12-10.7-1.09-1.29-.54-5.81.77-7.47,3.28-4.17,5.16-8.11.5-11.89C51.72,4.16,46.35,3.71,42.64,9,40.3,12.39,39.41,16.91,38.72,18.7ZM16.38,81.2l-2.71.38c-.81,2.77-2.67,5.82-2.12,8.23s3.48,4.43,5.36,6.61c1.71-1.9,5.14-4.34,4.8-5.61C20.79,87.34,18.27,84.37,16.38,81.2Z"/><path d="M54.63,109.52c-9.33-28.68-.54-49.14,21.69-46.73-2.79,2.09-4.15,3.56-5.8,4.28C53.91,74.4,48.78,92.87,60,107.63c1.89,2.49,7.29,1.82,11,2.81,2.19.57,4.3,1.54,6.44,2.33-2.19,1-4.35,2.71-6.6,2.86a151.15,151.15,0,0,1-18.31,0c-1.79-.1-3.51-1.73-5.27-2.66,1.59-.89,3.16-1.81,4.78-2.63A18.41,18.41,0,0,1,54.63,109.52Z"/></g></g></svg>