<svg xmlns="http://www.w3.org/2000/svg" viewBox="0 0 114.28 125.08"><title>serv-fish</title><g id="Layer_2" data-name="Layer 2"><g id="Layer_1-2" data-name="Layer 1"><path d="M19.5,23.72c-1.6-6-4-11-3.88-16,0-2.58,4.44-5.07,6.86-7.6L24,1.73c-1.3,3.84-4.5,8.64-3.36,11.24,1.2,2.77,6.53,3.46,11.62,5.76-2,2.09-3.82,4.54-6.1,6.37C-2,47.59-2.49,92.51,25.39,115.2a19.67,19.67,0,0,0,11.08,4.2q20.67.76,41.36,0a19.85,19.85,0,0,0,11.09-4.24c28.15-22.82,27.32-68.31-1.4-90.55-2.23-1.73-4.19-3.84-7-6.41l14.23-4Q93.14,8,91.51,1.77L92.78,0c2.45,2.63,6,4.81,7.11,8C102,14.3,99,19.11,91.39,22.46c3,2.48,5.53,4,7.39,6.08,23.82,27.17,19.66,71.31-8.87,92.33a21.06,21.06,0,0,1-11.23,3.87c-14.29.44-28.61.47-42.89,0a22.16,22.16,0,0,1-11.89-4.23c-28.36-21.35-32-65.12-8-92.46C17.61,26,19.3,24,19.5,23.72Z"/><path d="M72.15,65.23c8.11-11.67,15.87-14,27.26-7.44C90.93,64.74,93.52,73.7,94.29,83c.61,7.4-1.71,15.09-2.73,22.66l-2.19-.32c-3.85-5.78-6.71-14.44-11.85-16.49C73,87,65.92,92.59,59,95.26c0-7.91,7-8.62,10.64-11.15,8.6-6,13.84,1.49,19.5,9.73V59.58c-9.14-1.7-11.78,6.68-14.7,15.3-7.66-5.45-16.26-9.23-11.86-22.37l-2.77-.7c-2.48,3.17-6.1,6-7.14,9.62-1.19,4.21-2.73,6.26-6.52,7.78-5.31,2.13-9.6,12.82-7.85,18.92l15.8-2.3c-.5,4.68-1,9.2-1.47,13.73l15.23-.81,1.52,9.39c-6.24-1-11.9-.78-16.33-3.16-3.38-1.83-4.6-7.92-7.89-10.45-3-2.34-9.83-1.31-10.91-3.79-2.13-4.93-6.89-10.9,1.12-17C41.33,69.27,44.67,61,49.76,55a23.48,23.48,0,0,1,9.87-6.9c5.18-1.76,9.33-.61,7.31,7.22C65.74,59.94,65.87,64.28,72.15,65.23Z"/><path d="M31,52c-1.87-3.33-5.58-7-5.1-9.89s4.94-6.6,8-7c1.92-.25,6.24,4.94,6.22,7.67,0,3.14-3.61,6.27-5.65,9.4Z"/><path d="M20.38,54.78c3.07,4.3,6.22,6.81,6,8.79C26,66.19,23,68.4,21.09,70.79c-2.09-1.94-5.71-3.73-5.89-5.86C15,62.41,17.74,59.6,20.38,54.78Z"/><path d="M54,20.73c3.79-6,17.15-5.86,20.34,0Z"/></g></g></svg>