<svg xmlns="http://www.w3.org/2000/svg" viewBox="0 0 92.61 146.33"><title>serv-bir</title><g id="Layer_2" data-name="Layer 2"><g id="Layer_1-2" data-name="Layer 1"><path d="M80.83,102.83c-7,1.4-13.2.66-15.72,3.61-4.43,5.19-6.58,12.63-10.07,20l24.5,1.39c-.1.79-.2,1.58-.31,2.37C70.78,133.94,3.79,132.63,0,127H33.35c18,0,19.7-1.45,25.12-21.37C46,103.31,33.06,88,34.47,69.5c1.11-14.64-5.42-16.19-15.56-10.7C12.78,49.1,13.31,36,21,27.19c4-4.51,9-8.1,13.85-11.52,5.54-3.86,11.94-6.49,13.87-14.41C48.9.64,50.86.52,52.53,0c.74,7.9-3.36,12.08-8.3,15.64-5.5,4-11.48,7.27-16.61,11.72C20,33.92,18.57,40.21,20.94,51c1.39,0,2.86.07,4.33,0,10.56-.56,13.21,2.89,14.17,14.21a79.46,79.46,0,0,0,5.65,24.12c3.08,7.16,9.26,11.34,17.61,10a51.68,51.68,0,0,1,12.24,0C76.36,99.54,77.7,101,80.83,102.83Z"/><path d="M87.4,84.25c-9-25.41-30.28-50.17-49.26-58.51L53.68,15.67l1.32,2-5,7.87C69.84,41.94,85.59,62,92.61,87.05c-1.17,3.46-3.26,6.89-3.36,10.39-.4,13.45-.17,26.93-.17,40.4v7.92l-2.93.57c-.59-2.22-1.68-4.43-1.69-6.66-.15-16.75-.08-33.5-.08-50.52-8.77-2.25-17.29-3.89-25.49-6.66C46.7,78.36,41.79,68.92,44.62,56.57c.27-1.21,1.08-2.27,3.38-3.48.34,1.9,1.06,3.82,1,5.69C48.33,69.2,51,74.52,60.11,77.5,68.58,80.25,77.37,81.83,87.4,84.25Z"/></g></g></svg>