<svg xmlns="http://www.w3.org/2000/svg" viewBox="0 0 105.04 129.34"><title>serv-cat</title><g id="Layer_2" data-name="Layer 2"><g id="Layer_1-2" data-name="Layer 1"><path d="M43.8,53.36c-3.53.7-9.55,2.53-15.66,2.91-7,.44-9.73,4.2-9.67,10.34.09,8.8.82,17.58,1.2,26.38.43,10.05,1,20.12.93,30.17,0,1.73-2.91,4.64-4.75,4.88-3.59.47-7.39-.56-11.1-1l.42-2.78,12.15-.93c-.56-9.1.4-18.47-2-26.9C11,81.09,12.9,66.6,17.22,51.9c.74-2.51,1.13-5.13,1.87-8.57-3.46-.23-6.1-.24-8.69-.6C5,42,1,39.23.25,33.52c-.69-5.39-.38-10.63,6.53-12.16.88-.19,2.16-.72,2.37-1.38,2.48-7.64,8.62-9.57,16-9.81.28-3.54.53-6.66.8-10.06,6.73-.85,10.41,3.34,13.77,7.44C49,18.82,52.39,32.32,52.07,46.42c-.23,10.19,3.27,16.19,12.78,19.83,14,5.35,18.23,17.27,18.65,31,.27,8.65,0,17.33,0,25.86,11.48,3.25,17.23-1.32,15.13-12.24-1.11-5.75-3.82-11.19-5.74-16.8-3.22-9.42-4.8-19,1.13-27.84,2.31-3.47,5.89-6.09,8.9-9.1L105,58.7c-.67,1.49-.93,3.48-2.07,4.39-9.2,7.38-9.43,16.85-6.35,27,1.58,5.19,4.06,10.12,5.62,15.32,2,6.74,3.61,14-2.22,19.55s-13,5.14-21,2.69c0-8.75-.13-17.63,0-26.5.26-15.21-4.59-26.68-20-33C53.69,65.94,50,59.58,43.8,53.36ZM29.85,4.66c1.15,7.92-.34,11.26-7.06,10.56-4.64-.48-7.78,2-9.21,6.84-.48,1.62-2.8,2.64-4.12,4.08C7.78,28,4.58,30.61,5,31.72c1,2.47,3.56,5.57,5.93,6,12.43,2.28,12.48,2,12.43,14.88l24.24-5C46.74,31.25,44.06,16.84,29.85,4.66Z"/><path d="M67.3,126.84c-9.16,3.31-33.9,2-36.14-2.3L39,123.29c-6-22.68,1.44-37.18,19.49-34.05-3.07,1.84-4.73,3.12-6.6,3.91-11.87,5-15.7,19-7.47,28.68,1.25,1.47,4.29,1.8,6.54,1.94,5.54.35,11.1.28,16.65.38C67.53,125,67.42,125.94,67.3,126.84Z"/></g></g></svg>