<svg id="Layer_1" data-name="Layer 1" xmlns="http://www.w3.org/2000/svg" viewBox="0 0 62.66 84.08"><defs><style>.cls-1{fill:#a9b7be;}</style></defs><title>2</title><path class="cls-1" d="M1643.63,8671.28c0.6,2.93,1.11,5.88,1.82,8.79,1.47,6,4.14,8.05,9.06,7.21,3.41-.59,4.95-2.41,4.5-6-1.37-11.09-10.28-18.52-21.14-17.14-2.14.27-5.4,1.5-5.92,3-1.71,5-5.82,4.75-9.6,5.82-1.75.49-4.67,2.64-4.5,3.12,0.81,2.26,2.06,5.07,4,6.07,2.73,1.41,6.2,1.36,9.34,2,3.47,0.72,5.34,2.78,5.05,6.46-0.25,3.2-.51,6.41-0.85,9.61-0.84,7.75-1.81,15.49.88,23.13,0.33,0.93-.4,2.24-0.64,3.37-0.78-.87-1.91-1.6-2.3-2.62-3.32-8.76-1.82-17.7-.77-26.62,0.1-.84.3-1.67,0.39-2.51,0.77-7,.19-7.67-7-8.66a38.71,38.71,0,0,1-5.46-1c-3.86-1.12-5.83-3.93-6.19-7.83-0.38-4.21.71-7.28,5.79-7.53,3.89-.19,7.06-1.28,9.54-5.18,3.35-5.27,14.94-5.65,21.59-1.38s10.21,10.95,10.88,18.62c0.21,2.34-2.12,6.53-4.07,7.09-3.52,1-8.16,1-11.38-.6-4.23-2.06-6.11-11.79-4.52-16.88Z" transform="translate(-1614.28 -8660.47)"/><path class="cls-1" d="M1650.39,8694.75l10.38,18.21,10.45-18.15,1.62,0.22c-0.1,1.27.17,2.75-.38,3.79-2.45,4.64-5.15,9.14-7.72,13.72-2.41,4.28-1.14,8.36,3.29,10.68,5.76,3,9.63,9.63,8.8,15.84-0.24,1.77-1.42,4.19-2.84,4.82s-4,0-5.56-1c-4.55-2.92-7.14-10.85-6.1-16.26,0.36-1.88-.17-3.93-0.3-5.91l-2.13-.17c-0.24,2-.94,4-0.64,5.92,1.07,6.67-1.16,12.09-6,16.38-3.84,3.4-8.06,1.49-8.72-3.61-0.71-5.47,3.38-13.13,8.41-15.73,5.28-2.74,6.46-6.32,3.68-11.28-2.56-4.58-5.24-9.1-7.66-13.75-0.49-.94-0.07-2.36-0.07-3.55Zm4.82,31.54c-6.15,3.07-8.72,9.46-6.21,14.86A11.3,11.3,0,0,0,1655.21,8726.3Zm17.43,15c2.38-6.26-.64-12.85-6.38-14.63C1664.15,8732.46,1666.54,8738.16,1672.64,8741.29Z" transform="translate(-1614.28 -8660.47)"/></svg>