<svg xmlns="http://www.w3.org/2000/svg" viewBox="0 0 56.02 56.48"><title>serv-can</title><g id="Layer_2" data-name="Layer 2"><g id="Layer_1-2" data-name="Layer 1"><path d="M53.81,39.2a10.25,10.25,0,0,0-11-3.8c2.06.75,3.3,1.21,4.55,1.65A9.8,9.8,0,0,1,53.5,49.64c-1.33,3.94-6.57,5.82-11.79,4,1.13-10.47-3.45-19-9.8-26.91a24.91,24.91,0,0,1-2.67-4.44c-.86-1.75-1.61-3.45.41-5.22a4.54,4.54,0,0,0,.94-3.59c-.73-4.64-2.69-8.68-6.72-11.42S12.46-.85,10.26,2.31c-2,2.89-4.49,3.68-7.52,4C.89,6.47.21,7.51.05,9.29c-.39,4.13,1.6,6.52,6.12,7.13,6.34.86,6.4.94,5.46,7.33,0,.21-.08.42-.11.64a45.79,45.79,0,0,0,.56,17c.95,3.94.18,8.29.18,12.52l-4.82.47c0,.45-.05.9-.08,1.35a28.64,28.64,0,0,0,5.38.19c.65-.08,1.45-1.43,1.61-2.3a39.07,39.07,0,0,0-.73-15.77c-.75-3.39-.39-7.06-.27-10.6,0-.61,1.32-1.57,2.14-1.7a99.09,99.09,0,0,1,10.32-1.2,4,4,0,0,1,2.84,1.32C35.78,34.37,41,43.78,40,55.54c0,.09.11.19.16.28,6,1.6,11.69.23,14.23-3.42C56.77,49,56.52,42.89,53.81,39.2Zm-27.75-20,.71,2.94L14,23.65c-.08-.73-.16-1.13-.16-1.54,0-6.44-.34-6.79-6.77-7.64-1.25-.16-2.79-.38-3.59-1.18A5.69,5.69,0,0,1,2.22,9.61c0-.52,1.44-1.38,2.33-1.55,2.83-.54,5.48-.65,7-4.09,1.05-2.43,7.3-2.46,10.58-.56,4,2.3,5.86,6,6.4,10.39.12,1-1.26,2.94-2,3-1.72.12-4.15-.15-5.1-1.27-1.28-1.51-1.42-4-2.06-6-.27-.85-.6-1.68-1.19-3.35C16.29,13.31,19.8,20.75,26.06,19.24Z"/><path d="M28.09,54.21c-2.14.22-3.08-.77-3.75-2.63-2.17-6-.75-10.06,5.09-14.52.52-.4.69-1.27,1-1.92a5.49,5.49,0,0,0-2,.19,12.6,12.6,0,0,0-7,12.53,55.86,55.86,0,0,0,1.25,6l-4.54,1L18.44,56H35.16c.1-.34.21-.68.31-1a6.74,6.74,0,0,0-1.87-.72A35,35,0,0,0,28.09,54.21Z"/></g></g></svg>