<svg xmlns="http://www.w3.org/2000/svg" viewBox="0 0 32.68 43.86"><title>Asset 33</title><g id="Layer_2" data-name="Layer 2"><g id="Layer_1-2" data-name="Layer 1"><path d="M15.31,5.64c.31,1.53.57,3.07,1,4.58C17,13.34,18.42,14.42,21,14c1.78-.31,2.58-1.26,2.35-3.14C22.62,5.06,18,1.18,12.3,1.9c-1.11.14-2.81.78-3.09,1.59-.89,2.62-3,2.48-5,3C3.3,6.78,1.77,7.9,1.86,8.15c.42,1.18,1.07,2.65,2.08,3.17,1.42.73,3.23.7,4.87,1a2.92,2.92,0,0,1,2.64,3.37c-.14,1.67-.27,3.34-.45,5-.43,4.05-.94,8.08.46,12.07.17.48-.2,1.16-.33,1.75-.41-.45-1-.83-1.2-1.36C8.2,28.63,9,24,9.53,19.32c.05-.44.16-.87.21-1.31.4-3.64.09-4-3.63-4.52A21.06,21.06,0,0,1,3.26,13,4.29,4.29,0,0,1,0,8.87c-.2-2.2.36-3.8,3-3.93a5.54,5.54,0,0,0,5-2.7C9.78-.51,15.83-.7,19.3,1.52A12.34,12.34,0,0,1,25,11.24c.11,1.22-1.1,3.4-2.12,3.69a9,9,0,0,1-5.93-.31c-2.21-1.08-3.19-6.15-2.36-8.81Z"/><path d="M18.84,17.88l5.41,9.5,5.45-9.47.84.12a5.47,5.47,0,0,1-.19,2c-1.28,2.42-2.69,4.77-4,7.16-1.26,2.23-.59,4.36,1.72,5.57A8.53,8.53,0,0,1,32.63,41a3.58,3.58,0,0,1-1.48,2.52,3.63,3.63,0,0,1-2.9-.52c-2.37-1.53-3.72-5.66-3.18-8.49a12.88,12.88,0,0,0-.16-3.08l-1.11-.08a11.35,11.35,0,0,0-.33,3.08A8.94,8.94,0,0,1,20.34,43c-2,1.78-4.21.78-4.56-1.88-.37-2.85,1.77-6.85,4.39-8.21s3.37-3.29,1.92-5.88c-1.33-2.39-2.73-4.75-4-7.17-.26-.49,0-1.23,0-1.86Zm2.51,16.45c-3.21,1.6-4.55,4.94-3.24,7.75A5.89,5.89,0,0,0,21.35,34.33Zm9.09,7.82a5.69,5.69,0,0,0-3.33-7.63C26,37.55,27.26,40.52,30.44,42.15Z"/></g></g></svg>