<svg id="Layer_1" data-name="Layer 1" xmlns="http://www.w3.org/2000/svg" viewBox="0 0 94 94"><defs><style>.cls-1{fill:#fff;}.cls-2{fill:none;stroke:#a5b9c1;stroke-miterlimit:10;}</style></defs><title>superfill2</title><path class="cls-1" d="M614.5,194A42.5,42.5,0,1,1,572,151.5,42.5,42.5,0,0,1,614.5,194" transform="translate(-525 -147)"/><circle class="cls-2" cx="47" cy="47" r="42.5"/><circle class="cls-2" cx="47" cy="47" r="46.5"/><path d="M569.36,172.52c0.37,1.82.69,3.65,1.13,5.44,0.91,3.71,2.57,5,5.61,4.46,2.11-.36,3.07-1.49,2.79-3.73-0.85-6.87-6.37-11.47-13.1-10.62-1.33.17-3.34,0.93-3.67,1.89-1.06,3.12-3.61,2.94-5.95,3.61-1.08.31-2.9,1.63-2.79,1.93,0.5,1.4,1.28,3.14,2.47,3.76,1.69,0.87,3.84.84,5.79,1.24,2.15,0.44,3.31,1.72,3.13,4-0.16,2-.32,4-0.53,6-0.52,4.8-1.12,9.6.55,14.33,0.2,0.58-.25,1.39-0.4,2.09a6.32,6.32,0,0,1-1.42-1.62c-2.05-5.43-1.12-11-.48-16.49,0.06-.52.19-1,0.24-1.56,0.48-4.32.12-4.75-4.31-5.37a23.89,23.89,0,0,1-3.38-.64,5.11,5.11,0,0,1-3.83-4.85c-0.24-2.61.44-4.51,3.59-4.66a6.63,6.63,0,0,0,5.91-3.21c2.08-3.27,9.25-3.5,13.38-.85a14.65,14.65,0,0,1,6.74,11.54c0.13,1.45-1.31,4-2.52,4.39a10.7,10.7,0,0,1-7-.37c-2.62-1.28-3.79-7.3-2.8-10.46l0.89-.21" transform="translate(-525 -147)"/><path d="M573.55,187.07L580,198.35l6.47-11.24,1,0.14a6.48,6.48,0,0,1-.23,2.35c-1.52,2.87-3.19,5.67-4.78,8.5-1.49,2.66-.71,5.18,2,6.62,3.57,1.87,6,6,5.45,9.81a4.23,4.23,0,0,1-1.76,3,4.32,4.32,0,0,1-3.44-.62c-2.82-1.81-4.42-6.72-3.78-10.08a15.14,15.14,0,0,0-.18-3.66l-1.32-.1a13.78,13.78,0,0,0-.4,3.67,10.6,10.6,0,0,1-3.72,10.15c-2.38,2.11-5,.93-5.4-2.24-0.44-3.39,2.1-8.14,5.21-9.75,3.27-1.69,4-3.91,2.28-7-1.59-2.84-3.24-5.64-4.74-8.52a5.3,5.3,0,0,1,0-2.2l0.92-.1m3,19.54c-3.81,1.9-5.4,5.86-3.85,9.2a7,7,0,0,0,3.85-9.2m10.8,9.29c1.47-3.87-.4-8-4-9.06-1.31,3.59.17,7.12,4,9.06" transform="translate(-525 -147)"/></svg>