<svg xmlns="http://www.w3.org/2000/svg" viewBox="0 0 108 75.6"><defs><style>.cls-1{fill:#aab8bf;}</style></defs><title>transporte</title><g id="Layer_2" data-name="Layer 2"><g id="Layer_1-2" data-name="Layer 1"><g id="Outline"><path class="cls-1" d="M104.37,37.82l-1.48-1.1L98.59,21a9,9,0,0,0-8.68-6.62H70.2V7.2A7.2,7.2,0,0,0,63,0H45a7.21,7.21,0,0,0-7.2,7.2v3.6h3.6V7.2A3.6,3.6,0,0,1,45,3.6H63a3.6,3.6,0,0,1,3.6,3.6v7.2H63V9a1.81,1.81,0,0,0-1.8-1.8H46.8A1.81,1.81,0,0,0,45,9v5.4H18.09A9,9,0,0,0,10.9,18h-.1v.14A9.14,9.14,0,0,0,9.41,21L5.12,36.72l-1.49,1.1a8.94,8.94,0,0,0,0,14.37l1.49,1.09L9.41,69a9.19,9.19,0,0,0,1.39,2.89V72h.1a9,9,0,0,0,7.19,3.6H89.91A9,9,0,0,0,98.59,69l1-3.7-3.47-1-1,3.7a5.42,5.42,0,0,1-5.21,4H50.4v-.13A9.19,9.19,0,0,0,51.79,69l4.3-15.7,1.48-1.1A8.91,8.91,0,0,0,61,46.8h43.08a5.46,5.46,0,0,1-1.85,2.49l-1.52,1.11H63V54H99l-1.7,6.18,3.48,1,2.15-7.85,1.48-1.1a8.91,8.91,0,0,0,1.89-12.47,8.69,8.69,0,0,0-1.89-1.89ZM10.8,60.41,8.42,51.73a1.76,1.76,0,0,0-.67-1l-2-1.46a5.32,5.32,0,0,1-1.13-7.45,5.5,5.5,0,0,1,1.13-1.13l2-1.46a1.74,1.74,0,0,0,.67-1l2.38-8.69ZM19.8,72H18.09a5.4,5.4,0,0,1-3.69-1.47V61.2h5.4Zm0-14.4H14.4V46.8h5.4Zm0-14.4H14.4V32.4h5.4Zm0-14.4H14.4V19.47A5.4,5.4,0,0,1,18.09,18H19.8Zm9,43.2H23.4V61.2h5.4Zm0-14.4H23.4V46.8h5.4Zm0-14.4H23.4V32.4h5.4Zm0-14.4H23.4V18h5.4Zm9,43.2H32.4V61.2h5.4Zm0-14.4H32.4V46.8h5.4Zm0-14.4H32.4V32.4h5.4Zm0-14.4H32.4V18h5.4Zm9,41.73A5.4,5.4,0,0,1,43.11,72H41.4V61.2h5.4Zm0-12.93H41.4V46.8h5.4Zm0-14.4H41.4V32.4h5.4Zm0-14.4H41.4V18h1.71a5.4,5.4,0,0,1,3.69,1.47Zm1.8-14.4V10.8H59.4v3.6Zm6.83,34.89-2,1.46a1.79,1.79,0,0,0-.67,1L50.4,60.41V29.59l2.38,8.68a1.78,1.78,0,0,0,.67,1l2,1.46a5.32,5.32,0,0,1,1.13,7.45,5,5,0,0,1-1.13,1.13ZM61,43.2a8.91,8.91,0,0,0-3.44-5.38l-1.49-1.1L51.79,21a9.14,9.14,0,0,0-1.39-2.88V18H89.91a5.42,5.42,0,0,1,5.21,4L99,36H70.2v3.6h30.52l1.52,1.11a5.37,5.37,0,0,1,1.84,2.49ZM63,36h3.6v3.6H63Zm1.71-4.17L61.29,33l-3.6-10.8L61.11,21ZM70.29,33l-3.6-10.8L70.11,21l3.6,10.8Zm9,0-3.6-10.8L79.11,21l3.6,10.8Zm9,0-3.6-10.8L88.11,21l3.6,10.8ZM61.29,57l3.42,1.14L61.11,69l-3.42-1.14Zm5.4,10.8L70.29,57l3.42,1.14L70.11,69Zm9,0L79.29,57l3.42,1.14L79.11,69Zm9,0L88.29,57l3.42,1.14L88.11,69Z"/></g></g></g></svg>