<svg id="Layer_1" data-name="Layer 1" xmlns="http://www.w3.org/2000/svg" viewBox="0 0 96.08 66.52"><defs><style>.cls-1{fill:#a9b7be;}</style></defs><title>3</title><path class="cls-1" d="M1388,8915.94a17,17,0,0,1-2-2.35c-5-8.76-9.9-17.58-15-26.29a3.76,3.76,0,0,0-2.9-1.22c-7.5.21-10-1.59-11.63-8.94a28.13,28.13,0,0,1-.74-5.13c0-.71.65-1.44,1-2.17a7,7,0,0,1,1.46,2c0.77,2.81,1,5.79,2.09,8.47,1.36,3.49,4.22,4.39,7.93,3.08s3.34-3.88,2.52-6.85c-2.53-9.18-7.87-13.37-17.22-13.37-2.13,0-4.27,0-6.4,0-3.49.13-5.65,1.8-6.49,5.35a3.55,3.55,0,0,1-2.47,2.24c-3,.11-5.68,0-7.57,3.06-0.62,1-2.55,1.17-4.06,1.79,0.32,2.84,2.11,4.05,4.76,4.21,3.32,0.2,6.66.27,10,.42,2.84,0.13,4.67,1.43,5,3.82-5.76-.68-11.5-1.09-17.14-2.11-4.38-.79-7.45-7.87-5.52-12.11a3.42,3.42,0,0,1,2.48-1.31,42.42,42.42,0,0,1,6,0c3.38,0.15,6.6.43,7.71-4.1,0.3-1.22,2.15-2.38,3.55-2.95,13.39-5.47,26.62,1.26,30,15.2,0.36,1.51.84,3.55,0.15,4.65-1.79,2.84-.18,4.6,1.13,6.75,4,6.58,8,13.19,11.8,19.91,1.25,2.22,1.83,4.83,2.71,7.26Z" transform="translate(-1293.11 -8859.55)"/><path class="cls-1" d="M1293.11,8877.2h16.64v-16.87h19.79l-0.47,6.23c-4.91-6.91-10.94-2.6-16.51-4.22v17.16h-16.91v14.61h16.52v17h14.72v-16.87c3.94,0.3,7.41-.79,10.54.71l-0.08,1.48-7.7.63v16.64h-19.55v-16.89h-17V8877.2Z" transform="translate(-1293.11 -8859.55)"/><path class="cls-1" d="M1365.45,8925.28c-1.29-12.74-1-26-12.82-35.77-0.19,1.71-.33,2.68-0.38,3.65s0,1.85,0,3.25c-5.47.29-11.77-.43-11.76,7.69-2.4.81-6-.82-6,3.57,0,3.32,1.32,5.34,4.75,5.72,7.49,0.83,9.93,4.12,8.5,12.68-0.88-1.19-1.63-1.77-1.77-2.47-1.39-6.76-1.36-6.73-7.91-7.84a6.83,6.83,0,0,1-6.07-6.89c-0.16-3.24.26-6.58,4.74-6.94a2.06,2.06,0,0,0,1.55-.95c1.61-5.7,6.1-6.86,11.36-7l0.36-7.29c8.06,1,14.31,10.13,16.6,24C1368.15,8920.42,1367.94,8924.07,1365.45,8925.28Z" transform="translate(-1293.11 -8859.55)"/></svg>