<svg id="Layer_1" data-name="Layer 1" xmlns="http://www.w3.org/2000/svg" viewBox="0 0 94 94"><defs><style>.cls-1{fill:#fff;}.cls-2{fill:none;stroke:#a5b9c1;stroke-miterlimit:10;}</style></defs><title>filled2</title><path class="cls-1" d="M362.5,194A42.5,42.5,0,1,1,320,151.5,42.5,42.5,0,0,1,362.5,194" transform="translate(-273 -147)"/><circle class="cls-2" cx="47" cy="47" r="42.5"/><circle class="cls-2" cx="47" cy="47" r="46.5"/><path d="M338.41,190.23L337,176.45H305.28L304,190.35l-1.6-.13,0.84-15.79h8.45l1.55-8.43h15.67l1.55,8.25h8.36c0.33,5.54,1.45,10.73,1.07,16l-1.49,0M314,174.13h14.1c-0.32-6.28-.32-6.28-6-6.28-0.52,0-1,0-1.57,0-6.6.15-5.61-1.19-6.51,6.28" transform="translate(-273 -147)"/><path d="M303.67,212.73l-1.36-16,1-.21c2,1.65,1,4.32,1.44,6.45a69.55,69.55,0,0,1,.76,7.78h16.57c4,0,8-.2,12,0.07,2.87,0.2,3.64-1,3.65-3.55,0-2.93.31-5.87,0.58-8.8a8,8,0,0,1,.82-2.07l1.11,0.24c-0.19,3.36-.42,6.72-0.57,10.09-0.27,6-.26,6-6.29,6H303.67" transform="translate(-273 -147)"/><path d="M342,194.52h-39a6.5,6.5,0,0,1-1.88-.06,4.19,4.19,0,0,1-1.21-1,3.63,3.63,0,0,1,1.1-.82,7.94,7.94,0,0,1,1.88-.07c12.08,0,24.16,0,36.23,0a17.46,17.46,0,0,1,3.08.55L342,194.52" transform="translate(-273 -147)"/><path d="M314.07,187.41c0-2.22,0-4.44,0-6.65a1,1,0,0,1,1.77,0c0.07,2.18,0,4.36,0,6.55l-1.85.07" transform="translate(-273 -147)"/><path d="M314.15,206.94c0-2.25,0-4.5,0-6.75a1.22,1.22,0,0,1,1-.44,1.13,1.13,0,0,1,.73.8c0.06,2.12,0,4.24,0,6.36l-1.8,0" transform="translate(-273 -147)"/><path d="M320.37,187.87v-7.66c2.15,0.77,2.4,5.2,0,7.66" transform="translate(-273 -147)"/><path d="M308.34,188.13v-8.06c2,1.2,2.26,5.16,0,8.06" transform="translate(-273 -147)"/><path d="M308.5,199.73c1.88,1.06,2.11,5,0,7.83v-7.83Z" transform="translate(-273 -147)"/><path d="M320.62,199.8c1.8,0.85,2.09,4.64,0,7.89V199.8Z" transform="translate(-273 -147)"/><path d="M333.87,199.67v7.4c-2.33-1.73-2.24-6.19,0-7.4" transform="translate(-273 -147)"/><path d="M326.7,199.73c1.94,1.09,2.17,5,0,7.76v-7.76Z" transform="translate(-273 -147)"/><path d="M326.7,180.17c1.92,1.1,2.14,5,0,7.79v-7.79Z" transform="translate(-273 -147)"/><path d="M333.88,187.95c-2.27-2.55-2.13-6.54,0-7.95v7.95Z" transform="translate(-273 -147)"/><path d="M325.77,170H316.4l0.16,2.4h9.09l0.13-2.4" transform="translate(-273 -147)"/><path d="M325.77,170l-0.12,2.4h-9.09L316.4,170h9.38Z" transform="translate(-273 -147)"/></svg>