<svg xmlns="http://www.w3.org/2000/svg" viewBox="0 0 42.73 41.86"><title>men-home</title><g id="Layer_2" data-name="Layer 2"><g id="Layer_1-2" data-name="Layer 1"><path d="M40.57,20.64c1-3.1.25-4.68-1.78-6.14C33,10.35,27.31,6,21.45,1.58,15.15,6.31,8.87,10.9,2.78,15.72c-.9.72-.9,2.58-1.35,4C4.87,20.8,5.89,16.15,9.05,17c-.19.63-.19.75-.24.78C4.36,20,4,23.82,4.28,28.21c.28,3.7.09,7.43,0,11.14a8,8,0,0,1-.64,2.09l-.87-.22V22.84C1.61,21.74.24,21,.25,20.37c0-2-1.09-4.22,1.15-5.87Q10.69,7.66,19.85.64C21.23-.42,22.13,0,23.32.87,29.16,5.32,35,9.78,41,14c1.7,1.22,1.84,2.65,1.72,4.35-.1,1.42.73,3.35-1.88,3.58-.26,0-.57,1.36-.57,2.09,0,5,0,9.91-.07,14.86a7.83,7.83,0,0,1-.88,2.36,8.93,8.93,0,0,1-.77-2.47c-.08-4.6-.2-9.21,0-13.8.12-2.65-.56-4.56-2.86-6A8.09,8.09,0,0,1,34,17l.75-.62Z"/><path d="M13.72,41.37c-.26-.28-.73-.56-.73-.85a72.88,72.88,0,0,1,.17-10c.53-3.91,4.56-5.71,10.25-5.09,4.09.44,6.42,2.79,6.47,6.63,0,2.82,0,5.65-.06,8.47a6.55,6.55,0,0,1-.53,1.36c-.5-1-1-1.49-1-2-.09-2.47,0-4.94-.05-7.41A7,7,0,0,0,28,30.08c-.91-2.45-4.66-3.73-8.6-3-3.28.59-4.7,2.13-4.75,5.31,0,3,0,5.91,0,8.86Z"/></g></g></svg>