<svg xmlns="http://www.w3.org/2000/svg" viewBox="0 0 35.61 39.34"><title>men-shop</title><g id="Layer_2" data-name="Layer 2"><g id="Layer_1-2" data-name="Layer 1"><path d="M32.34,20.4c-.39-3.82-.78-7.65-1.18-11.6H4.45c-.37,3.94-.72,7.82-1.08,11.7L2,20.39c.23-4.33.46-8.66.71-13.29H9.85L11.16,0H24.35c.41,2.21.83,4.44,1.3,7h7c.29,4.66,1.23,9,.9,13.44ZM11.81,6.85H23.67c-.27-5.29-.27-5.29-5.07-5.29-.44,0-.88,0-1.32,0C11.73,1.68,12.56.56,11.81,6.85Z"/><path d="M3.09,39.34c-.4-4.74-.77-9.1-1.14-13.46l.85-.17c1.71,1.38.84,3.64,1.21,5.43a57.71,57.71,0,0,1,.64,6.55h14c3.36,0,6.73-.17,10.07.06,2.42.16,3.06-.81,3.08-3,0-2.47.26-4.94.49-7.4a6.44,6.44,0,0,1,.69-1.75l.93.2c-.17,2.83-.36,5.66-.49,8.49-.22,5-.21,5-5.29,5Z"/><path d="M35.4,24H2.6A5.52,5.52,0,0,1,1,24c-.39-.12-.68-.56-1-.85.31-.24.58-.61.92-.69a6.48,6.48,0,0,1,1.59-.06q15.26,0,30.5,0a13.94,13.94,0,0,1,2.6.47Z"/><path d="M11.85,18c0-1.87,0-3.74,0-5.6,0-.18.49-.49.75-.49s.73.32.74.52c.05,1.83,0,3.67,0,5.51Z"/><path d="M11.92,34.47c0-1.9,0-3.79,0-5.68,0-.15.58-.42.84-.37a1,1,0,0,1,.61.67c0,1.79,0,3.57,0,5.36Z"/><path d="M17.15,18.42V12C19,12.62,19.17,16.35,17.15,18.42Z"/><path d="M7,18.63V11.84C8.74,12.86,8.92,16.18,7,18.63Z"/><path d="M7.16,28.39c1.58.9,1.77,4.21,0,6.6Z"/><path d="M17.36,28.46c1.51.71,1.76,3.9,0,6.64Z"/><path d="M28.51,28.35v6.22C26.55,33.12,26.63,29.36,28.51,28.35Z"/><path d="M22.48,28.4c1.63.92,1.82,4.18,0,6.54Z"/><path d="M22.48,11.93c1.62.93,1.8,4.21,0,6.56Z"/><path d="M28.53,18.48c-1.91-2.15-1.79-5.51,0-6.69Z"/><path d="M21.7,3.33H13.8c.07,1,.12,1.73.14,2h7.65C21.61,5,21.65,4.29,21.7,3.33Z"/><path d="M21.7,3.33c-.05,1-.09,1.71-.11,2H13.94c0-.29-.07-1.06-.14-2Z"/></g></g></svg>