<svg xmlns="http://www.w3.org/2000/svg" viewBox="0 0 63.76 44.14"><title>men-salud</title><g id="Layer_2" data-name="Layer 2"><g id="Layer_1-2" data-name="Layer 1"><path d="M63,37.43a11.2,11.2,0,0,1-1.3-1.56c-3.32-5.82-6.57-11.67-9.94-17.45a2.5,2.5,0,0,0-1.93-.81c-5,.14-6.61-1.06-7.72-5.94a18.58,18.58,0,0,1-.49-3.4c0-.47.43-1,.67-1.44.33.43.83.82,1,1.31a57.61,57.61,0,0,0,1.38,5.62c.91,2.32,2.8,2.91,5.27,2.05s2.22-2.58,1.67-4.55c-1.68-6.09-5.22-8.87-11.42-8.87-1.42,0-2.84,0-4.25,0A4.15,4.15,0,0,0,31.59,6,2.33,2.33,0,0,1,30,7.45c-2,.07-3.76,0-5,2-.41.66-1.69.77-2.7,1.19a3,3,0,0,0,3.16,2.79c2.21.14,4.42.18,6.63.28,1.89.09,3.09.95,3.32,2.54-3.82-.46-7.64-.73-11.38-1.41-2.9-.52-4.94-5.22-3.66-8A2.27,2.27,0,0,1,21.94,6a27.83,27.83,0,0,1,4,0c2.25.1,4.38.28,5.11-2.72.2-.81,1.43-1.58,2.36-2,8.88-3.63,17.67.84,19.89,10.09.24,1,.56,2.35.1,3.08-1.19,1.88-.12,3.05.75,4.48,2.67,4.37,5.32,8.75,7.83,13.21a30.58,30.58,0,0,1,1.8,4.82Z"/><path d="M0,11.71H11V.52H24.17l-.31,4.13C20.6.07,16.6,2.93,12.9,1.85V13.24H1.68v9.69h11V34.22h9.77V23c2.61.2,4.92-.53,7,.47l0,1-5.11.42v11h-13V24.73H0Z"/><path d="M48,43.62c-.86-8.45-.68-17.27-8.51-23.73-.13,1.13-.22,1.77-.26,2.42s0,1.22,0,2.15c-3.62.19-7.81-.28-7.8,5.11-1.59.53-4-.55-4,2.37,0,2.2.88,3.54,3.15,3.79,5,.55,6.59,2.74,5.65,8.41C35.63,43.36,35.13,43,35,42.5c-.92-4.48-.9-4.46-5.25-5.2a4.53,4.53,0,0,1-4-4.58c-.11-2.14.17-4.36,3.14-4.6.37,0,1-.34,1-.63,1.07-3.78,4-4.55,7.54-4.64L37.71,18c5.35.67,9.5,6.72,11,15.92C49.8,40.4,49.66,42.82,48,43.62Z"/></g></g></svg>