<svg id="Layer_1" data-name="Layer 1" xmlns="http://www.w3.org/2000/svg" viewBox="0 0 94 94"><defs><style>.cls-1{fill:#fff;}.cls-2{fill:none;stroke:#a5b9c1;stroke-miterlimit:10;}</style></defs><title>superfill</title><path class="cls-1" d="M491.5,194A42.5,42.5,0,1,1,449,151.5,42.5,42.5,0,0,1,491.5,194" transform="translate(-402 -147)"/><circle class="cls-2" cx="47" cy="47" r="42.5"/><circle class="cls-2" cx="47" cy="47" r="46.5"/><path d="M486.11,211.09a13.41,13.41,0,0,1-1.54-1.85c-3.94-6.91-7.81-13.86-11.81-20.73a3,3,0,0,0-2.29-1c-5.91.16-7.85-1.26-9.17-7a22.28,22.28,0,0,1-.58-4,4.44,4.44,0,0,1,.79-1.71,5.5,5.5,0,0,1,1.15,1.56c0.61,2.21.82,4.56,1.65,6.68,1.08,2.75,3.32,3.46,6.26,2.43s2.63-3.06,2-5.4c-2-7.24-6.2-10.54-13.57-10.54-1.68,0-3.36,0-5,0a4.94,4.94,0,0,0-5.12,4.21,2.8,2.8,0,0,1-1.95,1.76c-2.33.09-4.48,0-6,2.41-0.49.78-2,.92-3.2,1.41,0.26,2.24,1.66,3.19,3.75,3.32,2.62,0.16,5.25.21,7.87,0.33,2.24,0.11,3.68,1.13,3.94,3-4.54-.54-9.07-0.86-13.51-1.67-3.45-.62-5.87-6.2-4.35-9.54a2.69,2.69,0,0,1,2-1,33.52,33.52,0,0,1,4.72,0c2.67,0.12,5.2.34,6.07-3.23,0.24-1,1.7-1.88,2.8-2.33,10.55-4.31,21,1,23.63,12,0.29,1.19.66,2.8,0.12,3.66-1.41,2.24-.14,3.62.89,5.32,3.17,5.19,6.32,10.4,9.3,15.7a38,38,0,0,1,2.14,5.72l-0.92.58" transform="translate(-402 -147)"/><path d="M411.29,180.54h13.12V167.25H440l-0.37,4.91c-3.87-5.44-8.62-2.05-13-3.33v13.53H413.28v11.52h13v13.41h11.6V194c3.11,0.24,5.84-.62,8.31.56l-0.06,1.17-6.07.49v13.12H424.67V196H411.29V180.54Z" transform="translate(-402 -147)"/><path d="M468.31,218.45c-1-10-.81-20.51-10.11-28.19-0.15,1.35-.26,2.11-0.3,2.87s0,1.46,0,2.56c-4.31.23-9.28-.33-9.27,6.07-1.89.64-4.74-.65-4.76,2.82,0,2.62,1,4.21,3.74,4.51,5.91,0.65,7.83,3.25,6.7,10a7.48,7.48,0,0,1-1.4-1.95c-1.09-5.32-1.07-5.31-6.24-6.18a5.38,5.38,0,0,1-4.79-5.43c-0.13-2.55.2-5.19,3.74-5.47a1.62,1.62,0,0,0,1.22-.75c1.27-4.49,4.8-5.4,9-5.51l0.28-5.75c6.36,0.79,11.28,8,13.09,18.91,1.27,7.68,1.1,10.55-.86,11.51" transform="translate(-402 -147)"/></svg>